SplineFontDB: 3.2
FontName: KoreeneSans-ExtraLight
FullName: Koreene Sans ExtraLight
FamilyName: Koreene Sans ExtraLight
Weight: Extra-Light
Copyright: (C) Copyright HanYang I&C Co.,Ltd. All rights reserved.
Version: 2.50; ttfautohint (v1.8.4.7-5d5b-dirty)
ItalicAngle: 0
UnderlinePosition: -122
UnderlineWidth: 45
Ascent: 819
Descent: 205
InvalidEm: 0
sfntRevision: 0x00020147
LayerCount: 2
Layer: 0 1 "Back" 1
Layer: 1 1 "Fore" 0
XUID: [1021 531 -1996577725 4407703]
StyleMap: 0x0040
FSType: 0
OS2Version: 4
OS2_WeightWidthSlopeOnly: 0
OS2_UseTypoMetrics: 1
CreationTime: 1068260456
ModificationTime: 1702473894
PfmFamily: 81
TTFWeight: 200
TTFWidth: 5
LineGap: 256
VLineGap: 0
Panose: 0 0 0 0 0 0 0 0 0 0
OS2TypoAscent: 970
OS2TypoAOffset: 0
OS2TypoDescent: -235
OS2TypoDOffset: 0
OS2TypoLinegap: 256
OS2WinAscent: 1098
OS2WinAOffset: 0
OS2WinDescent: 363
OS2WinDOffset: 0
HheadAscent: 970
HheadAOffset: 0
HheadDescent: -235
HheadDOffset: 0
OS2SubXSize: 205
OS2SubYSize: 205
OS2SubXOff: 0
OS2SubYOff: 287
OS2SupXSize: 205
OS2SupYSize: 205
OS2SupXOff: 0
OS2SupYOff: 963
OS2StrikeYSize: 102
OS2StrikeYPos: 512
OS2CapHeight: 735
OS2XHeight: 523
OS2Vendor: 'HY  '
OS2CodePages: 2000019f.00000000
OS2UnicodeRanges: e10002ff.4000001b.00000000.00000000
Lookup: 1 0 0 "'aalt' Access All Alternates lookup 0" { "'aalt' Access All Alternates lookup 0 subtable"  } ['aalt' ('DFLT' <'dflt' > 'cyrl' <'dflt' > 'grek' <'dflt' > 'hang' <'dflt' > 'jamo' <'dflt' > 'latn' <'dflt' > ) ]
Lookup: 3 0 0 "'aalt' Access All Alternates lookup 1" { "'aalt' Access All Alternates lookup 1 subtable"  } ['aalt' ('DFLT' <'dflt' > 'cyrl' <'dflt' > 'grek' <'dflt' > 'hang' <'dflt' > 'jamo' <'dflt' > 'latn' <'dflt' > ) ]
Lookup: 1 0 0 "'locl' Localized Forms in Latin lookup 2" { "'locl' Localized Forms in Latin lookup 2 subtable"  } ['locl' ('latn' <'MOL ' > ) ]
Lookup: 1 0 0 "'locl' Localized Forms in Latin lookup 3" { "'locl' Localized Forms in Latin lookup 3 subtable"  } ['locl' ('latn' <'ROM ' > ) ]

StartChar: exclam
Encoding: 33 33 4
Width: 315
GlyphClass: 2
Flags: W
LayerCount: 2
Fore
SplineSet
109 -9 m 1,0,-1
 109 86 l 1,1,-1
 208 86 l 1,2,-1
 208 -9 l 1,3,-1
 109 -9 l 1,0,-1
179 209 m 1,4,-1
 137 209 l 1,5,-1
 129 736 l 1,6,-1
 187 736 l 1,7,-1
 179 209 l 1,4,-1
EndSplineSet
EndChar

StartChar: quotedbl
Encoding: 34 34 5
Width: 468
GlyphClass: 2
Flags: W
LayerCount: 2
Fore
SplineSet
263 553 m 1,0,-1
 350 832 l 1,1,-1
 425 832 l 1,2,-1
 303 553 l 1,3,-1
 263 553 l 1,0,-1
71 553 m 1,4,-1
 158 832 l 1,5,-1
 232 832 l 1,6,-1
 111 553 l 1,7,-1
 71 553 l 1,4,-1
EndSplineSet
EndChar

StartChar: numbersign
Encoding: 35 35 6
Width: 698
GlyphClass: 2
Flags: W
LayerCount: 2
Fore
SplineSet
49 212 m 1,0,-1
 49 249 l 1,1,-1
 181 249 l 1,2,-1
 213 467 l 1,3,-1
 82 467 l 1,4,-1
 82 503 l 1,5,-1
 217 503 l 1,6,-1
 247 711 l 1,7,-1
 288 711 l 1,8,-1
 260 503 l 1,9,-1
 480 503 l 1,10,-1
 510 711 l 1,11,-1
 551 711 l 1,12,-1
 523 503 l 1,13,-1
 650 503 l 1,14,-1
 650 467 l 1,15,-1
 518 467 l 1,16,-1
 487 249 l 1,17,-1
 618 249 l 1,18,-1
 618 212 l 1,19,-1
 483 212 l 1,20,-1
 455 3 l 1,21,-1
 411 3 l 1,22,-1
 440 212 l 1,23,-1
 220 212 l 1,24,-1
 192 3 l 1,25,-1
 148 3 l 1,26,-1
 177 212 l 1,27,-1
 49 212 l 1,0,-1
224 249 m 1,28,-1
 444 249 l 1,29,-1
 476 467 l 1,30,-1
 255 467 l 1,31,-1
 224 249 l 1,28,-1
EndSplineSet
EndChar

StartChar: dollar
Encoding: 36 36 7
Width: 594
GlyphClass: 2
Flags: W
LayerCount: 2
Fore
SplineSet
77 121 m 1,0,-1
 113 142 l 1,1,2
 143 97 143 97 197 68.5 c 128,-1,3
 251 40 251 40 299 40 c 0,4,5
 372 40 372 40 420 74 c 128,-1,6
 468 108 468 108 468 180 c 0,7,8
 468 211 468 211 456.5 237 c 128,-1,9
 445 263 445 263 429.5 280 c 128,-1,10
 414 297 414 297 384.5 313.5 c 128,-1,11
 355 330 355 330 332 340 c 128,-1,12
 309 350 309 350 271 365 c 0,13,14
 259 370 259 370 253 372 c 0,15,16
 176 402 176 402 134 445 c 128,-1,17
 92 488 92 488 92 561 c 0,18,19
 92 629 92 629 142 679 c 128,-1,20
 192 729 192 729 275 733 c 1,21,-1
 275 817 l 1,22,-1
 320 817 l 1,23,-1
 320 732 l 1,24,25
 373 731 373 731 421.5 699.5 c 128,-1,26
 470 668 470 668 489 630 c 1,27,-1
 453 612 l 1,28,29
 392 694 392 694 298 694 c 0,30,31
 224 694 224 694 182 656.5 c 128,-1,32
 140 619 140 619 140 560 c 0,33,34
 140 496 140 496 181.5 461.5 c 128,-1,35
 223 427 223 427 308 393 c 0,36,37
 346 378 346 378 368 368.5 c 128,-1,38
 390 359 390 359 422.5 339.5 c 128,-1,39
 455 320 455 320 472 300 c 128,-1,40
 489 280 489 280 502.5 250 c 128,-1,41
 516 220 516 220 516 185 c 0,42,43
 516 97 516 97 460 50.5 c 128,-1,44
 404 4 404 4 320 0 c 1,45,-1
 320 -80 l 1,46,-1
 275 -80 l 1,47,-1
 275 1 l 1,48,49
 224 3 224 3 167.5 34.5 c 128,-1,50
 111 66 111 66 77 121 c 1,0,-1
EndSplineSet
EndChar

StartChar: percent
Encoding: 37 37 8
Width: 976
GlyphClass: 2
Flags: W
LayerCount: 2
Fore
SplineSet
538 155 m 0,0,1
 538 231 538 231 589.5 279.5 c 128,-1,2
 641 328 641 328 718 328 c 256,3,4
 795 328 795 328 846.5 279 c 128,-1,5
 898 230 898 230 898 155 c 0,6,7
 898 77 898 77 846 29.5 c 128,-1,8
 794 -18 794 -18 718 -18 c 0,9,10
 643 -18 643 -18 590.5 29.5 c 128,-1,11
 538 77 538 77 538 155 c 0,0,1
583 155 m 0,12,13
 583 95 583 95 624 57 c 128,-1,14
 665 19 665 19 718 19 c 0,15,16
 772 19 772 19 812.5 57 c 128,-1,17
 853 95 853 95 853 155 c 256,18,19
 853 215 853 215 814 252.5 c 128,-1,20
 775 290 775 290 718 290 c 0,21,22
 662 290 662 290 622.5 252 c 128,-1,23
 583 214 583 214 583 155 c 0,12,13
80 581 m 256,24,25
 80 658 80 658 131 706 c 128,-1,26
 182 754 182 754 259 754 c 0,27,28
 335 754 335 754 386.5 706 c 128,-1,29
 438 658 438 658 438 581 c 0,30,31
 438 505 438 505 386 457 c 128,-1,32
 334 409 334 409 259 409 c 0,33,34
 183 409 183 409 131.5 456.5 c 128,-1,35
 80 504 80 504 80 581 c 256,24,25
123 581 m 0,36,37
 123 521 123 521 164 483.5 c 128,-1,38
 205 446 205 446 259 446 c 256,39,40
 313 446 313 446 353 483.5 c 128,-1,41
 393 521 393 521 393 581 c 256,42,43
 393 641 393 641 354 679 c 128,-1,44
 315 717 315 717 259 717 c 0,45,46
 204 717 204 717 163.5 678.5 c 128,-1,47
 123 640 123 640 123 581 c 0,36,37
197 -3 m 1,48,-1
 731 738 l 1,49,-1
 781 738 l 1,50,-1
 246 -3 l 1,51,-1
 197 -3 l 1,48,-1
EndSplineSet
EndChar

StartChar: ampersand
Encoding: 38 38 9
Width: 645
GlyphClass: 2
Flags: W
LayerCount: 2
Fore
SplineSet
121 182 m 0,0,1
 121 112 121 112 169.5 66 c 128,-1,2
 218 20 218 20 292 20 c 0,3,4
 353 20 353 20 403.5 52.5 c 128,-1,5
 454 85 454 85 486 133 c 1,6,-1
 280 400 l 1,7,8
 121 308 121 308 121 182 c 0,0,1
74 181 m 0,9,10
 74 333 74 333 254 435 c 1,11,12
 225 475 225 475 213 494.5 c 128,-1,13
 201 514 201 514 187.5 545 c 128,-1,14
 174 576 174 576 174 601 c 0,15,16
 174 662 174 662 219.5 703.5 c 128,-1,17
 265 745 265 745 345 745 c 0,18,19
 410 745 410 745 457 711 c 128,-1,20
 504 677 504 677 528 628 c 1,21,-1
 489 612 l 1,22,23
 471 648 471 648 432 676.5 c 128,-1,24
 393 705 393 705 347 705 c 0,25,26
 288 705 288 705 255 674 c 128,-1,27
 222 643 222 643 222 600 c 0,28,29
 222 580 222 580 236 550 c 128,-1,30
 250 520 250 520 285.5 469 c 128,-1,31
 321 418 321 418 344.5 386.5 c 128,-1,32
 368 355 368 355 428 278 c 128,-1,33
 488 201 488 201 511 172 c 1,34,35
 547 241 547 241 560 335 c 1,36,-1
 605 328 l 1,37,38
 590 221 590 221 541 133 c 1,39,-1
 644 0 l 1,40,-1
 589 0 l 1,41,-1
 514 96 l 1,42,43
 431 -19 431 -19 291 -19 c 0,44,45
 191 -19 191 -19 132.5 38.5 c 128,-1,46
 74 96 74 96 74 181 c 0,9,10
EndSplineSet
EndChar

StartChar: quotesingle
Encoding: 39 39 10
Width: 276
GlyphClass: 2
Flags: W
LayerCount: 2
Fore
SplineSet
73 553 m 1,0,-1
 160 832 l 1,1,-1
 234 832 l 1,2,-1
 114 553 l 1,3,-1
 73 553 l 1,0,-1
EndSplineSet
EndChar

StartChar: parenleft
Encoding: 40 40 11
Width: 463
GlyphClass: 2
Flags: W
LayerCount: 2
Fore
SplineSet
172 351 m 0,0,1
 172 646 172 646 346 858 c 1,2,-1
 379 840 l 1,3,4
 346 793 346 793 324 755.5 c 128,-1,5
 302 718 302 718 275 656 c 128,-1,6
 248 594 248 594 234 517 c 128,-1,7
 220 440 220 440 220 351 c 0,8,9
 220 275 220 275 232.5 205 c 128,-1,10
 245 135 245 135 258.5 90.5 c 128,-1,11
 272 46 272 46 300 -7.5 c 128,-1,12
 328 -61 328 -61 339.5 -79 c 128,-1,13
 351 -97 351 -97 379 -138 c 1,14,-1
 346 -156 l 1,15,16
 172 62 172 62 172 351 c 0,0,1
EndSplineSet
Substitution2: "'sups' Superscript lookup 5 subtable" uni207D
Substitution2: "'aalt' Access All Alternates lookup 0 subtable" uni207D
EndChar

StartChar: parenright
Encoding: 41 41 12
Width: 463
GlyphClass: 2
Flags: W
LayerCount: 2
Fore
SplineSet
85 -138 m 1,0,1
 118 -90 118 -90 139 -53.5 c 128,-1,2
 160 -17 160 -17 187.5 45 c 128,-1,3
 215 107 215 107 229.5 184.5 c 128,-1,4
 244 262 244 262 244 351 c 0,5,6
 244 439 244 439 230 515 c 128,-1,7
 216 591 216 591 190 652.5 c 128,-1,8
 164 714 164 714 141 753 c 128,-1,9
 118 792 118 792 85 840 c 1,10,-1
 118 858 l 1,11,12
 291 648 291 648 291 351 c 0,13,14
 291 60 291 60 118 -156 c 1,15,-1
 85 -138 l 1,0,1
EndSplineSet
Substitution2: "'sups' Superscript lookup 5 subtable" uni207E
Substitution2: "'aalt' Access All Alternates lookup 0 subtable" uni207E
EndChar

StartChar: asterisk
Encoding: 42 42 13
Width: 562
GlyphClass: 2
Flags: W
LayerCount: 2
Fore
SplineSet
36 427 m 1,0,-1
 53 469 l 1,1,-1
 263 389 l 1,2,-1
 256 597 l 1,3,-1
 306 597 l 1,4,-1
 300 389 l 1,5,-1
 510 469 l 1,6,-1
 527 427 l 1,7,-1
 312 353 l 1,8,-1
 473 171 l 1,9,-1
 435 143 l 1,10,-1
 281 329 l 1,11,-1
 126 143 l 1,12,-1
 90 171 l 1,13,-1
 251 352 l 1,14,-1
 36 427 l 1,0,-1
EndSplineSet
EndChar

StartChar: plus
Encoding: 43 43 14
Width: 562
GlyphClass: 2
Flags: W
LayerCount: 2
Fore
SplineSet
35 343 m 1,0,-1
 35 383 l 1,1,-1
 259 383 l 1,2,-1
 259 600 l 1,3,-1
 304 600 l 1,4,-1
 304 383 l 1,5,-1
 527 383 l 1,6,-1
 527 343 l 1,7,-1
 304 343 l 1,8,-1
 304 116 l 1,9,-1
 259 116 l 1,10,-1
 259 343 l 1,11,-1
 35 343 l 1,0,-1
EndSplineSet
Substitution2: "'sups' Superscript lookup 5 subtable" uni207A
Substitution2: "'aalt' Access All Alternates lookup 0 subtable" uni207A
EndChar

StartChar: comma
Encoding: 44 44 15
Width: 275
GlyphClass: 2
Flags: W
LayerCount: 2
Fore
SplineSet
27 -183 m 1,0,-1
 114 96 l 1,1,-1
 188 96 l 1,2,-1
 67 -183 l 1,3,-1
 27 -183 l 1,0,-1
EndSplineSet
EndChar

StartChar: hyphen
Encoding: 45 45 16
Width: 393
GlyphClass: 2
Flags: W
LayerCount: 2
Fore
SplineSet
38 343 m 1,0,-1
 38 383 l 1,1,-1
 356 383 l 1,2,-1
 356 343 l 1,3,-1
 38 343 l 1,0,-1
EndSplineSet
EndChar

StartChar: period
Encoding: 46 46 17
Width: 275
GlyphClass: 2
Flags: W
LayerCount: 2
Fore
SplineSet
88 0 m 1,0,-1
 88 96 l 1,1,-1
 187 96 l 1,2,-1
 187 0 l 1,3,-1
 88 0 l 1,0,-1
EndSplineSet
EndChar

StartChar: slash
Encoding: 47 47 18
Width: 322
GlyphClass: 2
Flags: W
LayerCount: 2
Fore
SplineSet
-9 -64 m 1,0,-1
 283 790 l 1,1,-1
 331 790 l 1,2,-1
 40 -64 l 1,3,-1
 -9 -64 l 1,0,-1
EndSplineSet
EndChar

StartChar: zero
Encoding: 48 48 19
Width: 550
GlyphClass: 2
Flags: W
LayerCount: 2
Fore
SplineSet
103 368 m 0,0,1
 103 206 103 206 147 113.5 c 128,-1,2
 191 21 191 21 277 21 c 0,3,4
 340 21 340 21 379.5 71.5 c 128,-1,5
 419 122 419 122 434.5 196 c 128,-1,6
 450 270 450 270 450 368 c 0,7,8
 450 531 450 531 406 623 c 128,-1,9
 362 715 362 715 276 715 c 0,10,11
 193 715 193 715 148 624.5 c 128,-1,12
 103 534 103 534 103 368 c 0,0,1
54 368 m 0,13,14
 54 564 54 564 115.5 659 c 128,-1,15
 177 754 177 754 276 754 c 0,16,17
 379 754 379 754 439 656.5 c 128,-1,18
 499 559 499 559 499 368 c 0,19,20
 499 259 499 259 478 175.5 c 128,-1,21
 457 92 457 92 405.5 37 c 128,-1,22
 354 -18 354 -18 277 -18 c 0,23,24
 175 -18 175 -18 114.5 81.5 c 128,-1,25
 54 181 54 181 54 368 c 0,13,14
EndSplineSet
EndChar

StartChar: one
Encoding: 49 49 20
Width: 550
GlyphClass: 2
Flags: W
LayerCount: 2
Fore
SplineSet
112 595 m 1,0,-1
 112 631 l 1,1,-1
 148 631 l 2,2,3
 225 631 225 631 251 650 c 128,-1,4
 277 669 277 669 277 717 c 2,5,-1
 277 746 l 1,6,-1
 318 746 l 1,7,-1
 318 -12 l 1,8,-1
 269 -12 l 1,9,-1
 269 595 l 1,10,-1
 112 595 l 1,0,-1
EndSplineSet
Substitution2: "'subs' Subscript lookup 6 subtable" uni2081
Substitution2: "'sups' Superscript lookup 5 subtable" onesuperior
Substitution2: "'sinf' Scientific Inferiors lookup 4 subtable" uni2081
AlternateSubs2: "'aalt' Access All Alternates lookup 1 subtable" uni2081 onesuperior
EndChar

StartChar: two
Encoding: 50 50 21
Width: 550
GlyphClass: 2
Flags: W
LayerCount: 2
Fore
SplineSet
54 580 m 1,0,1
 77 661 77 661 132 707.5 c 128,-1,2
 187 754 187 754 275 754 c 0,3,4
 366 754 366 754 423.5 701.5 c 128,-1,5
 481 649 481 649 481 556 c 0,6,7
 481 443 481 443 367 336 c 0,8,9
 233 211 233 211 181.5 153 c 128,-1,10
 130 95 130 95 113 40 c 1,11,-1
 481 40 l 1,12,-1
 481 0 l 1,13,-1
 56 0 l 1,14,15
 56 27 56 27 64 54 c 128,-1,16
 72 81 72 81 95 113.5 c 128,-1,17
 118 146 118 146 135 168.5 c 128,-1,18
 152 191 152 191 193 231.5 c 128,-1,19
 234 272 234 272 254 291.5 c 128,-1,20
 274 311 274 311 326 359 c 0,21,22
 433 461 433 461 433 556 c 0,23,24
 433 632 433 632 389.5 673.5 c 128,-1,25
 346 715 346 715 272 715 c 0,26,27
 204 715 204 715 159 675 c 128,-1,28
 114 635 114 635 97 569 c 1,29,-1
 54 580 l 1,0,1
EndSplineSet
Substitution2: "'subs' Subscript lookup 6 subtable" uni2082
Substitution2: "'sups' Superscript lookup 5 subtable" twosuperior
Substitution2: "'sinf' Scientific Inferiors lookup 4 subtable" uni2082
AlternateSubs2: "'aalt' Access All Alternates lookup 1 subtable" uni2082 twosuperior
EndChar

StartChar: three
Encoding: 51 51 22
Width: 550
GlyphClass: 2
Flags: W
LayerCount: 2
Fore
SplineSet
41 111 m 1,0,-1
 82 129 l 1,1,2
 144 21 144 21 261 21 c 0,3,4
 342 21 342 21 395.5 66.5 c 128,-1,5
 449 112 449 112 449 201 c 0,6,7
 449 284 449 284 391 327 c 128,-1,8
 333 370 333 370 252 370 c 0,9,10
 209 370 209 370 199 369 c 1,11,-1
 199 410 l 1,12,13
 208 409 208 409 248 409 c 0,14,15
 323 409 323 409 370.5 451.5 c 128,-1,16
 418 494 418 494 418 567 c 0,17,18
 418 632 418 632 374.5 673.5 c 128,-1,19
 331 715 331 715 261 715 c 0,20,21
 156 715 156 715 102 599 c 1,22,-1
 61 614 l 1,23,24
 120 754 120 754 263 754 c 0,25,26
 357 754 357 754 412 701 c 128,-1,27
 467 648 467 648 467 570 c 0,28,29
 467 502 467 502 429 455.5 c 128,-1,30
 391 409 391 409 338 392 c 1,31,32
 401 379 401 379 449.5 330.5 c 128,-1,33
 498 282 498 282 498 201 c 0,34,35
 498 95 498 95 432 38.5 c 128,-1,36
 366 -18 366 -18 261 -18 c 0,37,38
 112 -18 112 -18 41 111 c 1,0,-1
EndSplineSet
Substitution2: "'subs' Subscript lookup 6 subtable" uni2083
Substitution2: "'sups' Superscript lookup 5 subtable" threesuperior
Substitution2: "'sinf' Scientific Inferiors lookup 4 subtable" uni2083
AlternateSubs2: "'aalt' Access All Alternates lookup 1 subtable" uni2083 threesuperior
EndChar

StartChar: four
Encoding: 52 52 23
Width: 550
GlyphClass: 2
Flags: W
LayerCount: 2
Fore
SplineSet
23 217 m 1,0,-1
 370 747 l 1,1,-1
 418 747 l 1,2,-1
 418 218 l 1,3,-1
 536 218 l 1,4,-1
 536 179 l 1,5,-1
 418 179 l 1,6,-1
 418 -12 l 1,7,-1
 371 -12 l 1,8,-1
 371 179 l 1,9,-1
 23 179 l 1,10,-1
 23 217 l 1,0,-1
70 218 m 1,11,-1
 371 218 l 1,12,-1
 371 560 l 2,13,14
 371 602 371 602 373 680 c 1,15,-1
 370 680 l 1,16,-1
 307 578 l 1,17,-1
 70 218 l 1,11,-1
EndSplineSet
Substitution2: "'subs' Subscript lookup 6 subtable" uni2084
Substitution2: "'sups' Superscript lookup 5 subtable" uni2074
Substitution2: "'sinf' Scientific Inferiors lookup 4 subtable" uni2084
AlternateSubs2: "'aalt' Access All Alternates lookup 1 subtable" uni2084 uni2074
EndChar

StartChar: five
Encoding: 53 53 24
Width: 550
GlyphClass: 2
Flags: W
LayerCount: 2
Fore
SplineSet
50 106 m 1,0,-1
 90 122 l 1,1,2
 115 75 115 75 159 48 c 128,-1,3
 203 21 203 21 254 21 c 0,4,5
 339 21 339 21 387 76.5 c 128,-1,6
 435 132 435 132 435 214 c 0,7,8
 435 302 435 302 385.5 355 c 128,-1,9
 336 408 336 408 255 408 c 0,10,11
 215 408 215 408 172 391 c 128,-1,12
 129 374 129 374 98 344 c 1,13,-1
 70 354 l 1,14,-1
 108 735 l 1,15,-1
 438 735 l 1,16,-1
 438 695 l 1,17,-1
 152 695 l 1,18,-1
 120 403 l 1,19,20
 186 448 186 448 271 448 c 0,21,22
 365 448 365 448 424.5 384.5 c 128,-1,23
 484 321 484 321 484 215 c 0,24,25
 484 117 484 117 423.5 49.5 c 128,-1,26
 363 -18 363 -18 254 -18 c 0,27,28
 116 -18 116 -18 50 106 c 1,0,-1
EndSplineSet
EndChar

StartChar: six
Encoding: 54 54 25
Width: 550
GlyphClass: 2
Flags: W
LayerCount: 2
Fore
SplineSet
109 225 m 0,0,1
 109 140 109 140 157.5 80.5 c 128,-1,2
 206 21 206 21 285 21 c 0,3,4
 361 21 361 21 410 79.5 c 128,-1,5
 459 138 459 138 459 225 c 0,6,7
 459 315 459 315 409.5 373 c 128,-1,8
 360 431 360 431 282 431 c 0,9,10
 208 431 208 431 158.5 371.5 c 128,-1,11
 109 312 109 312 109 225 c 0,0,1
54 323 m 0,12,13
 54 385 54 385 61.5 443.5 c 128,-1,14
 69 502 69 502 88 559.5 c 128,-1,15
 107 617 107 617 135.5 659 c 128,-1,16
 164 701 164 701 209.5 727.5 c 128,-1,17
 255 754 255 754 312 754 c 0,18,19
 432 754 432 754 496 636 c 1,20,-1
 457 620 l 1,21,22
 401 715 401 715 312 715 c 0,23,24
 260 715 260 715 221 687 c 128,-1,25
 182 659 182 659 159.5 611.5 c 128,-1,26
 137 564 137 564 125 518.5 c 128,-1,27
 113 473 113 473 108 421 c 0,28,29
 104 389 104 389 102 326 c 1,30,31
 120 390 120 390 169.5 430 c 128,-1,32
 219 470 219 470 290 470 c 0,33,34
 385 470 385 470 446 399.5 c 128,-1,35
 507 329 507 329 507 225 c 0,36,37
 507 122 507 122 447 52 c 128,-1,38
 387 -18 387 -18 289 -18 c 0,39,40
 189 -18 189 -18 131 45 c 0,41,42
 54 124 54 124 54 323 c 0,12,13
EndSplineSet
EndChar

StartChar: seven
Encoding: 55 55 26
Width: 550
GlyphClass: 2
Flags: W
LayerCount: 2
Fore
SplineSet
37 694 m 1,0,-1
 37 735 l 1,1,-1
 482 735 l 1,2,-1
 482 701 l 1,3,4
 371 516 371 516 304.5 353.5 c 128,-1,5
 238 191 238 191 193 -12 c 1,6,-1
 144 -12 l 1,7,8
 191 201 191 201 257.5 358 c 128,-1,9
 324 515 324 515 427 694 c 1,10,-1
 37 694 l 1,0,-1
EndSplineSet
EndChar

StartChar: eight
Encoding: 56 56 27
Width: 550
GlyphClass: 2
Flags: W
LayerCount: 2
Fore
SplineSet
117 565 m 0,0,1
 117 498 117 498 164.5 456 c 128,-1,2
 212 414 212 414 275 414 c 0,3,4
 341 414 341 414 387.5 457.5 c 128,-1,5
 434 501 434 501 434 565 c 0,6,7
 434 632 434 632 388.5 673.5 c 128,-1,8
 343 715 343 715 275 715 c 0,9,10
 205 715 205 715 161 671.5 c 128,-1,11
 117 628 117 628 117 565 c 0,0,1
44 193 m 0,12,13
 44 274 44 274 88.5 325.5 c 128,-1,14
 133 377 133 377 199 396 c 1,15,16
 143 415 143 415 106 457.5 c 128,-1,17
 69 500 69 500 69 568 c 0,18,19
 69 644 69 644 127 699 c 128,-1,20
 185 754 185 754 275 754 c 0,21,22
 364 754 364 754 423.5 700.5 c 128,-1,23
 483 647 483 647 483 568 c 0,24,25
 483 501 483 501 445 457 c 128,-1,26
 407 413 407 413 355 396 c 1,27,28
 421 377 421 377 465.5 325 c 128,-1,29
 510 273 510 273 510 191 c 0,30,31
 510 100 510 100 443 41 c 128,-1,32
 376 -18 376 -18 275 -18 c 0,33,34
 177 -18 177 -18 110.5 40.5 c 128,-1,35
 44 99 44 99 44 193 c 0,12,13
93 195 m 0,36,37
 93 119 93 119 145 70 c 128,-1,38
 197 21 197 21 275 21 c 0,39,40
 355 21 355 21 408 70.5 c 128,-1,41
 461 120 461 120 461 195 c 0,42,43
 461 273 461 273 406.5 324 c 128,-1,44
 352 375 352 375 275 375 c 0,45,46
 201 375 201 375 147 324 c 128,-1,47
 93 273 93 273 93 195 c 0,36,37
EndSplineSet
EndChar

StartChar: nine
Encoding: 57 57 28
Width: 550
GlyphClass: 2
Flags: W
LayerCount: 2
Fore
SplineSet
91 511 m 0,0,1
 91 419 91 419 143 363 c 128,-1,2
 195 307 195 307 265 307 c 0,3,4
 336 307 336 307 387.5 365.5 c 128,-1,5
 439 424 439 424 439 511 c 0,6,7
 439 597 439 597 390 656 c 128,-1,8
 341 715 341 715 265 715 c 0,9,10
 191 715 191 715 141 657 c 128,-1,11
 91 599 91 599 91 511 c 0,0,1
53 105 m 1,12,-1
 94 121 l 1,13,14
 116 76 116 76 156.5 48.5 c 128,-1,15
 197 21 197 21 247 21 c 0,16,17
 440 21 440 21 445 396 c 1,18,19
 426 345 426 345 377 306 c 128,-1,20
 328 267 328 267 260 267 c 0,21,22
 169 267 169 267 106 333.5 c 128,-1,23
 43 400 43 400 43 511 c 0,24,25
 43 617 43 617 105 685.5 c 128,-1,26
 167 754 167 754 265 754 c 0,27,28
 350 754 350 754 405 702 c 128,-1,29
 460 650 460 650 478 571 c 0,30,31
 490 517 490 517 490 406 c 0,32,33
 490 -18 490 -18 246 -18 c 0,34,35
 177 -18 177 -18 128 18 c 128,-1,36
 79 54 79 54 53 105 c 1,12,-1
EndSplineSet
EndChar

StartChar: colon
Encoding: 58 58 29
Width: 275
GlyphClass: 2
Flags: W
LayerCount: 2
Fore
SplineSet
88 0 m 1,0,-1
 88 96 l 1,1,-1
 187 96 l 1,2,-1
 187 0 l 1,3,-1
 88 0 l 1,0,-1
88 387 m 1,4,-1
 88 483 l 1,5,-1
 187 483 l 1,6,-1
 187 387 l 1,7,-1
 88 387 l 1,4,-1
EndSplineSet
EndChar

StartChar: semicolon
Encoding: 59 59 30
Width: 275
GlyphClass: 2
Flags: W
LayerCount: 2
Fore
SplineSet
27 -183 m 1,0,-1
 114 97 l 1,1,-1
 188 97 l 1,2,-1
 67 -183 l 1,3,-1
 27 -183 l 1,0,-1
86 388 m 1,4,-1
 86 484 l 1,5,-1
 185 484 l 1,6,-1
 185 388 l 1,7,-1
 86 388 l 1,4,-1
EndSplineSet
EndChar

StartChar: less
Encoding: 60 60 31
Width: 562
GlyphClass: 2
Flags: W
LayerCount: 2
Fore
SplineSet
70 333 m 1,0,-1
 70 376 l 1,1,-1
 480 692 l 1,2,-1
 506 658 l 1,3,-1
 115 354 l 1,4,-1
 506 51 l 1,5,-1
 480 16 l 1,6,-1
 70 333 l 1,0,-1
EndSplineSet
EndChar

StartChar: equal
Encoding: 61 61 32
Width: 562
GlyphClass: 2
Flags: W
LayerCount: 2
Fore
SplineSet
54 249 m 1,0,-1
 54 290 l 1,1,-1
 508 290 l 1,2,-1
 508 249 l 1,3,-1
 54 249 l 1,0,-1
54 437 m 1,4,-1
 54 477 l 1,5,-1
 508 477 l 1,6,-1
 508 437 l 1,7,-1
 54 437 l 1,4,-1
EndSplineSet
Substitution2: "'sups' Superscript lookup 5 subtable" uni207C
Substitution2: "'aalt' Access All Alternates lookup 0 subtable" uni207C
EndChar

StartChar: greater
Encoding: 62 62 33
Width: 562
GlyphClass: 2
Flags: W
LayerCount: 2
Fore
SplineSet
82 16 m 1,0,-1
 57 51 l 1,1,-1
 446 354 l 1,2,-1
 57 658 l 1,3,-1
 82 692 l 1,4,-1
 492 376 l 1,5,-1
 492 333 l 1,6,-1
 82 16 l 1,0,-1
EndSplineSet
EndChar

StartChar: question
Encoding: 63 63 34
Width: 546
GlyphClass: 2
Flags: W
LayerCount: 2
Fore
SplineSet
70 607 m 1,0,1
 99 677 99 677 152.5 715.5 c 128,-1,2
 206 754 206 754 272 754 c 0,3,4
 362 754 362 754 414 701 c 128,-1,5
 466 648 466 648 466 561 c 0,6,7
 466 515 466 515 447 478.5 c 128,-1,8
 428 442 428 442 401.5 416 c 128,-1,9
 375 390 375 390 348 364.5 c 128,-1,10
 321 339 321 339 302 302.5 c 128,-1,11
 283 266 283 266 283 220 c 2,12,-1
 283 200 l 1,13,-1
 235 200 l 1,14,-1
 235 222 l 2,15,16
 235 272 235 272 254 312 c 128,-1,17
 273 352 273 352 299.5 378.5 c 128,-1,18
 326 405 326 405 353 429.5 c 128,-1,19
 380 454 380 454 399 487 c 128,-1,20
 418 520 418 520 418 561 c 0,21,22
 418 629 418 629 379.5 671.5 c 128,-1,23
 341 714 341 714 273 714 c 0,24,25
 167 714 167 714 111 591 c 1,26,-1
 70 607 l 1,0,1
210 -9 m 1,27,-1
 210 86 l 1,28,-1
 309 86 l 1,29,-1
 309 -9 l 1,30,-1
 210 -9 l 1,27,-1
EndSplineSet
EndChar

StartChar: at
Encoding: 64 64 35
Width: 962
GlyphClass: 2
Flags: W
LayerCount: 2
Fore
SplineSet
67 344 m 0,0,1
 67 527 67 527 188 642.5 c 128,-1,2
 309 758 309 758 505 758 c 0,3,4
 681 758 681 758 789 657.5 c 128,-1,5
 897 557 897 557 897 396 c 0,6,7
 897 257 897 257 844.5 189 c 128,-1,8
 792 121 792 121 719 121 c 0,9,10
 673 121 673 121 640.5 155.5 c 128,-1,11
 608 190 608 190 607 243 c 1,12,-1
 606 243 l 1,13,14
 588 197 588 197 544 159.5 c 128,-1,15
 500 122 500 122 439 122 c 0,16,17
 371 122 371 122 325.5 173.5 c 128,-1,18
 280 225 280 225 280 311 c 0,19,20
 280 424 280 424 341.5 491 c 128,-1,21
 403 558 403 558 485 558 c 0,22,23
 521 558 521 558 550 543 c 128,-1,24
 579 528 579 528 590.5 514 c 128,-1,25
 602 500 602 500 611 484 c 1,26,-1
 616 548 l 1,27,-1
 653 548 l 1,28,-1
 641 278 l 2,29,30
 641 274 641 274 641 269 c 0,31,32
 641 219 641 219 663 189 c 128,-1,33
 685 159 685 159 723 159 c 0,34,35
 783 159 783 159 818.5 220.5 c 128,-1,36
 854 282 854 282 854 391 c 0,37,38
 854 537 854 537 760.5 629.5 c 128,-1,39
 667 722 667 722 504 722 c 0,40,41
 333 722 333 722 221 617.5 c 128,-1,42
 109 513 109 513 109 344 c 0,43,44
 109 172 109 172 215.5 70.5 c 128,-1,45
 322 -31 322 -31 490 -31 c 0,46,47
 609 -31 609 -31 713 0 c 1,48,-1
 722 -34 l 1,49,50
 614 -67 614 -67 490 -67 c 0,51,52
 300 -67 300 -67 183.5 46.5 c 128,-1,53
 67 160 67 160 67 344 c 0,0,1
324 311 m 0,54,55
 324 245 324 245 357.5 203 c 128,-1,56
 391 161 391 161 442 161 c 0,57,58
 467 161 467 161 492.5 171.5 c 128,-1,59
 518 182 518 182 544 206.5 c 128,-1,60
 570 231 570 231 586.5 280 c 128,-1,61
 603 329 603 329 603 396 c 0,62,63
 603 444 603 444 574 482.5 c 128,-1,64
 545 521 545 521 485 521 c 0,65,66
 424 521 424 521 374 465 c 128,-1,67
 324 409 324 409 324 311 c 0,54,55
EndSplineSet
EndChar

StartChar: A
Encoding: 65 65 36
Width: 626
GlyphClass: 2
Flags: W
LayerCount: 2
Fore
SplineSet
155 271 m 1,0,-1
 472 271 l 1,1,-1
 359 573 l 2,2,3
 326 662 326 662 316 691 c 1,4,-1
 312 691 l 1,5,6
 308 680 308 680 269 573 c 2,7,-1
 155 271 l 1,0,-1
1 0 m 1,8,-1
 283 735 l 1,9,-1
 344 735 l 1,10,-1
 627 0 l 1,11,-1
 573 0 l 1,12,-1
 486 232 l 1,13,-1
 141 232 l 1,14,-1
 54 0 l 1,15,-1
 1 0 l 1,8,-1
EndSplineSet
Substitution2: "Single Substitution lookup 12 subtable" ordfeminine
EndChar

StartChar: B
Encoding: 66 66 37
Width: 678
GlyphClass: 2
Flags: W
LayerCount: 2
Fore
SplineSet
119 0 m 1,0,-1
 119 735 l 1,1,-1
 381 735 l 2,2,3
 483 735 483 735 537.5 684 c 128,-1,4
 592 633 592 633 592 550 c 0,5,6
 592 485 592 485 557.5 443.5 c 128,-1,7
 523 402 523 402 471 384 c 1,8,9
 534 369 534 369 577.5 318.5 c 128,-1,10
 621 268 621 268 621 200 c 0,11,12
 621 113 621 113 564 56.5 c 128,-1,13
 507 0 507 0 413 0 c 2,14,-1
 119 0 l 1,0,-1
166 41 m 1,15,-1
 401 41 l 2,16,17
 476 41 476 41 524.5 85.5 c 128,-1,18
 573 130 573 130 573 199 c 0,19,20
 573 267 573 267 523 313.5 c 128,-1,21
 473 360 473 360 396 360 c 2,22,-1
 166 360 l 1,23,-1
 166 41 l 1,15,-1
166 400 m 1,24,-1
 370 400 l 2,25,26
 444 400 444 400 494 437.5 c 128,-1,27
 544 475 544 475 544 548 c 0,28,29
 544 612 544 612 502.5 653 c 128,-1,30
 461 694 461 694 375 694 c 2,31,-1
 166 694 l 1,32,-1
 166 400 l 1,24,-1
EndSplineSet
EndChar

StartChar: C
Encoding: 67 67 38
Width: 639
GlyphClass: 2
Flags: W
LayerCount: 2
Fore
SplineSet
60 368 m 0,0,1
 60 549 60 549 143.5 651.5 c 128,-1,2
 227 754 227 754 363 754 c 0,3,4
 446 754 446 754 502.5 709 c 128,-1,5
 559 664 559 664 584 605 c 1,6,-1
 543 588 l 1,7,8
 484 713 484 713 362 713 c 0,9,10
 247 713 247 713 178 619 c 128,-1,11
 109 525 109 525 109 368 c 0,12,13
 109 208 109 208 179.5 115 c 128,-1,14
 250 22 250 22 362 22 c 0,15,16
 433 22 433 22 484 60 c 128,-1,17
 535 98 535 98 562 155 c 1,18,-1
 605 141 l 1,19,20
 528 -18 528 -18 363 -18 c 0,21,22
 227 -18 227 -18 143.5 85 c 128,-1,23
 60 188 60 188 60 368 c 0,0,1
EndSplineSet
EndChar

StartChar: D
Encoding: 68 68 39
Width: 689
GlyphClass: 2
Flags: W
LayerCount: 2
Fore
SplineSet
119 0 m 1,0,-1
 119 735 l 1,1,-1
 306 735 l 2,2,3
 461 735 461 735 550 643 c 128,-1,4
 639 551 639 551 639 368 c 0,5,6
 639 190 639 190 551 95 c 128,-1,7
 463 0 463 0 306 0 c 2,8,-1
 119 0 l 1,0,-1
166 41 m 1,9,-1
 293 41 l 2,10,11
 431 41 431 41 510.5 119 c 128,-1,12
 590 197 590 197 590 368 c 0,13,14
 590 694 590 694 295 694 c 2,15,-1
 166 694 l 1,16,-1
 166 41 l 1,9,-1
EndSplineSet
EndChar

StartChar: E
Encoding: 69 69 40
Width: 617
GlyphClass: 2
Flags: W
LayerCount: 2
Fore
SplineSet
119 0 m 1,0,-1
 119 735 l 1,1,-1
 564 735 l 1,2,-1
 564 694 l 1,3,-1
 166 694 l 1,4,-1
 166 402 l 1,5,-1
 526 402 l 1,6,-1
 526 362 l 1,7,-1
 166 362 l 1,8,-1
 166 41 l 1,9,-1
 576 41 l 1,10,-1
 576 0 l 1,11,-1
 119 0 l 1,0,-1
EndSplineSet
EndChar

StartChar: F
Encoding: 70 70 41
Width: 582
GlyphClass: 2
Flags: W
LayerCount: 2
Fore
SplineSet
119 0 m 1,0,-1
 119 735 l 1,1,-1
 547 735 l 1,2,-1
 547 694 l 1,3,-1
 166 694 l 1,4,-1
 166 391 l 1,5,-1
 509 391 l 1,6,-1
 509 352 l 1,7,-1
 166 352 l 1,8,-1
 166 0 l 1,9,-1
 119 0 l 1,0,-1
EndSplineSet
EndChar

StartChar: G
Encoding: 71 71 42
Width: 716
GlyphClass: 2
Flags: W
LayerCount: 2
Fore
SplineSet
60 368 m 0,0,1
 60 541 60 541 142 647.5 c 128,-1,2
 224 754 224 754 371 754 c 0,3,4
 458 754 458 754 516 711 c 128,-1,5
 574 668 574 668 601 611 c 1,6,-1
 562 595 l 1,7,8
 496 713 496 713 371 713 c 256,9,10
 246 713 246 713 177.5 618 c 128,-1,11
 109 523 109 523 109 368 c 0,12,13
 109 209 109 209 179 115.5 c 128,-1,14
 249 22 249 22 369 22 c 0,15,16
 425 22 425 22 468.5 43.5 c 128,-1,17
 512 65 512 65 537 101.5 c 128,-1,18
 562 138 562 138 574.5 180.5 c 128,-1,19
 587 223 587 223 587 270 c 2,20,-1
 587 344 l 1,21,-1
 360 344 l 1,22,-1
 360 384 l 1,23,-1
 634 384 l 1,24,-1
 634 0 l 1,25,-1
 596 0 l 1,26,-1
 594 137 l 1,27,28
 572 69 572 69 516.5 25.5 c 128,-1,29
 461 -18 461 -18 368 -18 c 0,30,31
 225 -18 225 -18 142.5 86.5 c 128,-1,32
 60 191 60 191 60 368 c 0,0,1
EndSplineSet
EndChar

StartChar: H
Encoding: 72 72 43
Width: 742
GlyphClass: 2
Flags: W
LayerCount: 2
Fore
SplineSet
119 0 m 1,0,-1
 119 735 l 1,1,-1
 166 735 l 1,2,-1
 166 400 l 1,3,-1
 576 400 l 1,4,-1
 576 735 l 1,5,-1
 624 735 l 1,6,-1
 624 0 l 1,7,-1
 576 0 l 1,8,-1
 576 360 l 1,9,-1
 166 360 l 1,10,-1
 166 0 l 1,11,-1
 119 0 l 1,0,-1
EndSplineSet
EndChar

StartChar: I
Encoding: 73 73 44
Width: 284
GlyphClass: 2
Flags: W
LayerCount: 2
Fore
SplineSet
119 0 m 1,0,-1
 119 735 l 1,1,-1
 166 735 l 1,2,-1
 166 0 l 1,3,-1
 119 0 l 1,0,-1
EndSplineSet
EndChar

StartChar: J
Encoding: 74 74 45
Width: 491
GlyphClass: 2
Flags: W
LayerCount: 2
Fore
SplineSet
19 102 m 1,0,-1
 63 118 l 1,1,2
 82 72 82 72 115 47 c 128,-1,3
 148 22 148 22 188 22 c 0,4,5
 189 22 189 22 191 22 c 0,6,7
 326 25 326 25 326 209 c 2,8,-1
 326 735 l 1,9,-1
 374 735 l 1,10,-1
 374 198 l 2,11,12
 374 91 374 91 327 36.5 c 128,-1,13
 280 -18 280 -18 193 -18 c 0,14,15
 68 -18 68 -18 19 102 c 1,0,-1
EndSplineSet
EndChar

StartChar: K
Encoding: 75 75 46
Width: 634
GlyphClass: 2
Flags: W
LayerCount: 2
Fore
SplineSet
119 0 m 1,0,-1
 119 735 l 1,1,-1
 166 735 l 1,2,-1
 166 303 l 1,3,-1
 167 303 l 1,4,-1
 543 735 l 1,5,-1
 607 735 l 1,6,-1
 330 420 l 1,7,-1
 628 0 l 1,8,-1
 567 0 l 1,9,-1
 299 384 l 1,10,-1
 166 233 l 1,11,-1
 166 0 l 1,12,-1
 119 0 l 1,0,-1
EndSplineSet
EndChar

StartChar: L
Encoding: 76 76 47
Width: 538
GlyphClass: 2
Flags: W
LayerCount: 2
Fore
SplineSet
119 0 m 1,0,-1
 119 735 l 1,1,-1
 166 735 l 1,2,-1
 166 41 l 1,3,-1
 528 41 l 1,4,-1
 528 0 l 1,5,-1
 119 0 l 1,0,-1
EndSplineSet
EndChar

StartChar: M
Encoding: 77 77 48
Width: 893
GlyphClass: 2
Flags: W
LayerCount: 2
Fore
SplineSet
119 0 m 1,0,-1
 119 735 l 1,1,-1
 181 735 l 1,2,-1
 376 291 l 2,3,4
 389 259 389 259 411.5 203 c 128,-1,5
 434 147 434 147 445 121 c 1,6,-1
 449 121 l 1,7,8
 458 144 458 144 481.5 201 c 128,-1,9
 505 258 505 258 518 291 c 2,10,-1
 712 735 l 1,11,-1
 776 735 l 1,12,-1
 776 0 l 1,13,-1
 728 0 l 1,14,-1
 728 478 l 2,15,16
 728 543 728 543 734 674 c 1,17,-1
 731 674 l 1,18,-1
 469 63 l 1,19,-1
 425 63 l 1,20,-1
 162 675 l 1,21,-1
 160 675 l 1,22,23
 166 565 166 565 166 478 c 2,24,-1
 166 0 l 1,25,-1
 119 0 l 1,0,-1
EndSplineSet
EndChar

StartChar: N
Encoding: 78 78 49
Width: 749
GlyphClass: 2
Flags: W
LayerCount: 2
Fore
SplineSet
119 0 m 1,0,-1
 119 735 l 1,1,-1
 175 735 l 1,2,-1
 500 209 l 1,3,-1
 587 66 l 1,4,-1
 591 66 l 1,5,6
 584 150 584 150 584 253 c 2,7,-1
 584 735 l 1,8,-1
 632 735 l 1,9,-1
 632 0 l 1,10,-1
 575 0 l 1,11,-1
 163 669 l 1,12,-1
 160 669 l 1,13,14
 166 574 166 574 166 470 c 2,15,-1
 166 0 l 1,16,-1
 119 0 l 1,0,-1
EndSplineSet
EndChar

StartChar: O
Encoding: 79 79 50
Width: 705
GlyphClass: 2
Flags: W
LayerCount: 2
Fore
SplineSet
60 368 m 256,0,1
 60 542 60 542 139.5 648 c 128,-1,2
 219 754 219 754 354 754 c 256,3,4
 489 754 489 754 567 648 c 128,-1,5
 645 542 645 542 645 367 c 0,6,7
 645 193 645 193 566.5 87.5 c 128,-1,8
 488 -18 488 -18 354 -18 c 0,9,10
 218 -18 218 -18 139 88 c 128,-1,11
 60 194 60 194 60 368 c 256,0,1
109 368 m 0,12,13
 109 213 109 213 174 117.5 c 128,-1,14
 239 22 239 22 354 22 c 0,15,16
 467 22 467 22 532 116 c 128,-1,17
 597 210 597 210 597 367 c 0,18,19
 597 525 597 525 532 619 c 128,-1,20
 467 713 467 713 354 713 c 0,21,22
 242 713 242 713 175.5 619.5 c 128,-1,23
 109 526 109 526 109 368 c 0,12,13
EndSplineSet
Substitution2: "Single Substitution lookup 12 subtable" ordmasculine
EndChar

StartChar: P
Encoding: 80 80 51
Width: 661
GlyphClass: 2
Flags: W
LayerCount: 2
Fore
SplineSet
119 0 m 1,0,-1
 119 735 l 1,1,-1
 391 735 l 2,2,3
 492 735 492 735 553 678.5 c 128,-1,4
 614 622 614 622 614 527 c 0,5,6
 614 430 614 430 551 374 c 128,-1,7
 488 318 488 318 390 318 c 2,8,-1
 166 318 l 1,9,-1
 166 0 l 1,10,-1
 119 0 l 1,0,-1
166 357 m 1,11,-1
 380 357 l 2,12,13
 466 357 466 357 515.5 400.5 c 128,-1,14
 565 444 565 444 565 527 c 0,15,16
 565 608 565 608 516 651 c 128,-1,17
 467 694 467 694 378 694 c 2,18,-1
 166 694 l 1,19,-1
 166 357 l 1,11,-1
EndSplineSet
EndChar

StartChar: Q
Encoding: 81 81 52
Width: 704
GlyphClass: 2
Flags: W
LayerCount: 2
Fore
SplineSet
60 367 m 0,0,1
 60 542 60 542 139 648 c 128,-1,2
 218 754 218 754 354 754 c 0,3,4
 488 754 488 754 566.5 647.5 c 128,-1,5
 645 541 645 541 645 367 c 256,6,7
 645 193 645 193 567 88 c 0,8,9
 561 79 561 79 554 71 c 1,10,-1
 644 -23 l 1,11,-1
 612 -51 l 1,12,-1
 524 41 l 1,13,14
 455 -18 455 -18 354 -18 c 0,15,16
 218 -18 218 -18 139 87.5 c 128,-1,17
 60 193 60 193 60 367 c 0,0,1
349 222 m 1,18,-1
 381 252 l 1,19,-1
 523 104 l 1,20,21
 527 110 527 110 532 116 c 0,22,23
 597 210 597 210 597 367 c 0,24,25
 597 528 597 528 531 620.5 c 128,-1,26
 465 713 465 713 354 713 c 0,27,28
 242 713 242 713 175.5 619.5 c 128,-1,29
 109 526 109 526 109 367 c 0,30,31
 109 211 109 211 175.5 116.5 c 128,-1,32
 242 22 242 22 354 22 c 0,33,34
 436 22 436 22 493 72 c 1,35,-1
 349 222 l 1,18,-1
EndSplineSet
EndChar

StartChar: R
Encoding: 82 82 53
Width: 668
GlyphClass: 2
Flags: W
LayerCount: 2
Fore
SplineSet
166 373 m 1,0,-1
 392 373 l 2,1,2
 475 373 475 373 521 417.5 c 128,-1,3
 567 462 567 462 567 535 c 0,4,5
 567 605 567 605 520.5 649.5 c 128,-1,6
 474 694 474 694 383 694 c 2,7,-1
 166 694 l 1,8,-1
 166 373 l 1,0,-1
119 0 m 1,9,-1
 119 735 l 1,10,-1
 397 735 l 2,11,12
 502 735 502 735 558.5 678.5 c 128,-1,13
 615 622 615 622 615 537 c 0,14,15
 615 454 615 454 570.5 407 c 128,-1,16
 526 360 526 360 474 349 c 1,17,18
 518 329 518 329 542 293.5 c 128,-1,19
 566 258 566 258 579 201 c 0,20,21
 581 192 581 192 586.5 168.5 c 128,-1,22
 592 145 592 145 594 138.5 c 128,-1,23
 596 132 596 132 601 114 c 128,-1,24
 606 96 606 96 608.5 89.5 c 128,-1,25
 611 83 611 83 615.5 68.5 c 128,-1,26
 620 54 620 54 624 45.5 c 128,-1,27
 628 37 628 37 634 24.5 c 128,-1,28
 640 12 640 12 647 0 c 1,29,-1
 593 0 l 1,30,31
 578 29 578 29 566.5 62.5 c 128,-1,32
 555 96 555 96 549 117.5 c 128,-1,33
 543 139 543 139 529 198 c 0,34,35
 522 224 522 224 513.5 245 c 128,-1,36
 505 266 505 266 489 287.5 c 128,-1,37
 473 309 473 309 447 320.5 c 128,-1,38
 421 332 421 332 386 332 c 2,39,-1
 166 332 l 1,40,-1
 166 0 l 1,41,-1
 119 0 l 1,9,-1
EndSplineSet
EndChar

StartChar: S
Encoding: 83 83 54
Width: 614
GlyphClass: 2
Flags: W
LayerCount: 2
Fore
SplineSet
53 122 m 1,0,-1
 98 140 l 1,1,2
 130 87 130 87 186.5 54.5 c 128,-1,3
 243 22 243 22 314 22 c 0,4,5
 402 22 402 22 457.5 65.5 c 128,-1,6
 513 109 513 109 513 186 c 0,7,8
 513 222 513 222 497.5 250 c 128,-1,9
 482 278 482 278 448 299 c 128,-1,10
 414 320 414 320 387 330.5 c 128,-1,11
 360 341 360 341 310 359 c 0,12,13
 264 374 264 374 239.5 382.5 c 128,-1,14
 215 391 215 391 178 410.5 c 128,-1,15
 141 430 141 430 121.5 449.5 c 128,-1,16
 102 469 102 469 87 500 c 128,-1,17
 72 531 72 531 72 569 c 0,18,19
 72 654 72 654 136 704 c 128,-1,20
 200 754 200 754 310 754 c 0,21,22
 388 754 388 754 448.5 718 c 128,-1,23
 509 682 509 682 537 630 c 1,24,-1
 496 614 l 1,25,26
 432 713 432 713 307 713 c 0,27,28
 219 713 219 713 169.5 673.5 c 128,-1,29
 120 634 120 634 120 569 c 0,30,31
 120 539 120 539 133.5 514 c 128,-1,32
 147 489 147 489 164 473 c 128,-1,33
 181 457 181 457 214.5 441 c 128,-1,34
 248 425 248 425 271 416.5 c 128,-1,35
 294 408 294 408 335 395 c 0,36,37
 378 380 378 380 403.5 370.5 c 128,-1,38
 429 361 429 361 462.5 342.5 c 128,-1,39
 496 324 496 324 515 304 c 128,-1,40
 534 284 534 284 548 254 c 128,-1,41
 562 224 562 224 562 188 c 0,42,43
 562 91 562 91 495.5 36.5 c 128,-1,44
 429 -18 429 -18 312 -18 c 0,45,46
 138 -18 138 -18 53 122 c 1,0,-1
EndSplineSet
EndChar

StartChar: T
Encoding: 84 84 55
Width: 546
GlyphClass: 2
Flags: W
LayerCount: 2
Fore
SplineSet
18 694 m 1,0,-1
 18 735 l 1,1,-1
 530 735 l 1,2,-1
 530 694 l 1,3,-1
 299 694 l 1,4,-1
 299 0 l 1,5,-1
 251 0 l 1,6,-1
 251 694 l 1,7,-1
 18 694 l 1,0,-1
EndSplineSet
EndChar

StartChar: U
Encoding: 85 85 56
Width: 741
GlyphClass: 2
Flags: W
LayerCount: 2
Fore
SplineSet
118 256 m 2,0,-1
 118 735 l 1,1,-1
 165 735 l 1,2,-1
 165 260 l 2,3,4
 165 144 165 144 220 83 c 128,-1,5
 275 22 275 22 370 22 c 0,6,7
 467 22 467 22 522 84 c 128,-1,8
 577 146 577 146 577 260 c 2,9,-1
 577 735 l 1,10,-1
 625 735 l 1,11,-1
 625 256 l 2,12,13
 625 125 625 125 559.5 53.5 c 128,-1,14
 494 -18 494 -18 370 -18 c 0,15,16
 250 -18 250 -18 184 52.5 c 128,-1,17
 118 123 118 123 118 256 c 2,0,-1
EndSplineSet
EndChar

StartChar: V
Encoding: 86 86 57
Width: 568
GlyphClass: 2
Flags: W
LayerCount: 2
Fore
SplineSet
-3 735 m 1,0,-1
 51 735 l 1,1,-1
 231 200 l 2,2,3
 239 177 239 177 255.5 127 c 128,-1,4
 272 77 272 77 280 50 c 1,5,-1
 283 50 l 1,6,7
 293 78 293 78 310 127.5 c 128,-1,8
 327 177 327 177 334 200 c 2,9,-1
 519 735 l 1,10,-1
 572 735 l 1,11,-1
 311 0 l 1,12,-1
 254 0 l 1,13,-1
 -3 735 l 1,0,-1
EndSplineSet
EndChar

StartChar: W
Encoding: 87 87 58
Width: 844
GlyphClass: 2
Flags: W
LayerCount: 2
Fore
SplineSet
11 735 m 1,0,-1
 64 735 l 1,1,-1
 189 201 l 2,2,3
 199 154 199 154 219 54 c 1,4,-1
 223 54 l 1,5,6
 229 80 229 80 240.5 128.5 c 128,-1,7
 252 177 252 177 258 201 c 2,8,-1
 395 735 l 1,9,-1
 450 735 l 1,10,-1
 587 201 l 2,11,12
 593 175 593 175 605 125.5 c 128,-1,13
 617 76 617 76 622 54 c 1,14,-1
 625 54 l 1,15,16
 643 146 643 146 656 201 c 2,17,-1
 781 735 l 1,18,-1
 834 735 l 1,19,-1
 653 0 l 1,20,-1
 595 0 l 1,21,-1
 460 525 l 2,22,23
 436 617 436 617 424 678 c 1,24,-1
 421 678 l 1,25,26
 410 624 410 624 384 525 c 2,27,-1
 250 0 l 1,28,-1
 193 0 l 1,29,-1
 11 735 l 1,0,-1
EndSplineSet
EndChar

StartChar: X
Encoding: 88 88 59
Width: 540
GlyphClass: 2
Flags: W
LayerCount: 2
Fore
SplineSet
-4 0 m 1,0,-1
 239 378 l 1,1,-1
 9 735 l 1,2,-1
 68 735 l 1,3,-1
 202 522 l 2,4,5
 207 514 207 514 268 414 c 1,6,-1
 272 414 l 1,7,8
 321 494 321 494 339 522 c 2,9,-1
 473 735 l 1,10,-1
 533 735 l 1,11,-1
 302 378 l 1,12,-1
 545 0 l 1,13,-1
 487 0 l 1,14,-1
 343 227 l 2,15,16
 329 249 329 249 303 290.5 c 128,-1,17
 277 332 277 332 272 340 c 1,18,-1
 268 340 l 1,19,20
 254 317 254 317 199 227 c 2,21,-1
 55 0 l 1,22,-1
 -4 0 l 1,0,-1
EndSplineSet
EndChar

StartChar: Y
Encoding: 89 89 60
Width: 568
GlyphClass: 2
Flags: W
LayerCount: 2
Fore
SplineSet
-3 735 m 1,0,-1
 55 735 l 1,1,-1
 216 464 l 2,2,3
 225 449 225 449 248.5 408 c 128,-1,4
 272 367 272 367 283 348 c 1,5,-1
 285 348 l 1,6,7
 312 392 312 392 354 464 c 2,8,-1
 514 735 l 1,9,-1
 572 735 l 1,10,-1
 309 303 l 1,11,-1
 309 0 l 1,12,-1
 262 0 l 1,13,-1
 262 303 l 1,14,-1
 -3 735 l 1,0,-1
EndSplineSet
EndChar

StartChar: Z
Encoding: 90 90 61
Width: 620
GlyphClass: 2
Flags: W
LayerCount: 2
Fore
SplineSet
58 37 m 1,0,-1
 495 694 l 1,1,-1
 91 694 l 1,2,-1
 91 735 l 1,3,-1
 554 735 l 1,4,-1
 554 698 l 1,5,-1
 114 41 l 1,6,-1
 564 41 l 1,7,-1
 564 0 l 1,8,-1
 58 0 l 1,9,-1
 58 37 l 1,0,-1
EndSplineSet
EndChar

StartChar: bracketleft
Encoding: 91 91 62
Width: 464
GlyphClass: 2
Flags: W
LayerCount: 2
Fore
SplineSet
174 -134 m 1,0,-1
 174 837 l 1,1,-1
 356 837 l 1,2,-1
 356 798 l 1,3,-1
 221 798 l 1,4,-1
 221 -96 l 1,5,-1
 356 -96 l 1,6,-1
 356 -134 l 1,7,-1
 174 -134 l 1,0,-1
EndSplineSet
EndChar

StartChar: backslash
Encoding: 92 92 63
Width: 304
GlyphClass: 2
Flags: W
LayerCount: 2
Fore
SplineSet
-9 790 m 1,0,-1
 38 790 l 1,1,-1
 314 -64 l 1,2,-1
 267 -64 l 1,3,-1
 -9 790 l 1,0,-1
EndSplineSet
EndChar

StartChar: bracketright
Encoding: 93 93 64
Width: 464
GlyphClass: 2
Flags: W
LayerCount: 2
Fore
SplineSet
108 -96 m 1,0,-1
 243 -96 l 1,1,-1
 243 798 l 1,2,-1
 108 798 l 1,3,-1
 108 837 l 1,4,-1
 290 837 l 1,5,-1
 290 -134 l 1,6,-1
 108 -134 l 1,7,-1
 108 -96 l 1,0,-1
EndSplineSet
EndChar

StartChar: asciicircum
Encoding: 94 94 65
Width: 491
GlyphClass: 2
Flags: W
LayerCount: 2
Fore
SplineSet
30 495 m 1,0,-1
 223 816 l 1,1,-1
 269 816 l 1,2,-1
 463 495 l 1,3,-1
 413 495 l 1,4,-1
 247 776 l 1,5,-1
 246 776 l 1,6,-1
 210 718 l 1,7,-1
 80 495 l 1,8,-1
 30 495 l 1,0,-1
EndSplineSet
EndChar

StartChar: underscore
Encoding: 95 95 66
Width: 430
GlyphClass: 2
Flags: W
LayerCount: 2
Fore
SplineSet
8 -40 m 1,0,-1
 424 -40 l 1,1,-1
 424 -80 l 1,2,-1
 8 -80 l 1,3,-1
 8 -40 l 1,0,-1
EndSplineSet
EndChar

StartChar: grave
Encoding: 96 96 67
Width: 273
GlyphClass: 2
Flags: W
LayerCount: 2
Fore
SplineSet
160 553 m 1,0,-1
 42 832 l 1,1,-1
 116 832 l 1,2,-1
 200 553 l 1,3,-1
 160 553 l 1,0,-1
EndSplineSet
EndChar

StartChar: a
Encoding: 97 97 68
Width: 560
GlyphClass: 2
Flags: W
LayerCount: 2
Fore
SplineSet
96 124 m 0,0,1
 96 82 96 82 132 51 c 128,-1,2
 168 20 168 20 233 20 c 0,3,4
 313 20 313 20 371 71.5 c 128,-1,5
 429 123 429 123 429 204 c 2,6,-1
 429 298 l 1,7,8
 379 280 379 280 268 263 c 0,9,10
 96 235 96 235 96 124 c 0,0,1
49 122 m 0,11,12
 49 193 49 193 100.5 237 c 128,-1,13
 152 281 152 281 267 298.5 c 128,-1,14
 382 316 382 316 429 335 c 1,15,-1
 429 363 l 2,16,17
 429 424 429 424 388 463.5 c 128,-1,18
 347 503 347 503 272 503 c 0,19,20
 223 503 223 503 178.5 480 c 128,-1,21
 134 457 134 457 103 417 c 1,22,-1
 71 440 l 1,23,24
 104 484 104 484 157 512 c 128,-1,25
 210 540 210 540 271 540 c 0,26,27
 375 540 375 540 425 488 c 128,-1,28
 475 436 475 436 475 351 c 2,29,-1
 475 0 l 1,30,-1
 430 0 l 1,31,-1
 430 104 l 1,32,33
 412 55 412 55 357 18.5 c 128,-1,34
 302 -18 302 -18 229 -18 c 0,35,36
 146 -18 146 -18 97.5 21.5 c 128,-1,37
 49 61 49 61 49 122 c 0,11,12
EndSplineSet
Substitution2: "Single Substitution lookup 12 subtable" ordfeminine
EndChar

StartChar: b
Encoding: 98 98 69
Width: 587
GlyphClass: 2
Flags: W
LayerCount: 2
Fore
SplineSet
97 0 m 1,0,-1
 97 766 l 1,1,-1
 144 766 l 1,2,-1
 144 401 l 1,3,4
 157 453 157 453 204 496.5 c 128,-1,5
 251 540 251 540 318 540 c 0,6,7
 415 540 415 540 474.5 465 c 128,-1,8
 534 390 534 390 534 262 c 0,9,10
 534 123 534 123 469.5 52.5 c 128,-1,11
 405 -18 405 -18 317 -18 c 0,12,13
 255 -18 255 -18 209.5 20 c 128,-1,14
 164 58 164 58 144 114 c 1,15,-1
 144 0 l 1,16,-1
 97 0 l 1,0,-1
142 262 m 0,17,18
 142 150 142 150 192 85 c 128,-1,19
 242 20 242 20 313 20 c 0,20,21
 390 20 390 20 439 85.5 c 128,-1,22
 488 151 488 151 488 262 c 0,23,24
 488 372 488 372 439.5 437 c 128,-1,25
 391 502 391 502 314 502 c 0,26,27
 244 502 244 502 193 437.5 c 128,-1,28
 142 373 142 373 142 262 c 0,17,18
EndSplineSet
EndChar

StartChar: c
Encoding: 99 99 70
Width: 503
GlyphClass: 2
Flags: W
LayerCount: 2
Fore
SplineSet
53 262 m 0,0,1
 53 384 53 384 113.5 462 c 128,-1,2
 174 540 174 540 280 540 c 0,3,4
 345 540 345 540 392.5 505 c 128,-1,5
 440 470 440 470 459 418 c 1,6,-1
 418 406 l 1,7,8
 401 448 401 448 364 475 c 128,-1,9
 327 502 327 502 280 502 c 0,10,11
 200 502 200 502 150 434.5 c 128,-1,12
 100 367 100 367 100 262 c 0,13,14
 100 154 100 154 151 87 c 128,-1,15
 202 20 202 20 280 20 c 0,16,17
 330 20 330 20 371.5 50.5 c 128,-1,18
 413 81 413 81 433 122 c 1,19,-1
 473 108 l 1,20,21
 450 55 450 55 398.5 18.5 c 128,-1,22
 347 -18 347 -18 280 -18 c 0,23,24
 179 -18 179 -18 116 58.5 c 128,-1,25
 53 135 53 135 53 262 c 0,0,1
EndSplineSet
EndChar

StartChar: d
Encoding: 100 100 71
Width: 587
GlyphClass: 2
Flags: W
LayerCount: 2
Fore
SplineSet
53 262 m 0,0,1
 53 391 53 391 113.5 465.5 c 128,-1,2
 174 540 174 540 270 540 c 0,3,4
 334 540 334 540 380.5 500 c 128,-1,5
 427 460 427 460 444 403 c 1,6,-1
 444 766 l 1,7,-1
 490 766 l 1,8,-1
 490 0 l 1,9,-1
 445 0 l 1,10,-1
 445 115 l 1,11,12
 425 58 425 58 379 20 c 128,-1,13
 333 -18 333 -18 269 -18 c 0,14,15
 182 -18 182 -18 117.5 52 c 128,-1,16
 53 122 53 122 53 262 c 0,0,1
100 262 m 0,17,18
 100 153 100 153 147.5 86.5 c 128,-1,19
 195 20 195 20 274 20 c 0,20,21
 346 20 346 20 395.5 85 c 128,-1,22
 445 150 445 150 445 262 c 0,23,24
 445 373 445 373 394.5 437.5 c 128,-1,25
 344 502 344 502 273 502 c 0,26,27
 196 502 196 502 148 437 c 128,-1,28
 100 372 100 372 100 262 c 0,17,18
EndSplineSet
EndChar

StartChar: e
Encoding: 101 101 72
Width: 558
GlyphClass: 2
Flags: W
LayerCount: 2
Fore
SplineSet
53 265 m 0,0,1
 53 386 53 386 115.5 463 c 128,-1,2
 178 540 178 540 282 540 c 0,3,4
 387 540 387 540 447.5 464 c 128,-1,5
 508 388 508 388 508 278 c 0,6,7
 508 272 508 272 507.5 263 c 128,-1,8
 507 254 507 254 507 248 c 1,9,-1
 100 248 l 1,10,11
 100 155 100 155 149.5 87.5 c 128,-1,12
 199 20 199 20 285 20 c 0,13,14
 340 20 340 20 385.5 48 c 128,-1,15
 431 76 431 76 455 119 c 1,16,-1
 494 105 l 1,17,18
 467 50 467 50 414 16 c 128,-1,19
 361 -18 361 -18 285 -18 c 0,20,21
 178 -18 178 -18 115.5 61 c 128,-1,22
 53 140 53 140 53 265 c 0,0,1
101 283 m 1,23,-1
 461 283 l 1,24,25
 461 373 461 373 412 437.5 c 128,-1,26
 363 502 363 502 282 502 c 0,27,28
 199 502 199 502 151 436 c 128,-1,29
 103 370 103 370 101 283 c 1,23,-1
EndSplineSet
EndChar

StartChar: f
Encoding: 102 102 73
Width: 329
GlyphClass: 2
Flags: W
LayerCount: 2
Fore
SplineSet
27 483 m 1,0,-1
 27 523 l 1,1,-1
 124 523 l 1,2,-1
 124 620 l 2,3,4
 124 695 124 695 162 730.5 c 128,-1,5
 200 766 200 766 264 766 c 2,6,-1
 317 766 l 1,7,-1
 317 727 l 1,8,-1
 268 727 l 2,9,10
 171 727 171 727 171 613 c 2,11,-1
 171 523 l 1,12,-1
 303 523 l 1,13,-1
 303 483 l 1,14,-1
 171 483 l 1,15,-1
 171 0 l 1,16,-1
 124 0 l 1,17,-1
 124 483 l 1,18,-1
 27 483 l 1,0,-1
EndSplineSet
EndChar

StartChar: g
Encoding: 103 103 74
Width: 577
GlyphClass: 2
Flags: W
LayerCount: 2
Fore
SplineSet
100 271 m 0,0,1
 100 168 100 168 147 103.5 c 128,-1,2
 194 39 194 39 268 39 c 0,3,4
 346 39 346 39 391 101 c 128,-1,5
 436 163 436 163 436 272 c 0,6,7
 436 375 436 375 389.5 438.5 c 128,-1,8
 343 502 343 502 270 502 c 0,9,10
 191 502 191 502 145.5 437 c 128,-1,11
 100 372 100 372 100 271 c 0,0,1
53 271 m 0,12,13
 53 391 53 391 111 465.5 c 128,-1,14
 169 540 169 540 266 540 c 0,15,16
 333 540 333 540 375 501.5 c 128,-1,17
 417 463 417 463 436 412 c 1,18,-1
 436 523 l 1,19,-1
 482 523 l 1,20,-1
 482 47 l 2,21,22
 482 -101 482 -101 432.5 -172.5 c 128,-1,23
 383 -244 383 -244 271 -244 c 0,24,25
 157 -244 157 -244 89 -155 c 1,26,-1
 122 -134 l 1,27,28
 187 -206 187 -206 272 -206 c 0,29,30
 436 -206 436 -206 436 32 c 2,31,-1
 436 125 l 1,32,33
 388 0 388 0 267 0 c 0,34,35
 170 0 170 0 111.5 76 c 128,-1,36
 53 152 53 152 53 271 c 0,12,13
EndSplineSet
EndChar

StartChar: h
Encoding: 104 104 75
Width: 579
GlyphClass: 2
Flags: W
LayerCount: 2
Fore
SplineSet
97 0 m 1,0,-1
 97 766 l 1,1,-1
 144 766 l 1,2,-1
 144 421 l 1,3,-1
 145 421 l 1,4,5
 163 468 163 468 212 504 c 128,-1,6
 261 540 261 540 325 540 c 0,7,8
 406 540 406 540 449 489 c 128,-1,9
 492 438 492 438 492 338 c 2,10,-1
 492 0 l 1,11,-1
 448 0 l 1,12,-1
 448 329 l 2,13,14
 448 502 448 502 317 502 c 0,15,16
 250 502 250 502 197 447 c 128,-1,17
 144 392 144 392 144 318 c 2,18,-1
 144 0 l 1,19,-1
 97 0 l 1,0,-1
EndSplineSet
Substitution2: "'sups' Superscript lookup 5 subtable" uni02B0
Substitution2: "'aalt' Access All Alternates lookup 0 subtable" uni02B0
EndChar

StartChar: i
Encoding: 105 105 76
Width: 277
GlyphClass: 2
Flags: W
LayerCount: 2
Fore
SplineSet
99 662 m 1,0,-1
 99 746 l 1,1,-1
 177 746 l 1,2,-1
 177 662 l 1,3,-1
 99 662 l 1,0,-1
117 0 m 1,4,-1
 117 523 l 1,5,-1
 162 523 l 1,6,-1
 162 0 l 1,7,-1
 117 0 l 1,4,-1
EndSplineSet
EndChar

StartChar: j
Encoding: 106 106 77
Width: 281
GlyphClass: 2
Flags: W
LayerCount: 2
Fore
SplineSet
102 662 m 1,0,-1
 102 746 l 1,1,-1
 181 746 l 1,2,-1
 181 662 l 1,3,-1
 102 662 l 1,0,-1
-6 -194 m 1,4,-1
 20 -194 l 2,5,6
 120 -194 120 -194 120 -61 c 2,7,-1
 120 523 l 1,8,-1
 165 523 l 1,9,-1
 165 -65 l 2,10,11
 165 -148 165 -148 130 -190.5 c 128,-1,12
 95 -233 95 -233 29 -233 c 2,13,-1
 -6 -233 l 1,14,-1
 -6 -194 l 1,4,-1
EndSplineSet
Substitution2: "'sups' Superscript lookup 5 subtable" uni02B2
Substitution2: "'aalt' Access All Alternates lookup 0 subtable" uni02B2
EndChar

StartChar: k
Encoding: 107 107 78
Width: 498
GlyphClass: 2
Flags: W
LayerCount: 2
Fore
SplineSet
98 0 m 1,0,-1
 98 766 l 1,1,-1
 146 766 l 1,2,-1
 146 222 l 1,3,-1
 412 523 l 1,4,-1
 473 523 l 1,5,-1
 290 316 l 1,6,-1
 498 0 l 1,7,-1
 442 0 l 1,8,-1
 258 282 l 1,9,-1
 146 158 l 1,10,-1
 146 0 l 1,11,-1
 98 0 l 1,0,-1
EndSplineSet
EndChar

StartChar: l
Encoding: 108 108 79
Width: 249
GlyphClass: 2
Flags: W
LayerCount: 2
Fore
SplineSet
101 0 m 1,0,-1
 101 766 l 1,1,-1
 148 766 l 1,2,-1
 148 0 l 1,3,-1
 101 0 l 1,0,-1
EndSplineSet
Substitution2: "'sups' Superscript lookup 5 subtable" uni02E1
Substitution2: "'aalt' Access All Alternates lookup 0 subtable" uni02E1
EndChar

StartChar: m
Encoding: 109 109 80
Width: 851
GlyphClass: 2
Flags: W
LayerCount: 2
Fore
SplineSet
93 0 m 1,0,-1
 93 523 l 1,1,-1
 138 523 l 1,2,-1
 138 429 l 1,3,-1
 139 429 l 1,4,5
 154 472 154 472 194.5 506 c 128,-1,6
 235 540 235 540 300 540 c 0,7,8
 413 540 413 540 439 408 c 1,9,10
 441 420 441 420 452 439.5 c 128,-1,11
 463 459 463 459 483 483 c 128,-1,12
 503 507 503 507 539 523.5 c 128,-1,13
 575 540 575 540 619 540 c 0,14,15
 695 540 695 540 730.5 490 c 128,-1,16
 766 440 766 440 766 339 c 2,17,-1
 766 0 l 1,18,-1
 719 0 l 1,19,-1
 719 332 l 2,20,21
 719 416 719 416 696 459 c 128,-1,22
 673 502 673 502 608 502 c 256,23,24
 543 502 543 502 498 449.5 c 128,-1,25
 453 397 453 397 453 313 c 2,26,-1
 453 0 l 1,27,-1
 406 0 l 1,28,-1
 406 332 l 2,29,30
 406 502 406 502 292 502 c 0,31,32
 224 502 224 502 181.5 451.5 c 128,-1,33
 139 401 139 401 139 320 c 2,34,-1
 139 0 l 1,35,-1
 93 0 l 1,0,-1
EndSplineSet
EndChar

StartChar: n
Encoding: 110 110 81
Width: 575
GlyphClass: 2
Flags: W
LayerCount: 2
Fore
SplineSet
93 0 m 1,0,-1
 93 523 l 1,1,-1
 138 523 l 1,2,-1
 138 415 l 1,3,-1
 139 415 l 1,4,5
 148 457 148 457 198.5 498.5 c 128,-1,6
 249 540 249 540 321 540 c 0,7,8
 352 540 352 540 379 531.5 c 128,-1,9
 406 523 406 523 432 502.5 c 128,-1,10
 458 482 458 482 473 440.5 c 128,-1,11
 488 399 488 399 488 338 c 2,12,-1
 488 0 l 1,13,-1
 441 0 l 1,14,-1
 441 329 l 2,15,16
 441 502 441 502 312 502 c 0,17,18
 245 502 245 502 192 447 c 128,-1,19
 139 392 139 392 139 318 c 2,20,-1
 139 0 l 1,21,-1
 93 0 l 1,0,-1
EndSplineSet
Substitution2: "'sups' Superscript lookup 5 subtable" uni207F
Substitution2: "'aalt' Access All Alternates lookup 0 subtable" uni207F
EndChar

StartChar: o
Encoding: 111 111 82
Width: 564
GlyphClass: 2
Flags: W
LayerCount: 2
Fore
SplineSet
100 262 m 0,0,1
 100 155 100 155 150.5 87.5 c 128,-1,2
 201 20 201 20 282 20 c 256,3,4
 363 20 363 20 414 88 c 128,-1,5
 465 156 465 156 465 262 c 0,6,7
 465 370 465 370 413 436 c 128,-1,8
 361 502 361 502 282 502 c 0,9,10
 204 502 204 502 152 436.5 c 128,-1,11
 100 371 100 371 100 262 c 0,0,1
53 262 m 0,12,13
 53 383 53 383 114 461.5 c 128,-1,14
 175 540 175 540 282 540 c 0,15,16
 387 540 387 540 449.5 461.5 c 128,-1,17
 512 383 512 383 512 262 c 0,18,19
 512 208 512 208 497.5 159 c 128,-1,20
 483 110 483 110 456 70 c 128,-1,21
 429 30 429 30 384 6 c 128,-1,22
 339 -18 339 -18 282 -18 c 0,23,24
 171 -18 171 -18 112 64.5 c 128,-1,25
 53 147 53 147 53 262 c 0,12,13
EndSplineSet
Substitution2: "Single Substitution lookup 12 subtable" ordmasculine
EndChar

StartChar: p
Encoding: 112 112 83
Width: 587
GlyphClass: 2
Flags: W
LayerCount: 2
Fore
SplineSet
143 263 m 0,0,1
 143 155 143 155 190.5 87.5 c 128,-1,2
 238 20 238 20 314 20 c 0,3,4
 389 20 389 20 438.5 85 c 128,-1,5
 488 150 488 150 488 262 c 0,6,7
 488 367 488 367 442.5 434.5 c 128,-1,8
 397 502 397 502 314 502 c 0,9,10
 241 502 241 502 192 434 c 128,-1,11
 143 366 143 366 143 263 c 0,0,1
97 -240 m 1,12,-1
 97 523 l 1,13,-1
 143 523 l 1,14,-1
 143 404 l 1,15,16
 164 466 164 466 210.5 503 c 128,-1,17
 257 540 257 540 318 540 c 0,18,19
 415 540 415 540 474.5 464 c 128,-1,20
 534 388 534 388 534 262 c 0,21,22
 534 127 534 127 471.5 54.5 c 128,-1,23
 409 -18 409 -18 317 -18 c 0,24,25
 253 -18 253 -18 209 19.5 c 128,-1,26
 165 57 165 57 144 116 c 1,27,-1
 144 -240 l 1,28,-1
 97 -240 l 1,12,-1
EndSplineSet
EndChar

StartChar: q
Encoding: 113 113 84
Width: 586
GlyphClass: 2
Flags: W
LayerCount: 2
Fore
SplineSet
100 262 m 0,0,1
 100 152 100 152 148.5 86 c 128,-1,2
 197 20 197 20 273 20 c 0,3,4
 350 20 350 20 397 88 c 128,-1,5
 444 156 444 156 444 263 c 0,6,7
 444 368 444 368 395.5 435 c 128,-1,8
 347 502 347 502 273 502 c 0,9,10
 191 502 191 502 145.5 434.5 c 128,-1,11
 100 367 100 367 100 262 c 0,0,1
53 262 m 0,12,13
 53 388 53 388 112.5 464 c 128,-1,14
 172 540 172 540 269 540 c 0,15,16
 328 540 328 540 375.5 504.5 c 128,-1,17
 423 469 423 469 445 405 c 1,18,-1
 445 523 l 1,19,-1
 490 523 l 1,20,-1
 490 -240 l 1,21,-1
 444 -240 l 1,22,-1
 444 116 l 1,23,24
 423 57 423 57 378 19.5 c 128,-1,25
 333 -18 333 -18 270 -18 c 0,26,27
 177 -18 177 -18 115 55 c 128,-1,28
 53 128 53 128 53 262 c 0,12,13
EndSplineSet
EndChar

StartChar: r
Encoding: 114 114 85
Width: 370
GlyphClass: 2
Flags: W
LayerCount: 2
Fore
SplineSet
93 0 m 1,0,-1
 93 523 l 1,1,-1
 137 523 l 1,2,-1
 137 432 l 1,3,4
 151 472 151 472 189.5 506 c 128,-1,5
 228 540 228 540 293 540 c 0,6,7
 338 540 338 540 371 525 c 1,8,-1
 371 483 l 1,9,10
 334 500 334 500 293 500 c 0,11,12
 221 500 221 500 180 446 c 128,-1,13
 139 392 139 392 139 309 c 2,14,-1
 139 0 l 1,15,-1
 93 0 l 1,0,-1
EndSplineSet
Substitution2: "'sups' Superscript lookup 5 subtable" uni02B3
Substitution2: "'aalt' Access All Alternates lookup 0 subtable" uni02B3
EndChar

StartChar: s
Encoding: 115 115 86
Width: 488
GlyphClass: 2
Flags: W
LayerCount: 2
Fore
SplineSet
45 92 m 1,0,-1
 81 112 l 1,1,2
 139 20 139 20 247 20 c 0,3,4
 314 20 314 20 356 48 c 128,-1,5
 398 76 398 76 398 123 c 0,6,7
 398 142 398 142 392.5 156 c 128,-1,8
 387 170 387 170 372 182.5 c 128,-1,9
 357 195 357 195 346.5 202 c 128,-1,10
 336 209 336 209 309 219 c 128,-1,11
 282 229 282 229 270.5 233.5 c 128,-1,12
 259 238 259 238 224 248 c 0,13,14
 189 259 189 259 164.5 269 c 128,-1,15
 140 279 140 279 113 297 c 128,-1,16
 86 315 86 315 72 341 c 128,-1,17
 58 367 58 367 58 401 c 0,18,19
 58 465 58 465 110.5 502.5 c 128,-1,20
 163 540 163 540 247 540 c 0,21,22
 308 540 308 540 357.5 509.5 c 128,-1,23
 407 479 407 479 430 435 c 1,24,-1
 398 415 l 1,25,26
 375 453 375 453 335.5 477.5 c 128,-1,27
 296 502 296 502 247 502 c 0,28,29
 181 502 181 502 143 473.5 c 128,-1,30
 105 445 105 445 105 400 c 0,31,32
 105 351 105 351 144 323.5 c 128,-1,33
 183 296 183 296 252 277 c 0,34,35
 292 266 292 266 319.5 256 c 128,-1,36
 347 246 347 246 378.5 228 c 128,-1,37
 410 210 410 210 426.5 183.5 c 128,-1,38
 443 157 443 157 443 123 c 0,39,40
 443 63 443 63 391.5 22.5 c 128,-1,41
 340 -18 340 -18 247 -18 c 0,42,43
 110 -18 110 -18 45 92 c 1,0,-1
EndSplineSet
Substitution2: "'hist' Historical Forms lookup 11 subtable" longs
Substitution2: "'sups' Superscript lookup 5 subtable" uni02E2
AlternateSubs2: "'aalt' Access All Alternates lookup 1 subtable" uni02E2 longs
EndChar

StartChar: t
Encoding: 116 116 87
Width: 357
GlyphClass: 2
Flags: W
LayerCount: 2
Fore
SplineSet
27 483 m 1,0,-1
 27 523 l 1,1,-1
 125 523 l 1,2,-1
 125 699 l 1,3,-1
 173 699 l 1,4,-1
 173 523 l 1,5,-1
 314 523 l 1,6,-1
 314 483 l 1,7,-1
 173 483 l 1,8,-1
 173 144 l 2,9,10
 173 88 173 88 194 64 c 128,-1,11
 215 40 215 40 260 40 c 0,12,13
 262 40 262 40 264 40 c 2,14,-1
 314 40 l 1,15,-1
 314 0 l 1,16,-1
 259 0 l 2,17,18
 257 0 257 0 255 0 c 0,19,20
 194 0 194 0 159.5 33 c 128,-1,21
 125 66 125 66 125 137 c 2,22,-1
 125 483 l 1,23,-1
 27 483 l 1,0,-1
EndSplineSet
EndChar

StartChar: u
Encoding: 117 117 88
Width: 571
GlyphClass: 2
Flags: W
LayerCount: 2
Fore
SplineSet
87 179 m 2,0,-1
 87 523 l 1,1,-1
 133 523 l 1,2,-1
 133 195 l 2,3,4
 133 20 133 20 266 20 c 0,5,6
 348 20 348 20 390.5 80 c 128,-1,7
 433 140 433 140 433 222 c 2,8,-1
 433 523 l 1,9,-1
 478 523 l 1,10,-1
 478 0 l 1,11,-1
 434 0 l 1,12,-1
 434 103 l 1,13,14
 425 60 425 60 380 21 c 128,-1,15
 335 -18 335 -18 256 -18 c 0,16,17
 176 -18 176 -18 131.5 35.5 c 128,-1,18
 87 89 87 89 87 179 c 2,0,-1
EndSplineSet
EndChar

StartChar: v
Encoding: 118 118 89
Width: 483
GlyphClass: 2
Flags: W
LayerCount: 2
Fore
SplineSet
13 523 m 1,0,-1
 64 523 l 1,1,-1
 200 160 l 2,2,3
 207 142 207 142 220.5 100.5 c 128,-1,4
 234 59 234 59 242 40 c 1,5,-1
 244 40 l 1,6,7
 267 104 267 104 286 160 c 2,8,-1
 419 523 l 1,9,-1
 471 523 l 1,10,-1
 271 0 l 1,11,-1
 213 0 l 1,12,-1
 13 523 l 1,0,-1
EndSplineSet
EndChar

StartChar: w
Encoding: 119 119 90
Width: 700
GlyphClass: 2
Flags: W
LayerCount: 2
Fore
SplineSet
11 523 m 1,0,-1
 63 523 l 1,1,-1
 163 155 l 2,2,3
 166 141 166 141 175.5 102 c 128,-1,4
 185 63 185 63 190 42 c 1,5,-1
 193 42 l 1,6,7
 198 60 198 60 208 98.5 c 128,-1,8
 218 137 218 137 222 155 c 2,9,-1
 322 523 l 1,10,-1
 380 523 l 1,11,-1
 481 153 l 2,12,13
 484 141 484 141 495 103 c 128,-1,14
 506 65 506 65 511 43 c 1,15,-1
 513 43 l 1,16,17
 518 66 518 66 528 106 c 128,-1,18
 538 146 538 146 540 155 c 2,19,-1
 639 523 l 1,20,-1
 691 523 l 1,21,-1
 541 0 l 1,22,-1
 481 0 l 1,23,-1
 382 357 l 2,24,25
 363 425 363 425 352 474 c 1,26,-1
 349 474 l 1,27,28
 346 460 346 460 340 436 c 128,-1,29
 334 412 334 412 329.5 392.5 c 128,-1,30
 325 373 325 373 320 357 c 2,31,-1
 221 0 l 1,32,-1
 161 0 l 1,33,-1
 11 523 l 1,0,-1
EndSplineSet
Substitution2: "'sups' Superscript lookup 5 subtable" uni02B7
Substitution2: "'aalt' Access All Alternates lookup 0 subtable" uni02B7
EndChar

StartChar: x
Encoding: 120 120 91
Width: 446
GlyphClass: 2
Flags: W
LayerCount: 2
Fore
SplineSet
5 0 m 1,0,-1
 195 272 l 1,1,-1
 16 523 l 1,2,-1
 71 523 l 1,3,-1
 177 371 l 2,4,5
 188 357 188 357 202.5 335 c 128,-1,6
 217 313 217 313 222 306 c 1,7,-1
 224 306 l 1,8,9
 230 317 230 317 246 339 c 128,-1,10
 262 361 262 361 268 371 c 2,11,-1
 372 523 l 1,12,-1
 428 523 l 1,13,-1
 252 272 l 1,14,-1
 440 0 l 1,15,-1
 384 0 l 1,16,-1
 267 173 l 2,17,18
 255 190 255 190 224 238 c 1,19,-1
 222 238 l 1,20,21
 215 226 215 226 200.5 205.5 c 128,-1,22
 186 185 186 185 178 173 c 2,23,-1
 61 0 l 1,24,-1
 5 0 l 1,0,-1
EndSplineSet
Substitution2: "'sups' Superscript lookup 5 subtable" uni02E3
Substitution2: "'aalt' Access All Alternates lookup 0 subtable" uni02E3
EndChar

StartChar: y
Encoding: 121 121 92
Width: 475
GlyphClass: 2
Flags: W
LayerCount: 2
Fore
SplineSet
11 523 m 1,0,-1
 65 523 l 1,1,-1
 194 167 l 2,2,3
 202 143 202 143 217 99 c 128,-1,4
 232 55 232 55 239 37 c 1,5,-1
 242 37 l 1,6,7
 282 154 282 154 287 169 c 2,8,-1
 411 523 l 1,9,-1
 464 523 l 1,10,-1
 234 -101 l 2,11,12
 207 -176 207 -176 173 -208 c 128,-1,13
 139 -240 139 -240 92 -240 c 2,14,-1
 66 -240 l 1,15,-1
 66 -201 l 1,16,-1
 85 -201 l 2,17,18
 156 -201 156 -201 195 -89 c 2,19,-1
 217 -20 l 1,20,-1
 11 523 l 1,0,-1
EndSplineSet
Substitution2: "'sups' Superscript lookup 5 subtable" uni02B8
Substitution2: "'aalt' Access All Alternates lookup 0 subtable" uni02B8
EndChar

StartChar: z
Encoding: 122 122 93
Width: 475
GlyphClass: 2
Flags: W
LayerCount: 2
Fore
SplineSet
40 0 m 1,0,-1
 40 33 l 1,1,-1
 368 483 l 1,2,-1
 66 483 l 1,3,-1
 66 523 l 1,4,-1
 426 523 l 1,5,-1
 426 491 l 1,6,-1
 98 39 l 1,7,-1
 436 39 l 1,8,-1
 436 0 l 1,9,-1
 40 0 l 1,0,-1
EndSplineSet
EndChar

StartChar: braceleft
Encoding: 123 123 94
Width: 464
GlyphClass: 2
Flags: W
LayerCount: 2
Fore
SplineSet
83 327 m 1,0,-1
 83 364 l 1,1,-1
 108 364 l 2,2,3
 195 364 195 364 195 518 c 2,4,-1
 195 718 l 2,5,6
 195 775 195 775 225 806 c 128,-1,7
 255 837 255 837 298 837 c 2,8,-1
 371 837 l 1,9,-1
 371 798 l 1,10,-1
 307 798 l 2,11,12
 279 798 279 798 260.5 774.5 c 128,-1,13
 242 751 242 751 242 708 c 2,14,-1
 242 509 l 2,15,16
 242 388 242 388 166 345 c 1,17,18
 199 330 199 330 220.5 291.5 c 128,-1,19
 242 253 242 253 242 192 c 2,20,-1
 242 2 l 2,21,22
 242 -47 242 -47 260 -71.5 c 128,-1,23
 278 -96 278 -96 309 -96 c 2,24,-1
 371 -96 l 1,25,-1
 371 -134 l 1,26,-1
 299 -134 l 2,27,28
 257 -134 257 -134 226 -103.5 c 128,-1,29
 195 -73 195 -73 195 -14 c 2,30,-1
 195 179 l 2,31,32
 195 252 195 252 172 289.5 c 128,-1,33
 149 327 149 327 108 327 c 2,34,-1
 83 327 l 1,0,-1
EndSplineSet
EndChar

StartChar: bar
Encoding: 124 124 95
Width: 247
GlyphClass: 2
Flags: W
LayerCount: 2
Fore
SplineSet
101 -168 m 1,0,-1
 101 866 l 1,1,-1
 147 866 l 1,2,-1
 147 -168 l 1,3,-1
 101 -168 l 1,0,-1
EndSplineSet
EndChar

StartChar: braceright
Encoding: 125 125 96
Width: 464
GlyphClass: 2
Flags: W
LayerCount: 2
Fore
SplineSet
93 -96 m 1,0,-1
 154 -96 l 2,1,2
 185 -96 185 -96 204 -71.5 c 128,-1,3
 223 -47 223 -47 223 2 c 2,4,-1
 223 196 l 2,5,6
 223 255 223 255 244 292.5 c 128,-1,7
 265 330 265 330 298 345 c 1,8,9
 223 387 223 387 223 507 c 2,10,-1
 223 708 l 2,11,12
 223 751 223 751 204 774.5 c 128,-1,13
 185 798 185 798 156 798 c 2,14,-1
 93 798 l 1,15,-1
 93 837 l 1,16,-1
 165 837 l 2,17,18
 209 837 209 837 239 806 c 128,-1,19
 269 775 269 775 269 718 c 2,20,-1
 269 518 l 2,21,22
 269 364 269 364 356 364 c 2,23,-1
 381 364 l 1,24,-1
 381 327 l 1,25,-1
 356 327 l 2,26,27
 314 327 314 327 291.5 288.5 c 128,-1,28
 269 250 269 250 269 183 c 2,29,-1
 269 -14 l 2,30,31
 269 -74 269 -74 238 -104 c 128,-1,32
 207 -134 207 -134 164 -134 c 2,33,-1
 93 -134 l 1,34,-1
 93 -96 l 1,0,-1
EndSplineSet
EndChar

StartChar: asciitilde
Encoding: 126 126 97
Width: 744
GlyphClass: 2
Flags: W
LayerCount: 2
Fore
SplineSet
76 314 m 1,0,1
 141 437 141 437 250 437 c 0,2,3
 291 437 291 437 326 416.5 c 128,-1,4
 361 396 361 396 382 371.5 c 128,-1,5
 403 347 403 347 433.5 326 c 128,-1,6
 464 305 464 305 496 305 c 0,7,8
 523 305 523 305 545 314.5 c 128,-1,9
 567 324 567 324 584.5 345 c 128,-1,10
 602 366 602 366 610 377 c 128,-1,11
 618 388 618 388 632 414 c 1,12,-1
 669 395 l 1,13,14
 598 266 598 266 497 266 c 0,15,16
 463 266 463 266 434.5 280 c 128,-1,17
 406 294 406 294 385.5 313.5 c 128,-1,18
 365 333 365 333 346 352.5 c 128,-1,19
 327 372 327 372 302.5 386 c 128,-1,20
 278 400 278 400 250 400 c 0,21,22
 171 400 171 400 114 294 c 1,23,-1
 76 314 l 1,0,1
EndSplineSet
EndChar

StartChar: exclamdown
Encoding: 161 161 99
Width: 315
GlyphClass: 2
Flags: W
LayerCount: 2
Fore
SplineSet
129 -216 m 1,0,-1
 137 310 l 1,1,-1
 179 310 l 1,2,-1
 186 -216 l 1,3,-1
 129 -216 l 1,0,-1
108 433 m 1,4,-1
 108 527 l 1,5,-1
 207 527 l 1,6,-1
 207 433 l 1,7,-1
 108 433 l 1,4,-1
EndSplineSet
EndChar

StartChar: cent
Encoding: 162 162 100
Width: 503
GlyphClass: 2
Flags: W
LayerCount: 2
Fore
SplineSet
53 262 m 0,0,1
 53 377 53 377 108.5 456 c 128,-1,2
 164 535 164 535 263 539 c 1,3,-1
 263 619 l 1,4,-1
 307 619 l 1,5,-1
 307 538 l 1,6,7
 362 530 362 530 401.5 497 c 128,-1,8
 441 464 441 464 459 419 c 1,9,-1
 419 406 l 1,10,11
 402 446 402 446 364.5 474 c 128,-1,12
 327 502 327 502 281 502 c 0,13,14
 199 502 199 502 149.5 434.5 c 128,-1,15
 100 367 100 367 100 262 c 0,16,17
 100 154 100 154 150 87 c 128,-1,18
 200 20 200 20 280 20 c 0,19,20
 329 20 329 20 371.5 50.5 c 128,-1,21
 414 81 414 81 433 122 c 1,22,-1
 472 108 l 1,23,24
 451 61 451 61 408 27 c 128,-1,25
 365 -7 365 -7 307 -16 c 1,26,-1
 307 -99 l 1,27,-1
 263 -99 l 1,28,-1
 263 -17 l 1,29,30
 170 -12 170 -12 111.5 64 c 128,-1,31
 53 140 53 140 53 262 c 0,0,1
EndSplineSet
EndChar

StartChar: sterling
Encoding: 163 163 101
Width: 565
GlyphClass: 2
Flags: W
LayerCount: 2
Fore
SplineSet
39 345 m 1,0,-1
 39 385 l 1,1,-1
 153 385 l 1,2,-1
 153 570 l 2,3,4
 153 660 153 660 204 707 c 128,-1,5
 255 754 255 754 341 754 c 0,6,7
 401 754 401 754 445 725 c 128,-1,8
 489 696 489 696 510 655 c 1,9,-1
 478 635 l 1,10,11
 430 714 430 714 343 714 c 0,12,13
 277 714 277 714 238.5 676 c 128,-1,14
 200 638 200 638 200 566 c 2,15,-1
 200 385 l 1,16,-1
 437 385 l 1,17,-1
 437 345 l 1,18,-1
 200 345 l 1,19,-1
 200 204 l 2,20,21
 200 90 200 90 134 38 c 1,22,23
 204 54 204 54 248 54 c 0,24,25
 280 54 280 54 328.5 38 c 128,-1,26
 377 22 377 22 409 22 c 0,27,28
 483 22 483 22 538 53 c 1,29,-1
 554 14 l 1,30,31
 492 -18 492 -18 408 -18 c 0,32,33
 378 -18 378 -18 323 -2.5 c 128,-1,34
 268 13 268 13 237 13 c 0,35,36
 204 13 204 13 159 6 c 128,-1,37
 114 -1 114 -1 86 -7 c 2,38,-1
 57 -14 l 1,39,-1
 43 22 l 1,40,41
 98 41 98 41 125.5 92 c 128,-1,42
 153 143 153 143 153 203 c 2,43,-1
 153 345 l 1,44,-1
 39 345 l 1,0,-1
EndSplineSet
EndChar

StartChar: currency
Encoding: 164 164 102
Width: 628
GlyphClass: 2
Flags: W
LayerCount: 2
Fore
SplineSet
36 138 m 1,0,-1
 146 240 l 1,1,2
 100 291 100 291 100 368 c 0,3,4
 100 443 100 443 145 495 c 1,5,-1
 36 596 l 1,6,-1
 67 627 l 1,7,-1
 175 526 l 1,8,9
 238 575 238 575 315 575 c 0,10,11
 396 575 396 575 456 525 c 1,12,-1
 562 626 l 1,13,-1
 593 595 l 1,14,-1
 485 495 l 1,15,16
 532 442 532 442 532 368 c 0,17,18
 532 296 532 296 484 240 c 1,19,-1
 593 138 l 1,20,-1
 563 108 l 1,21,-1
 455 208 l 1,22,23
 400 160 400 160 315 160 c 0,24,25
 232 160 232 160 174 208 c 1,26,-1
 67 109 l 1,27,-1
 36 138 l 1,0,-1
144 368 m 0,28,29
 144 299 144 299 192.5 250 c 128,-1,30
 241 201 241 201 315 201 c 256,31,32
 389 201 389 201 438 250.5 c 128,-1,33
 487 300 487 300 487 368 c 0,34,35
 487 437 487 437 437.5 485.5 c 128,-1,36
 388 534 388 534 315 534 c 256,37,38
 242 534 242 534 193 486 c 128,-1,39
 144 438 144 438 144 368 c 0,28,29
EndSplineSet
EndChar

StartChar: yen
Encoding: 165 165 103
Width: 567
GlyphClass: 2
Flags: W
LayerCount: 2
Fore
SplineSet
-3 735 m 1,0,-1
 55 735 l 1,1,-1
 213 488 l 2,2,3
 270 399 270 399 283 376 c 1,4,-1
 285 376 l 1,5,6
 295 391 295 391 319 428.5 c 128,-1,7
 343 466 343 466 355 486 c 2,8,-1
 514 735 l 1,9,-1
 572 735 l 1,10,-1
 335 371 l 1,11,-1
 508 371 l 1,12,-1
 508 335 l 1,13,-1
 309 335 l 1,14,-1
 309 225 l 1,15,-1
 508 225 l 1,16,-1
 508 190 l 1,17,-1
 309 190 l 1,18,-1
 309 0 l 1,19,-1
 261 0 l 1,20,-1
 261 190 l 1,21,-1
 59 190 l 1,22,-1
 59 225 l 1,23,-1
 261 225 l 1,24,-1
 261 335 l 1,25,-1
 59 335 l 1,26,-1
 59 371 l 1,27,-1
 234 371 l 1,28,-1
 -3 735 l 1,0,-1
EndSplineSet
EndChar

StartChar: brokenbar
Encoding: 166 166 104
Width: 247
GlyphClass: 2
Flags: W
LayerCount: 2
Fore
SplineSet
101 468 m 1,0,-1
 101 866 l 1,1,-1
 147 866 l 1,2,-1
 147 468 l 1,3,-1
 101 468 l 1,0,-1
101 -167 m 1,4,-1
 101 229 l 1,5,-1
 147 229 l 1,6,-1
 147 -167 l 1,7,-1
 101 -167 l 1,4,-1
EndSplineSet
EndChar

StartChar: section
Encoding: 167 167 105
Width: 571
GlyphClass: 2
Flags: W
LayerCount: 2
Fore
SplineSet
74 37 m 1,0,-1
 108 61 l 1,1,2
 130 24 130 24 172 3.5 c 128,-1,3
 214 -17 214 -17 266 -17 c 0,4,5
 333 -17 333 -17 369 7.5 c 128,-1,6
 405 32 405 32 405 73 c 0,7,8
 405 108 405 108 384 128.5 c 128,-1,9
 363 149 363 149 312 171 c 2,10,-1
 204 219 l 2,11,12
 144 246 144 246 114.5 277.5 c 128,-1,13
 85 309 85 309 85 356 c 0,14,15
 85 392 85 392 103.5 424 c 128,-1,16
 122 456 122 456 141 471 c 128,-1,17
 160 486 160 486 193 508 c 1,18,19
 117 563 117 563 117 622 c 0,20,21
 117 683 117 683 164.5 718.5 c 128,-1,22
 212 754 212 754 304 754 c 0,23,24
 365 754 365 754 416 727.5 c 128,-1,25
 467 701 467 701 494 656 c 1,26,-1
 462 635 l 1,27,28
 402 714 402 714 303 714 c 0,29,30
 230 714 230 714 197 688.5 c 128,-1,31
 164 663 164 663 164 623 c 0,32,33
 164 599 164 599 176.5 579 c 128,-1,34
 189 559 189 559 215 541 c 128,-1,35
 241 523 241 523 263 510.5 c 128,-1,36
 285 498 285 498 322 481 c 0,37,38
 336 474 336 474 344 471 c 0,39,40
 424 431 424 431 459 399.5 c 128,-1,41
 494 368 494 368 494 318 c 0,42,43
 494 239 494 239 407 166 c 1,44,45
 453 129 453 129 453 73 c 0,46,47
 453 16 453 16 407 -20.5 c 128,-1,48
 361 -57 361 -57 267 -57 c 0,49,50
 201 -57 201 -57 151.5 -30.5 c 128,-1,51
 102 -4 102 -4 74 37 c 1,0,-1
133 360 m 0,52,53
 133 319 133 319 155 297.5 c 128,-1,54
 177 276 177 276 241 248 c 2,55,-1
 368 190 l 1,56,57
 446 251 446 251 446 318 c 0,58,59
 446 354 446 354 419.5 377 c 128,-1,60
 393 400 393 400 325 434 c 2,61,-1
 228 485 l 1,62,63
 204 468 204 468 191.5 458.5 c 128,-1,64
 179 449 179 449 163 432.5 c 128,-1,65
 147 416 147 416 140 398.5 c 128,-1,66
 133 381 133 381 133 360 c 0,52,53
EndSplineSet
EndChar

StartChar: dieresis
Encoding: 168 168 106
Width: 456
GlyphClass: 2
Flags: W
LayerCount: 2
Fore
SplineSet
105 655 m 1,0,-1
 105 735 l 1,1,-1
 185 735 l 1,2,-1
 185 655 l 1,3,-1
 105 655 l 1,0,-1
272 655 m 1,4,-1
 272 735 l 1,5,-1
 352 735 l 1,6,-1
 352 655 l 1,7,-1
 272 655 l 1,4,-1
EndSplineSet
EndChar

StartChar: copyright
Encoding: 169 169 107
Width: 896
GlyphClass: 2
Flags: W
LayerCount: 2
Fore
SplineSet
95 374 m 0,0,1
 95 225 95 225 193.5 121.5 c 128,-1,2
 292 18 292 18 449 18 c 0,3,4
 605 18 605 18 704 121 c 128,-1,5
 803 224 803 224 803 374 c 256,6,7
 803 524 803 524 703 627.5 c 128,-1,8
 603 731 603 731 449 731 c 0,9,10
 296 731 296 731 195.5 629 c 128,-1,11
 95 527 95 527 95 374 c 0,0,1
58 374 m 256,12,13
 58 542 58 542 169 653.5 c 128,-1,14
 280 765 280 765 449 765 c 0,15,16
 617 765 617 765 728.5 654 c 128,-1,17
 840 543 840 543 840 374 c 0,18,19
 840 209 840 209 729 97 c 128,-1,20
 618 -15 618 -15 449 -15 c 256,21,22
 280 -15 280 -15 169 95.5 c 128,-1,23
 58 206 58 206 58 374 c 256,12,13
269 372 m 0,24,25
 269 477 269 477 321 544.5 c 128,-1,26
 373 612 373 612 464 612 c 0,27,28
 512 612 512 612 552 585.5 c 128,-1,29
 592 559 592 559 617 507 c 1,30,-1
 577 492 l 1,31,32
 538 573 538 573 463 573 c 0,33,34
 395 573 395 573 354.5 517.5 c 128,-1,35
 314 462 314 462 314 372 c 0,36,37
 314 280 314 280 355 225.5 c 128,-1,38
 396 171 396 171 463 171 c 0,39,40
 506 171 506 171 538.5 196 c 128,-1,41
 571 221 571 221 588 258 c 1,42,-1
 629 243 l 1,43,44
 608 197 608 197 564.5 165 c 128,-1,45
 521 133 521 133 463 133 c 0,46,47
 377 133 377 133 323 197.5 c 128,-1,48
 269 262 269 262 269 372 c 0,24,25
EndSplineSet
EndChar

StartChar: ordfeminine
Encoding: 170 170 108
Width: 388
GlyphClass: 2
Flags: W
LayerCount: 2
Fore
SplineSet
38 341 m 1,0,-1
 38 376 l 1,1,-1
 352 376 l 1,2,-1
 352 341 l 1,3,-1
 38 341 l 1,0,-1
73 548 m 0,4,5
 73 521 73 521 97 501 c 128,-1,6
 121 481 121 481 164 481 c 0,7,8
 216 481 216 481 255 515 c 128,-1,9
 294 549 294 549 294 602 c 2,10,-1
 294 662 l 1,11,12
 271 653 271 653 225.5 645.5 c 128,-1,13
 180 638 180 638 150.5 631.5 c 128,-1,14
 121 625 121 625 97 604 c 128,-1,15
 73 583 73 583 73 548 c 0,4,5
35 546 m 0,16,17
 35 584 35 584 53 609.5 c 128,-1,18
 71 635 71 635 103 647.5 c 128,-1,19
 135 660 135 660 166.5 666.5 c 128,-1,20
 198 673 198 673 235.5 679.5 c 128,-1,21
 273 686 273 686 294 694 c 1,22,-1
 294 712 l 2,23,24
 294 751 294 751 266.5 776.5 c 128,-1,25
 239 802 239 802 190 802 c 0,26,27
 149 802 149 802 118 781.5 c 128,-1,28
 87 761 87 761 75 743 c 1,29,-1
 48 763 l 1,30,31
 67 791 67 791 106 813 c 128,-1,32
 145 835 145 835 190 835 c 0,33,34
 262 835 262 835 296.5 799 c 128,-1,35
 331 763 331 763 331 702 c 2,36,-1
 331 460 l 1,37,-1
 295 460 l 1,38,-1
 295 519 l 1,39,40
 277 488 277 488 241.5 468 c 128,-1,41
 206 448 206 448 161 448 c 0,42,43
 103 448 103 448 69 476 c 128,-1,44
 35 504 35 504 35 546 c 0,16,17
EndSplineSet
EndChar

StartChar: guillemotleft
Encoding: 171 171 109
Width: 429
GlyphClass: 2
Flags: W
LayerCount: 2
Fore
SplineSet
37 251 m 1,0,-1
 195 472 l 1,1,-1
 229 450 l 1,2,-1
 88 251 l 1,3,-1
 228 52 l 1,4,-1
 194 29 l 1,5,-1
 37 251 l 1,0,-1
200 251 m 1,6,-1
 359 469 l 1,7,-1
 391 444 l 1,8,-1
 251 251 l 1,9,-1
 390 55 l 1,10,-1
 358 32 l 1,11,-1
 200 251 l 1,6,-1
EndSplineSet
EndChar

StartChar: logicalnot
Encoding: 172 172 110
Width: 543
GlyphClass: 2
Flags: W
LayerCount: 2
Fore
SplineSet
52 331 m 1,0,-1
 52 371 l 1,1,-1
 493 371 l 1,2,-1
 493 127 l 1,3,-1
 448 127 l 1,4,-1
 448 331 l 1,5,-1
 52 331 l 1,0,-1
EndSplineSet
EndChar

StartChar: uni00AD
Encoding: 173 173 111
Width: 562
GlyphClass: 2
Flags: W
LayerCount: 2
Fore
SplineSet
64 343 m 1,0,-1
 64 383 l 1,1,-1
 497 383 l 1,2,-1
 497 343 l 1,3,-1
 64 343 l 1,0,-1
EndSplineSet
EndChar

StartChar: registered
Encoding: 174 174 112
Width: 896
GlyphClass: 2
Flags: W
LayerCount: 2
Fore
SplineSet
320 147 m 1,0,-1
 320 597 l 1,1,-1
 483 597 l 2,2,3
 545 597 545 597 581 561.5 c 128,-1,4
 617 526 617 526 617 474 c 0,5,6
 617 391 617 391 540 362 c 1,7,8
 576 339 576 339 591 278 c 0,9,10
 616 181 616 181 635 147 c 1,11,-1
 585 147 l 1,12,13
 570 175 570 175 547 269 c 0,14,15
 538 307 538 307 523 327 c 128,-1,16
 508 347 508 347 475 347 c 2,17,-1
 364 347 l 1,18,-1
 364 147 l 1,19,-1
 320 147 l 1,0,-1
364 383 m 1,20,-1
 477 383 l 2,21,22
 521 383 521 383 546.5 407 c 128,-1,23
 572 431 572 431 572 471 c 0,24,25
 572 509 572 509 548.5 534 c 128,-1,26
 525 559 525 559 477 559 c 2,27,-1
 364 559 l 1,28,-1
 364 383 l 1,20,-1
58 374 m 256,29,30
 58 542 58 542 169 653.5 c 128,-1,31
 280 765 280 765 449 765 c 256,32,33
 618 765 618 765 729 654.5 c 128,-1,34
 840 544 840 544 840 374 c 0,35,36
 840 209 840 209 730 97 c 128,-1,37
 620 -15 620 -15 449 -15 c 0,38,39
 280 -15 280 -15 169 95.5 c 128,-1,40
 58 206 58 206 58 374 c 256,29,30
95 374 m 0,41,42
 95 225 95 225 193.5 121.5 c 128,-1,43
 292 18 292 18 449 18 c 0,44,45
 605 18 605 18 704 122 c 128,-1,46
 803 226 803 226 803 374 c 0,47,48
 803 524 803 524 703 627.5 c 128,-1,49
 603 731 603 731 449 731 c 0,50,51
 296 731 296 731 195.5 629 c 128,-1,52
 95 527 95 527 95 374 c 0,41,42
EndSplineSet
EndChar

StartChar: macron
Encoding: 175 175 113
Width: 519
GlyphClass: 2
Flags: W
LayerCount: 2
Fore
SplineSet
0 778 m 1,0,-1
 0 819 l 1,1,-1
 520 819 l 1,2,-1
 520 778 l 1,3,-1
 0 778 l 1,0,-1
EndSplineSet
EndChar

StartChar: degree
Encoding: 176 176 114
Width: 416
GlyphClass: 2
Flags: W
LayerCount: 2
Fore
SplineSet
89 628 m 0,0,1
 89 674 89 674 123 708.5 c 128,-1,2
 157 743 157 743 209 743 c 0,3,4
 259 743 259 743 293.5 710.5 c 128,-1,5
 328 678 328 678 328 628 c 256,6,7
 328 578 328 578 293.5 545.5 c 128,-1,8
 259 513 259 513 209 513 c 0,9,10
 158 513 158 513 123.5 546 c 128,-1,11
 89 579 89 579 89 628 c 0,0,1
122 628 m 0,12,13
 122 590 122 590 147 566.5 c 128,-1,14
 172 543 172 543 209 543 c 0,15,16
 244 543 244 543 269 567 c 128,-1,17
 294 591 294 591 294 628 c 0,18,19
 294 663 294 663 270.5 687.5 c 128,-1,20
 247 712 247 712 209 712 c 0,21,22
 169 712 169 712 145.5 687 c 128,-1,23
 122 662 122 662 122 628 c 0,12,13
EndSplineSet
EndChar

StartChar: plusminus
Encoding: 177 177 115
Width: 562
GlyphClass: 2
Flags: W
LayerCount: 2
Fore
SplineSet
46 409 m 1,0,-1
 46 450 l 1,1,-1
 259 450 l 1,2,-1
 259 645 l 1,3,-1
 304 645 l 1,4,-1
 304 450 l 1,5,-1
 516 450 l 1,6,-1
 516 409 l 1,7,-1
 304 409 l 1,8,-1
 304 214 l 1,9,-1
 259 214 l 1,10,-1
 259 409 l 1,11,-1
 46 409 l 1,0,-1
49 90 m 1,12,-1
 49 129 l 1,13,-1
 515 129 l 1,14,-1
 515 90 l 1,15,-1
 49 90 l 1,12,-1
EndSplineSet
EndChar

StartChar: twosuperior
Encoding: 178 178 116
Width: 316
GlyphClass: 2
Flags: W
LayerCount: 2
Fore
SplineSet
33 730 m 1,0,1
 59 834 59 834 159 834 c 0,2,3
 211 834 211 834 243.5 804 c 128,-1,4
 276 774 276 774 276 721 c 0,5,6
 276 658 276 658 208 593 c 0,7,8
 118 508 118 508 99 481 c 0,9,10
 86 462 86 462 78 444 c 1,11,-1
 276 444 l 1,12,-1
 276 413 l 1,13,-1
 35 413 l 1,14,15
 35 441 35 441 55.5 476 c 128,-1,16
 76 511 76 511 96 532 c 128,-1,17
 116 553 116 553 171 606 c 0,18,19
 179 615 179 615 185 619 c 0,20,21
 240 673 240 673 240 721 c 0,22,23
 240 759 240 759 218 780 c 128,-1,24
 196 801 196 801 158 801 c 0,25,26
 91 801 91 801 65 722 c 1,27,-1
 33 730 l 1,0,1
EndSplineSet
EndChar

StartChar: threesuperior
Encoding: 179 179 117
Width: 316
GlyphClass: 2
Flags: W
LayerCount: 2
Fore
SplineSet
24 481 m 1,0,-1
 55 496 l 1,1,2
 90 435 90 435 151 435 c 0,3,4
 193 435 193 435 220.5 458.5 c 128,-1,5
 248 482 248 482 248 528 c 0,6,7
 248 566 248 566 222 590.5 c 128,-1,8
 196 615 196 615 141 615 c 0,9,10
 121 615 121 615 112 614 c 1,11,-1
 112 647 l 1,12,13
 122 646 122 646 139 646 c 0,14,15
 188 646 188 646 210 669.5 c 128,-1,16
 232 693 232 693 232 727 c 0,17,18
 232 759 232 759 210 780.5 c 128,-1,19
 188 802 188 802 151 802 c 0,20,21
 98 802 98 802 67 738 c 1,22,-1
 37 749 l 1,23,24
 70 834 70 834 152 834 c 0,25,26
 205 834 205 834 236.5 804 c 128,-1,27
 268 774 268 774 268 729 c 0,28,29
 268 662 268 662 209 633 c 1,30,31
 285 607 285 607 285 528 c 0,32,33
 285 469 285 469 247.5 436 c 128,-1,34
 210 403 210 403 151 403 c 0,35,36
 63 403 63 403 24 481 c 1,0,-1
EndSplineSet
EndChar

StartChar: acute
Encoding: 180 180 118
Width: 329
GlyphClass: 2
Flags: W
LayerCount: 2
Fore
SplineSet
84 659 m 1,0,-1
 198 832 l 1,1,-1
 268 832 l 1,2,-1
 128 659 l 1,3,-1
 84 659 l 1,0,-1
EndSplineSet
EndChar

StartChar: uni00B5
Encoding: 181 181 119
Width: 587
GlyphClass: 2
Flags: W
LayerCount: 2
Fore
SplineSet
97 -240 m 1,0,-1
 97 523 l 1,1,-1
 144 523 l 1,2,-1
 144 191 l 2,3,4
 144 116 144 116 176.5 68 c 128,-1,5
 209 20 209 20 278 20 c 0,6,7
 360 20 360 20 405 80.5 c 128,-1,8
 450 141 450 141 450 222 c 2,9,-1
 450 523 l 1,10,-1
 495 523 l 1,11,-1
 495 0 l 1,12,-1
 452 0 l 1,13,-1
 452 103 l 1,14,-1
 450 103 l 1,15,16
 436 55 436 55 389.5 18.5 c 128,-1,17
 343 -18 343 -18 270 -18 c 0,18,19
 181 -18 181 -18 144 56 c 1,20,-1
 144 -240 l 1,21,-1
 97 -240 l 1,0,-1
EndSplineSet
EndChar

StartChar: paragraph
Encoding: 182 182 120
Width: 639
GlyphClass: 2
Flags: W
LayerCount: 2
Fore
SplineSet
69 549 m 0,0,1
 69 651 69 651 120.5 712.5 c 128,-1,2
 172 774 172 774 268 774 c 2,3,-1
 540 774 l 1,4,-1
 540 -70 l 1,5,-1
 501 -70 l 1,6,-1
 501 730 l 1,7,-1
 375 730 l 1,8,-1
 375 -70 l 1,9,-1
 334 -70 l 1,10,-1
 334 337 l 1,11,12
 295 324 295 324 256 324 c 0,13,14
 176 324 176 324 122.5 383.5 c 128,-1,15
 69 443 69 443 69 549 c 0,0,1
EndSplineSet
EndChar

StartChar: periodcentered
Encoding: 183 183 121
Width: 341
GlyphClass: 2
Flags: W
LayerCount: 2
Fore
SplineSet
122 304 m 1,0,-1
 122 400 l 1,1,-1
 221 400 l 1,2,-1
 221 304 l 1,3,-1
 122 304 l 1,0,-1
EndSplineSet
EndChar

StartChar: cedilla
Encoding: 184 184 122
Width: 292
GlyphClass: 2
Flags: W
LayerCount: 2
Fore
SplineSet
48 -187 m 1,0,1
 92 -197 92 -197 113 -197 c 0,2,3
 193 -197 193 -197 193 -145 c 0,4,5
 193 -97 193 -97 92 -86 c 1,6,-1
 133 -5 l 1,7,-1
 174 -5 l 1,8,-1
 147 -61 l 1,9,10
 237 -78 237 -78 237 -145 c 0,11,12
 237 -186 237 -186 206 -209 c 128,-1,13
 175 -232 175 -232 115 -232 c 0,14,15
 85 -232 85 -232 48 -221 c 1,16,-1
 48 -187 l 1,0,1
EndSplineSet
EndChar

StartChar: onesuperior
Encoding: 185 185 123
Width: 316
GlyphClass: 2
Flags: W
LayerCount: 2
Fore
SplineSet
62 739 m 1,0,-1
 62 769 l 1,1,-1
 88 769 l 2,2,3
 126 769 126 769 140 777.5 c 128,-1,4
 154 786 154 786 154 807 c 2,5,-1
 154 832 l 1,6,-1
 187 832 l 1,7,-1
 187 409 l 1,8,-1
 149 409 l 1,9,-1
 149 739 l 1,10,-1
 62 739 l 1,0,-1
EndSplineSet
EndChar

StartChar: ordmasculine
Encoding: 186 186 124
Width: 388
GlyphClass: 2
Flags: W
LayerCount: 2
Fore
SplineSet
73 641 m 0,0,1
 73 570 73 570 107 525.5 c 128,-1,2
 141 481 141 481 194 481 c 256,3,4
 247 481 247 481 281 526 c 128,-1,5
 315 571 315 571 315 641 c 0,6,7
 315 714 315 714 280.5 757.5 c 128,-1,8
 246 801 246 801 194 801 c 256,9,10
 142 801 142 801 107.5 757.5 c 128,-1,11
 73 714 73 714 73 641 c 0,0,1
36 641 m 0,12,13
 36 725 36 725 77.5 780 c 128,-1,14
 119 835 119 835 194 835 c 0,15,16
 266 835 266 835 310 780 c 128,-1,17
 354 725 354 725 354 641 c 0,18,19
 354 562 354 562 312.5 505 c 128,-1,20
 271 448 271 448 194 448 c 0,21,22
 116 448 116 448 76 505 c 128,-1,23
 36 562 36 562 36 641 c 0,12,13
38 341 m 1,24,-1
 38 376 l 1,25,-1
 352 376 l 1,26,-1
 352 341 l 1,27,-1
 38 341 l 1,24,-1
EndSplineSet
EndChar

StartChar: guillemotright
Encoding: 187 187 125
Width: 428
GlyphClass: 2
Flags: W
LayerCount: 2
Fore
SplineSet
38 444 m 1,0,-1
 71 469 l 1,1,-1
 229 251 l 1,2,-1
 72 32 l 1,3,-1
 39 55 l 1,4,-1
 178 251 l 1,5,-1
 38 444 l 1,0,-1
201 52 m 1,6,-1
 341 251 l 1,7,-1
 200 450 l 1,8,-1
 234 472 l 1,9,-1
 392 251 l 1,10,-1
 237 29 l 1,11,-1
 201 52 l 1,6,-1
EndSplineSet
EndChar

StartChar: onequarter
Encoding: 188 188 126
Width: 965
GlyphClass: 3
Flags: W
LayerCount: 2
Fore
SplineSet
588 117 m 1,0,-1
 761 117 l 1,1,-1
 761 383 l 1,2,-1
 731 334 l 1,3,-1
 588 117 l 1,0,-1
91 690 m 1,4,-1
 91 727 l 1,5,-1
 119 727 l 2,6,7
 166 727 166 727 181 735.5 c 128,-1,8
 196 744 196 744 196 771 c 2,9,-1
 196 799 l 1,10,-1
 233 799 l 1,11,-1
 233 305 l 1,12,-1
 191 305 l 1,13,-1
 191 690 l 1,14,-1
 91 690 l 1,4,-1
161 -51 m 1,15,-1
 651 785 l 1,16,-1
 698 785 l 1,17,-1
 209 -51 l 1,18,-1
 161 -51 l 1,15,-1
540 112 m 1,19,-1
 764 454 l 1,20,-1
 804 454 l 1,21,-1
 804 117 l 1,22,-1
 879 117 l 1,23,-1
 879 80 l 1,24,-1
 804 80 l 1,25,-1
 804 -42 l 1,26,-1
 761 -42 l 1,27,-1
 761 80 l 1,28,-1
 540 80 l 1,29,-1
 540 112 l 1,19,-1
EndSplineSet
Ligature2: "'frac' Diagonal Fractions lookup 7 subtable" one fraction four
Ligature2: "'frac' Diagonal Fractions lookup 7 subtable" one slash four
EndChar

StartChar: onehalf
Encoding: 189 189 127
Width: 965
GlyphClass: 3
Flags: W
LayerCount: 2
Fore
SplineSet
571 333 m 1,0,1
 607 455 607 455 719 455 c 0,2,3
 779 455 779 455 817.5 419.5 c 128,-1,4
 856 384 856 384 856 322 c 0,5,6
 856 251 856 251 781 178 c 0,7,8
 701 104 701 104 668.5 68 c 128,-1,9
 636 32 636 32 625 0 c 1,10,-1
 856 0 l 1,11,-1
 856 -38 l 1,12,-1
 574 -38 l 1,13,14
 574 11 574 11 609.5 58 c 128,-1,15
 645 105 645 105 747 201 c 0,16,17
 812 262 812 262 812 322 c 0,18,19
 812 368 812 368 786 392 c 128,-1,20
 760 416 760 416 717 416 c 256,21,22
 674 416 674 416 647.5 389 c 128,-1,23
 621 362 621 362 611 322 c 1,24,-1
 571 333 l 1,0,1
91 690 m 1,25,-1
 91 727 l 1,26,-1
 119 727 l 2,27,28
 166 727 166 727 181 735.5 c 128,-1,29
 196 744 196 744 196 771 c 2,30,-1
 196 799 l 1,31,-1
 233 799 l 1,32,-1
 233 305 l 1,33,-1
 191 305 l 1,34,-1
 191 690 l 1,35,-1
 91 690 l 1,25,-1
145 -51 m 1,36,-1
 646 784 l 1,37,-1
 693 784 l 1,38,-1
 193 -51 l 1,39,-1
 145 -51 l 1,36,-1
EndSplineSet
Ligature2: "'frac' Diagonal Fractions lookup 7 subtable" one fraction two
Ligature2: "'frac' Diagonal Fractions lookup 7 subtable" one slash two
EndChar

StartChar: threequarters
Encoding: 190 190 128
Width: 965
GlyphClass: 3
Flags: W
LayerCount: 2
Fore
SplineSet
598 117 m 1,0,-1
 772 117 l 1,1,-1
 772 383 l 1,2,-1
 742 334 l 1,3,-1
 598 117 l 1,0,-1
226 -51 m 1,4,-1
 727 784 l 1,5,-1
 774 784 l 1,6,-1
 274 -51 l 1,7,-1
 226 -51 l 1,4,-1
550 112 m 1,8,-1
 774 454 l 1,9,-1
 815 454 l 1,10,-1
 815 117 l 1,11,-1
 889 117 l 1,12,-1
 889 80 l 1,13,-1
 815 80 l 1,14,-1
 815 -42 l 1,15,-1
 772 -42 l 1,16,-1
 772 80 l 1,17,-1
 550 80 l 1,18,-1
 550 112 l 1,8,-1
65 397 m 1,19,-1
 102 413 l 1,20,21
 143 343 143 343 214 343 c 0,22,23
 262 343 262 343 294.5 370 c 128,-1,24
 327 397 327 397 327 450 c 0,25,26
 327 500 327 500 292.5 525.5 c 128,-1,27
 258 551 258 551 208 551 c 0,28,29
 189 551 189 551 168 549 c 1,30,-1
 168 590 l 1,31,32
 185 588 185 588 205 588 c 0,33,34
 250 588 250 588 279 613.5 c 128,-1,35
 308 639 308 639 308 682 c 0,36,37
 308 721 308 721 282 745.5 c 128,-1,38
 256 770 256 770 214 770 c 0,39,40
 152 770 152 770 116 695 c 1,41,-1
 78 708 l 1,42,43
 120 808 120 808 215 808 c 0,44,45
 278 808 278 808 314.5 772.5 c 128,-1,46
 351 737 351 737 351 684 c 0,47,48
 351 607 351 607 281 573 c 1,49,50
 319 560 319 560 344.5 529 c 128,-1,51
 370 498 370 498 370 450 c 0,52,53
 370 380 370 380 326.5 342 c 128,-1,54
 283 304 283 304 214 304 c 0,55,56
 164 304 164 304 125 329.5 c 128,-1,57
 86 355 86 355 65 397 c 1,19,-1
EndSplineSet
Ligature2: "'frac' Diagonal Fractions lookup 7 subtable" three fraction four
Ligature2: "'frac' Diagonal Fractions lookup 7 subtable" three slash four
EndChar

StartChar: questiondown
Encoding: 191 191 129
Width: 543
GlyphClass: 2
Flags: W
LayerCount: 2
Fore
SplineSet
77 -41 m 0,0,1
 77 5 77 5 96 41.5 c 128,-1,2
 115 78 115 78 142 103.5 c 128,-1,3
 169 129 169 129 195.5 154.5 c 128,-1,4
 222 180 222 180 241 217.5 c 128,-1,5
 260 255 260 255 260 301 c 2,6,-1
 260 319 l 1,7,-1
 307 319 l 1,8,-1
 307 299 l 2,9,10
 307 248 307 248 288 208 c 128,-1,11
 269 168 269 168 242.5 142 c 128,-1,12
 216 116 216 116 189.5 91.5 c 128,-1,13
 163 67 163 67 144 33.5 c 128,-1,14
 125 0 125 0 125 -41 c 0,15,16
 125 -110 125 -110 163.5 -152 c 128,-1,17
 202 -194 202 -194 270 -194 c 0,18,19
 376 -194 376 -194 432 -71 c 1,20,-1
 473 -87 l 1,21,22
 444 -157 444 -157 390.5 -195.5 c 128,-1,23
 337 -234 337 -234 271 -234 c 0,24,25
 181 -234 181 -234 129 -181 c 128,-1,26
 77 -128 77 -128 77 -41 c 0,0,1
233 434 m 1,27,-1
 233 527 l 1,28,-1
 332 527 l 1,29,-1
 332 434 l 1,30,-1
 233 434 l 1,27,-1
EndSplineSet
EndChar

StartChar: AE
Encoding: 198 198 136
Width: 923
GlyphClass: 2
Flags: W
LayerCount: 2
Fore
SplineSet
220 271 m 1,0,-1
 487 271 l 1,1,-1
 487 692 l 1,2,-1
 478 692 l 1,3,-1
 220 271 l 1,0,-1
1 0 m 1,4,-1
 454 735 l 1,5,-1
 876 735 l 1,6,-1
 876 694 l 1,7,-1
 534 694 l 1,8,-1
 534 402 l 1,9,-1
 839 402 l 1,10,-1
 839 362 l 1,11,-1
 532 362 l 1,12,-1
 532 41 l 1,13,-1
 881 41 l 1,14,-1
 881 0 l 1,15,-1
 487 0 l 1,16,-1
 487 232 l 1,17,-1
 197 232 l 1,18,-1
 54 0 l 1,19,-1
 1 0 l 1,4,-1
EndSplineSet
EndChar

StartChar: multiply
Encoding: 215 215 153
Width: 562
GlyphClass: 2
Flags: W
LayerCount: 2
Fore
SplineSet
49 174 m 1,0,-1
 253 361 l 1,1,-1
 52 547 l 1,2,-1
 82 578 l 1,3,-1
 281 387 l 1,4,-1
 481 578 l 1,5,-1
 511 548 l 1,6,-1
 311 361 l 1,7,-1
 514 173 l 1,8,-1
 484 145 l 1,9,-1
 281 333 l 1,10,-1
 78 145 l 1,11,-1
 49 174 l 1,0,-1
EndSplineSet
EndChar

StartChar: Oslash
Encoding: 216 216 154
Width: 705
GlyphClass: 2
Flags: W
LayerCount: 2
Fore
SplineSet
486 669 m 1,0,1
 430 713 430 713 354 713 c 0,2,3
 241 713 241 713 175 619.5 c 128,-1,4
 109 526 109 526 109 367 c 0,5,6
 109 167 109 167 209 78 c 1,7,-1
 486 669 l 1,0,1
516 637 m 1,8,-1
 242 53 l 1,9,10
 292 22 292 22 354 22 c 0,11,12
 468 22 468 22 532.5 116.5 c 128,-1,13
 597 211 597 211 597 367 c 0,14,15
 597 546 597 546 516 637 c 1,8,-1
60 367 m 0,16,17
 60 541 60 541 139 647.5 c 128,-1,18
 218 754 218 754 354 754 c 0,19,20
 440 754 440 754 506 708 c 1,21,-1
 549 797 l 1,22,-1
 595 797 l 1,23,-1
 537 682 l 1,24,25
 646 576 646 576 646 367 c 0,26,27
 646 194 646 194 567.5 88 c 128,-1,28
 489 -18 489 -18 354 -18 c 0,29,30
 279 -18 279 -18 221 14 c 1,31,-1
 175 -77 l 1,32,-1
 130 -77 l 1,33,-1
 189 38 l 1,34,35
 60 138 60 138 60 367 c 0,16,17
EndSplineSet
EndChar

StartChar: Thorn
Encoding: 222 222 160
Width: 618
GlyphClass: 2
Flags: W
LayerCount: 2
Fore
SplineSet
119 0 m 1,0,-1
 119 736 l 1,1,-1
 166 736 l 1,2,-1
 166 603 l 1,3,-1
 318 603 l 2,4,5
 444 603 444 603 506.5 543.5 c 128,-1,6
 569 484 569 484 569 379 c 0,7,8
 569 263 569 263 496.5 207.5 c 128,-1,9
 424 152 424 152 301 152 c 2,10,-1
 166 152 l 1,11,-1
 166 0 l 1,12,-1
 119 0 l 1,0,-1
166 192 m 1,13,-1
 296 192 l 2,14,15
 521 192 521 192 521 378 c 0,16,17
 521 563 521 563 312 563 c 2,18,-1
 166 563 l 1,19,-1
 166 192 l 1,13,-1
EndSplineSet
EndChar

StartChar: germandbls
Encoding: 223 223 161
Width: 667
GlyphClass: 2
Flags: W
LayerCount: 2
Fore
SplineSet
119 0 m 1,0,-1
 119 566 l 2,1,2
 119 655 119 655 179.5 704.5 c 128,-1,3
 240 754 240 754 332 754 c 0,4,5
 425 754 425 754 485 700.5 c 128,-1,6
 545 647 545 647 545 560 c 0,7,8
 545 493 545 493 518 449.5 c 128,-1,9
 491 406 491 406 454 385 c 1,10,-1
 454 383 l 1,11,12
 480 377 480 377 505 363.5 c 128,-1,13
 530 350 530 350 555 327 c 128,-1,14
 580 304 580 304 595.5 265.5 c 128,-1,15
 611 227 611 227 611 180 c 0,16,17
 611 96 611 96 555.5 39 c 128,-1,18
 500 -18 500 -18 404 -18 c 0,19,20
 324 -18 324 -18 253 4 c 1,21,-1
 260 46 l 1,22,23
 325 22 325 22 403 22 c 0,24,25
 469 22 469 22 515.5 66 c 128,-1,26
 562 110 562 110 562 180 c 0,27,28
 562 268 562 268 508 313 c 128,-1,29
 454 358 454 358 378 358 c 2,30,-1
 317 358 l 1,31,-1
 317 398 l 1,32,-1
 372 398 l 2,33,34
 427 398 427 398 461.5 443 c 128,-1,35
 496 488 496 488 496 556 c 256,36,37
 496 624 496 624 452 668.5 c 128,-1,38
 408 713 408 713 332 713 c 0,39,40
 257 713 257 713 211.5 672.5 c 128,-1,41
 166 632 166 632 166 562 c 2,42,-1
 166 0 l 1,43,-1
 119 0 l 1,0,-1
EndSplineSet
EndChar

StartChar: ae
Encoding: 230 230 168
Width: 929
GlyphClass: 2
Flags: W
LayerCount: 2
Fore
SplineSet
49 122 m 0,0,1
 49 192 49 192 100 236.5 c 128,-1,2
 151 281 151 281 267 299 c 0,3,4
 388 317 388 317 429 335 c 1,5,6
 429 340 429 340 428.5 350 c 128,-1,7
 428 360 428 360 428 363 c 0,8,9
 428 423 428 423 388 463 c 128,-1,10
 348 503 348 503 274 503 c 0,11,12
 169 503 169 503 102 417 c 1,13,-1
 70 440 l 1,14,15
 103 484 103 484 156.5 512 c 128,-1,16
 210 540 210 540 274 540 c 0,17,18
 356 540 356 540 403 502.5 c 128,-1,19
 450 465 450 465 462 405 c 1,20,21
 487 467 487 467 538 503.5 c 128,-1,22
 589 540 589 540 656 540 c 0,23,24
 756 540 756 540 817.5 463 c 128,-1,25
 879 386 879 386 879 278 c 2,26,-1
 879 247 l 1,27,-1
 475 247 l 1,28,-1
 475 222 l 1,29,30
 482 138 482 138 530 79 c 128,-1,31
 578 20 578 20 659 20 c 0,32,33
 717 20 717 20 759 48 c 128,-1,34
 801 76 801 76 825 118 c 1,35,-1
 864 104 l 1,36,37
 800 -18 800 -18 658 -18 c 0,38,39
 582 -18 582 -18 529.5 24 c 128,-1,40
 477 66 477 66 453 138 c 1,41,42
 431 70 431 70 371.5 26 c 128,-1,43
 312 -18 312 -18 229 -18 c 0,44,45
 147 -18 147 -18 98 20.5 c 128,-1,46
 49 59 49 59 49 122 c 0,0,1
96 125 m 0,47,48
 96 83 96 83 131.5 51.5 c 128,-1,49
 167 20 167 20 232 20 c 0,50,51
 312 20 312 20 370 71.5 c 128,-1,52
 428 123 428 123 428 204 c 2,53,-1
 428 298 l 1,54,55
 376 278 376 278 269 263 c 0,56,57
 179 250 179 250 137.5 215.5 c 128,-1,58
 96 181 96 181 96 125 c 0,47,48
475 283 m 1,59,-1
 833 283 l 1,60,61
 833 373 833 373 783.5 437.5 c 128,-1,62
 734 502 734 502 656 502 c 0,63,64
 580 502 580 502 532 443 c 128,-1,65
 484 384 484 384 476 303 c 2,66,-1
 475 283 l 1,59,-1
EndSplineSet
EndChar

StartChar: eth
Encoding: 240 240 178
Width: 565
GlyphClass: 2
Flags: W
LayerCount: 2
Fore
SplineSet
53 241 m 0,0,1
 53 360 53 360 116 428.5 c 128,-1,2
 179 497 179 497 282 497 c 0,3,4
 349 497 349 497 393 466 c 128,-1,5
 437 435 437 435 457 388 c 1,6,7
 431 564 431 564 337 651 c 1,8,-1
 196 548 l 1,9,-1
 168 578 l 1,10,-1
 304 677 l 1,11,12
 245 716 245 716 166 728 c 1,13,-1
 180 765 l 1,14,15
 273 750 273 750 341 703 c 1,16,-1
 443 778 l 1,17,-1
 469 747 l 1,18,-1
 373 677 l 1,19,20
 403 650 403 650 427 616 c 0,21,22
 510 493 510 493 510 255 c 0,23,24
 510 136 510 136 451 59 c 128,-1,25
 392 -18 392 -18 282 -18 c 0,26,27
 173 -18 173 -18 113 56 c 128,-1,28
 53 130 53 130 53 241 c 0,0,1
100 243 m 0,29,30
 100 145 100 145 149 82.5 c 128,-1,31
 198 20 198 20 283 20 c 0,32,33
 365 20 365 20 413 81 c 128,-1,34
 461 142 461 142 461 245 c 0,35,36
 461 341 461 341 412.5 400 c 128,-1,37
 364 459 364 459 284 459 c 256,38,39
 204 459 204 459 152 403 c 128,-1,40
 100 347 100 347 100 243 c 0,29,30
EndSplineSet
EndChar

StartChar: divide
Encoding: 247 247 185
Width: 562
GlyphClass: 2
Flags: W
LayerCount: 2
Fore
SplineSet
237 503 m 1,0,-1
 237 588 l 1,1,-1
 326 588 l 1,2,-1
 326 503 l 1,3,-1
 237 503 l 1,0,-1
33 343 m 1,4,-1
 33 383 l 1,5,-1
 529 383 l 1,6,-1
 529 343 l 1,7,-1
 33 343 l 1,4,-1
237 139 m 1,8,-1
 237 224 l 1,9,-1
 326 224 l 1,10,-1
 326 139 l 1,11,-1
 237 139 l 1,8,-1
EndSplineSet
EndChar

StartChar: oslash
Encoding: 248 248 186
Width: 564
GlyphClass: 2
Flags: W
LayerCount: 2
Fore
SplineSet
53 261 m 0,0,1
 53 382 53 382 114 461 c 128,-1,2
 175 540 175 540 282 540 c 0,3,4
 349 540 349 540 397 510 c 1,5,-1
 433 582 l 1,6,-1
 473 582 l 1,7,-1
 425 486 l 1,8,9
 512 408 512 408 512 261 c 0,10,11
 512 188 512 188 488 126 c 128,-1,12
 464 64 464 64 410.5 23 c 128,-1,13
 357 -18 357 -18 282 -18 c 0,14,15
 224 -18 224 -18 179 6 c 1,16,-1
 145 -64 l 1,17,-1
 104 -64 l 1,18,-1
 149 27 l 1,19,20
 102 63 102 63 77.5 126 c 128,-1,21
 53 189 53 189 53 261 c 0,0,1
404 445 m 1,22,-1
 199 43 l 1,23,24
 234 20 234 20 282 20 c 0,25,26
 363 20 363 20 414 87.5 c 128,-1,27
 465 155 465 155 465 261 c 0,28,29
 465 378 465 378 404 445 c 1,22,-1
377 471 m 1,30,31
 335 502 335 502 282 502 c 0,32,33
 204 502 204 502 152 436 c 128,-1,34
 100 370 100 370 100 261 c 0,35,36
 100 136 100 136 170 67 c 1,37,-1
 377 471 l 1,30,31
EndSplineSet
EndChar

StartChar: thorn
Encoding: 254 254 192
Width: 588
GlyphClass: 2
Flags: W
LayerCount: 2
Fore
SplineSet
144 263 m 0,0,1
 145 154 145 154 193 87 c 128,-1,2
 241 20 241 20 313 20 c 0,3,4
 391 20 391 20 440 85 c 128,-1,5
 489 150 489 150 489 262 c 0,6,7
 489 369 489 369 443 435.5 c 128,-1,8
 397 502 397 502 314 502 c 0,9,10
 244 502 244 502 194 435.5 c 128,-1,11
 144 369 144 369 144 267 c 0,12,13
 144 265 144 265 144 263 c 0,0,1
99 -240 m 1,14,-1
 99 766 l 1,15,-1
 145 766 l 1,16,-1
 145 402 l 1,17,18
 163 463 163 463 212.5 501.5 c 128,-1,19
 262 540 262 540 318 540 c 0,20,21
 418 540 418 540 476.5 465 c 128,-1,22
 535 390 535 390 535 262 c 0,23,24
 535 126 535 126 472.5 54 c 128,-1,25
 410 -18 410 -18 317 -18 c 0,26,27
 255 -18 255 -18 210 21 c 128,-1,28
 165 60 165 60 145 117 c 1,29,-1
 145 -240 l 1,30,-1
 99 -240 l 1,14,-1
EndSplineSet
EndChar

StartChar: dcroat
Encoding: 273 273 211
Width: 587
GlyphClass: 2
Flags: W
LayerCount: 2
Fore
SplineSet
53 262 m 0,0,1
 53 393 53 393 113.5 466.5 c 128,-1,2
 174 540 174 540 270 540 c 0,3,4
 334 540 334 540 380.5 500 c 128,-1,5
 427 460 427 460 444 403 c 1,6,-1
 444 636 l 1,7,-1
 216 636 l 1,8,-1
 216 672 l 1,9,-1
 444 672 l 1,10,-1
 444 766 l 1,11,-1
 490 766 l 1,12,-1
 490 672 l 1,13,-1
 568 672 l 1,14,-1
 568 636 l 1,15,-1
 490 636 l 1,16,-1
 490 0 l 1,17,-1
 445 0 l 1,18,-1
 445 115 l 1,19,20
 424 56 424 56 378.5 19 c 128,-1,21
 333 -18 333 -18 269 -18 c 0,22,23
 181 -18 181 -18 117 52 c 128,-1,24
 53 122 53 122 53 262 c 0,0,1
100 262 m 256,25,26
 100 153 100 153 148 86.5 c 128,-1,27
 196 20 196 20 275 20 c 0,28,29
 347 20 347 20 395.5 85 c 128,-1,30
 444 150 444 150 445 262 c 0,31,32
 445 264 445 264 445 266 c 0,33,34
 445 372 445 372 395 437 c 128,-1,35
 345 502 345 502 273 502 c 0,36,37
 197 502 197 502 148.5 436.5 c 128,-1,38
 100 371 100 371 100 262 c 256,25,26
EndSplineSet
EndChar

StartChar: uni0123
Encoding: 291 291 229
Width: 577
GlyphClass: 2
Flags: W
LayerCount: 2
Fore
SplineSet
238 632 m 1,0,-1
 317 805 l 1,1,-1
 352 805 l 1,2,-1
 298 632 l 1,3,-1
 238 632 l 1,0,-1
100 271 m 0,4,5
 100 167 100 167 147.5 103 c 128,-1,6
 195 39 195 39 268 39 c 0,7,8
 347 39 347 39 391.5 100.5 c 128,-1,9
 436 162 436 162 436 272 c 0,10,11
 436 376 436 376 390 439 c 128,-1,12
 344 502 344 502 269 502 c 0,13,14
 191 502 191 502 145.5 437.5 c 128,-1,15
 100 373 100 373 100 271 c 0,4,5
53 271 m 0,16,17
 53 391 53 391 111 465.5 c 128,-1,18
 169 540 169 540 265 540 c 0,19,20
 333 540 333 540 375 502 c 128,-1,21
 417 464 417 464 436 412 c 1,22,-1
 436 523 l 1,23,-1
 482 523 l 1,24,-1
 482 46 l 2,25,26
 482 -102 482 -102 432.5 -173 c 128,-1,27
 383 -244 383 -244 270 -244 c 0,28,29
 216 -244 216 -244 166.5 -220.5 c 128,-1,30
 117 -197 117 -197 88 -156 c 1,31,-1
 121 -134 l 1,32,33
 182 -205 182 -205 271 -205 c 0,34,35
 359 -205 359 -205 397 -145 c 128,-1,36
 435 -85 435 -85 436 30 c 2,37,-1
 436 125 l 1,38,39
 416 70 416 70 373.5 35 c 128,-1,40
 331 0 331 0 266 0 c 0,41,42
 170 0 170 0 111.5 76 c 128,-1,43
 53 152 53 152 53 271 c 0,16,17
EndSplineSet
EndChar

StartChar: Hbar
Encoding: 294 294 232
Width: 742
GlyphClass: 2
Flags: W
LayerCount: 2
Fore
SplineSet
27 579 m 1,0,-1
 27 618 l 1,1,-1
 119 618 l 1,2,-1
 119 735 l 1,3,-1
 166 735 l 1,4,-1
 166 618 l 1,5,-1
 576 618 l 1,6,-1
 576 735 l 1,7,-1
 624 735 l 1,8,-1
 624 618 l 1,9,-1
 716 618 l 1,10,-1
 716 579 l 1,11,-1
 624 579 l 1,12,-1
 624 0 l 1,13,-1
 576 0 l 1,14,-1
 576 360 l 1,15,-1
 166 360 l 1,16,-1
 166 0 l 1,17,-1
 119 0 l 1,18,-1
 119 579 l 1,19,-1
 27 579 l 1,0,-1
576 579 m 1,20,-1
 166 579 l 1,21,-1
 166 400 l 1,22,-1
 576 400 l 1,23,-1
 576 579 l 1,20,-1
EndSplineSet
EndChar

StartChar: hbar
Encoding: 295 295 233
Width: 579
GlyphClass: 2
Flags: W
LayerCount: 2
Fore
SplineSet
20 643 m 1,0,-1
 20 680 l 1,1,-1
 97 680 l 1,2,-1
 97 766 l 1,3,-1
 144 766 l 1,4,-1
 144 680 l 1,5,-1
 362 680 l 1,6,-1
 362 643 l 1,7,-1
 144 643 l 1,8,-1
 144 416 l 1,9,10
 161 461 161 461 210.5 497.5 c 128,-1,11
 260 534 260 534 325 534 c 0,12,13
 354 534 354 534 380 526 c 128,-1,14
 406 518 406 518 433 498 c 128,-1,15
 460 478 460 478 476 435.5 c 128,-1,16
 492 393 492 393 492 332 c 2,17,-1
 492 0 l 1,18,-1
 446 0 l 1,19,-1
 446 323 l 2,20,21
 446 495 446 495 316 495 c 0,22,23
 249 495 249 495 196.5 439 c 128,-1,24
 144 383 144 383 144 311 c 2,25,-1
 144 0 l 1,26,-1
 97 0 l 1,27,-1
 97 643 l 1,28,-1
 20 643 l 1,0,-1
EndSplineSet
EndChar

StartChar: dotlessi
Encoding: 305 305 243
Width: 239
GlyphClass: 2
Flags: W
LayerCount: 2
Fore
SplineSet
96 0 m 1,0,-1
 96 523 l 1,1,-1
 143 523 l 1,2,-1
 143 0 l 1,3,-1
 96 0 l 1,0,-1
EndSplineSet
EndChar

StartChar: kgreenlandic
Encoding: 312 312 250
Width: 497
GlyphClass: 2
Flags: W
LayerCount: 2
Fore
SplineSet
97 0 m 1,0,-1
 97 523 l 1,1,-1
 144 523 l 1,2,-1
 144 267 l 1,3,-1
 146 267 l 1,4,-1
 424 523 l 1,5,-1
 485 523 l 1,6,-1
 210 268 l 1,7,-1
 498 0 l 1,8,-1
 439 0 l 1,9,-1
 179 237 l 1,10,-1
 144 203 l 1,11,-1
 144 0 l 1,12,-1
 97 0 l 1,0,-1
EndSplineSet
EndChar

StartChar: Lslash
Encoding: 321 321 259
Width: 538
GlyphClass: 2
Flags: W
LayerCount: 2
Fore
SplineSet
166 354 m 1,0,-1
 166 41 l 1,1,-1
 528 41 l 1,2,-1
 528 0 l 1,3,-1
 119 0 l 1,4,-1
 119 322 l 1,5,-1
 5 244 l 1,6,-1
 -18 278 l 1,7,-1
 119 372 l 1,8,-1
 119 735 l 1,9,-1
 166 735 l 1,10,-1
 166 403 l 1,11,-1
 273 476 l 1,12,-1
 296 443 l 1,13,-1
 166 354 l 1,0,-1
EndSplineSet
EndChar

StartChar: lslash
Encoding: 322 322 260
Width: 249
GlyphClass: 2
Flags: W
LayerCount: 2
Fore
SplineSet
148 370 m 1,0,-1
 148 0 l 1,1,-1
 101 0 l 1,2,-1
 101 339 l 1,3,-1
 -7 265 l 1,4,-1
 -30 299 l 1,5,-1
 101 389 l 1,6,-1
 101 766 l 1,7,-1
 148 766 l 1,8,-1
 148 420 l 1,9,-1
 256 492 l 1,10,-1
 278 459 l 1,11,-1
 148 370 l 1,0,-1
EndSplineSet
EndChar

StartChar: Eng
Encoding: 330 330 268
Width: 750
GlyphClass: 2
Flags: W
LayerCount: 2
Fore
SplineSet
119 0 m 1,0,-1
 119 735 l 1,1,-1
 175 735 l 1,2,-1
 586 71 l 1,3,-1
 591 71 l 1,4,5
 584 153 584 153 584 250 c 2,6,-1
 584 735 l 1,7,-1
 632 735 l 1,8,-1
 632 0 l 2,9,10
 632 -118 632 -118 589 -181 c 128,-1,11
 546 -244 546 -244 444 -244 c 0,12,13
 393 -244 393 -244 345 -238 c 1,14,-1
 345 -197 l 1,15,16
 389 -203 389 -203 437 -203 c 0,17,18
 514 -203 514 -203 546 -156 c 128,-1,19
 578 -109 578 -109 579 0 c 1,20,-1
 228 563 l 1,21,-1
 164 669 l 1,22,-1
 160 669 l 1,23,24
 166 576 166 576 166 483 c 2,25,-1
 166 0 l 1,26,-1
 119 0 l 1,0,-1
EndSplineSet
EndChar

StartChar: eng
Encoding: 331 331 269
Width: 574
GlyphClass: 2
Flags: W
LayerCount: 2
Fore
SplineSet
93 0 m 1,0,-1
 93 523 l 1,1,-1
 137 523 l 1,2,-1
 137 415 l 1,3,-1
 139 415 l 1,4,5
 148 457 148 457 198.5 498.5 c 128,-1,6
 249 540 249 540 321 540 c 0,7,8
 353 540 353 540 379.5 532 c 128,-1,9
 406 524 406 524 432 503 c 128,-1,10
 458 482 458 482 472.5 440.5 c 128,-1,11
 487 399 487 399 487 338 c 2,12,-1
 487 0 l 2,13,14
 487 -129 487 -129 444.5 -186.5 c 128,-1,15
 402 -244 402 -244 317 -244 c 0,16,17
 297 -244 297 -244 223 -234 c 1,18,-1
 223 -196 l 1,19,20
 283 -204 283 -204 311 -204 c 0,21,22
 381 -204 381 -204 411 -155.5 c 128,-1,23
 441 -107 441 -107 441 -4 c 2,24,-1
 441 329 l 2,25,26
 441 502 441 502 312 502 c 0,27,28
 245 502 245 502 191.5 446.5 c 128,-1,29
 138 391 138 391 138 318 c 2,30,-1
 138 0 l 1,31,-1
 93 0 l 1,0,-1
EndSplineSet
EndChar

StartChar: OE
Encoding: 338 338 276
Width: 931
GlyphClass: 2
Flags: W
LayerCount: 2
Fore
SplineSet
60 368 m 256,0,1
 60 546 60 546 146 650 c 128,-1,2
 232 754 232 754 370 754 c 0,3,4
 426 754 426 754 475 735 c 1,5,-1
 884 735 l 1,6,-1
 884 694 l 1,7,-1
 520 694 l 1,8,-1
 520 402 l 1,9,-1
 846 402 l 1,10,-1
 846 362 l 1,11,-1
 520 362 l 1,12,-1
 520 41 l 1,13,-1
 889 41 l 1,14,-1
 889 0 l 1,15,-1
 478 0 l 1,16,17
 432 -18 432 -18 370 -18 c 0,18,19
 232 -18 232 -18 146 86 c 128,-1,20
 60 190 60 190 60 368 c 256,0,1
109 368 m 0,21,22
 109 209 109 209 182.5 115.5 c 128,-1,23
 256 22 256 22 370 22 c 0,24,25
 429 22 429 22 472 45 c 1,26,-1
 472 688 l 1,27,28
 430 713 430 713 370 713 c 0,29,30
 252 713 252 713 180.5 618.5 c 128,-1,31
 109 524 109 524 109 368 c 0,21,22
EndSplineSet
EndChar

StartChar: uni0163
Encoding: 355 355 293
Width: 349
GlyphClass: 2
Flags: W
LayerCount: 2
Fore
SplineSet
27 483 m 1,0,-1
 27 523 l 1,1,-1
 125 523 l 1,2,-1
 125 699 l 1,3,-1
 172 699 l 1,4,-1
 172 523 l 1,5,-1
 305 523 l 1,6,-1
 305 483 l 1,7,-1
 172 483 l 1,8,-1
 172 144 l 2,9,10
 172 89 172 89 193.5 64.5 c 128,-1,11
 215 40 215 40 264 40 c 2,12,-1
 306 40 l 1,13,-1
 306 0 l 1,14,-1
 259 0 l 2,15,16
 251 0 251 0 244 0 c 1,17,-1
 232 -48 l 1,18,19
 279 -53 279 -53 305 -77 c 128,-1,20
 331 -101 331 -101 331 -136 c 0,21,22
 331 -172 331 -172 302.5 -196.5 c 128,-1,23
 274 -221 274 -221 218 -221 c 0,24,25
 176 -221 176 -221 136 -210 c 1,26,-1
 136 -177 l 1,27,28
 178 -189 178 -189 219 -189 c 0,29,30
 252 -189 252 -189 272 -174 c 128,-1,31
 292 -159 292 -159 292 -134 c 0,32,33
 292 -77 292 -77 183 -70 c 1,34,-1
 203 8 l 1,35,36
 125 33 125 33 125 137 c 2,37,-1
 125 483 l 1,38,-1
 27 483 l 1,0,-1
EndSplineSet
Substitution2: "'locl' Localized Forms in Latin lookup 3 subtable" uni021B
Substitution2: "'locl' Localized Forms in Latin lookup 2 subtable" uni021B
Substitution2: "'aalt' Access All Alternates lookup 0 subtable" uni021B
EndChar

StartChar: tbar
Encoding: 359 359 297
Width: 357
GlyphClass: 2
Flags: W
LayerCount: 2
Fore
SplineSet
27 483 m 1,0,-1
 27 523 l 1,1,-1
 125 523 l 1,2,-1
 125 699 l 1,3,-1
 172 699 l 1,4,-1
 172 523 l 1,5,-1
 313 523 l 1,6,-1
 313 483 l 1,7,-1
 172 483 l 1,8,-1
 172 346 l 1,9,-1
 318 346 l 1,10,-1
 318 308 l 1,11,-1
 172 308 l 1,12,-1
 172 144 l 2,13,14
 172 89 172 89 193.5 64.5 c 128,-1,15
 215 40 215 40 264 40 c 2,16,-1
 314 40 l 1,17,-1
 314 0 l 1,18,-1
 259 0 l 2,19,20
 125 0 125 0 125 137 c 2,21,-1
 125 308 l 1,22,-1
 18 308 l 1,23,-1
 18 346 l 1,24,-1
 125 346 l 1,25,-1
 125 483 l 1,26,-1
 27 483 l 1,0,-1
EndSplineSet
EndChar

StartChar: longs
Encoding: 383 383 321
Width: 302
GlyphClass: 2
Flags: W
LayerCount: 2
Fore
SplineSet
99 0 m 1,0,-1
 99 601 l 2,1,2
 99 677 99 677 136.5 712.5 c 128,-1,3
 174 748 174 748 239 748 c 2,4,-1
 287 748 l 1,5,-1
 287 710 l 1,6,-1
 244 710 l 2,7,8
 146 710 146 710 146 594 c 2,9,-1
 146 0 l 1,10,-1
 99 0 l 1,0,-1
EndSplineSet
EndChar

StartChar: uni0180
Encoding: 384 384 322
Width: 587
GlyphClass: 2
Flags: W
LayerCount: 2
Fore
SplineSet
142 262 m 0,0,1
 142 150 142 150 192 85 c 128,-1,2
 242 20 242 20 313 20 c 0,3,4
 391 20 391 20 439.5 85.5 c 128,-1,5
 488 151 488 151 488 262 c 0,6,7
 488 372 488 372 440 437 c 128,-1,8
 392 502 392 502 314 502 c 0,9,10
 244 502 244 502 193 437.5 c 128,-1,11
 142 373 142 373 142 262 c 0,0,1
24 644 m 1,12,-1
 24 680 l 1,13,-1
 97 680 l 1,14,-1
 97 766 l 1,15,-1
 144 766 l 1,16,-1
 144 680 l 1,17,-1
 362 680 l 1,18,-1
 362 644 l 1,19,-1
 144 644 l 1,20,-1
 144 401 l 1,21,22
 156 453 156 453 203.5 496.5 c 128,-1,23
 251 540 251 540 319 540 c 0,24,25
 417 540 417 540 475.5 465 c 128,-1,26
 534 390 534 390 534 262 c 0,27,28
 534 122 534 122 470 52 c 128,-1,29
 406 -18 406 -18 318 -18 c 0,30,31
 255 -18 255 -18 209.5 20 c 128,-1,32
 164 58 164 58 144 114 c 1,33,-1
 144 0 l 1,34,-1
 97 0 l 1,35,-1
 97 644 l 1,36,-1
 24 644 l 1,12,-1
EndSplineSet
EndChar

StartChar: uni0182
Encoding: 386 386 324
Width: 665
GlyphClass: 2
Flags: W
LayerCount: 2
Fore
SplineSet
166 41 m 1,0,-1
 386 41 l 2,1,2
 467 41 467 41 514.5 81.5 c 128,-1,3
 562 122 562 122 562 200 c 0,4,5
 562 275 562 275 513 319.5 c 128,-1,6
 464 364 464 364 378 364 c 2,7,-1
 166 364 l 1,8,-1
 166 41 l 1,0,-1
119 0 m 1,9,-1
 119 735 l 1,10,-1
 527 735 l 1,11,-1
 527 694 l 1,12,-1
 166 694 l 1,13,-1
 166 405 l 1,14,-1
 386 405 l 2,15,16
 490 405 490 405 550.5 349 c 128,-1,17
 611 293 611 293 611 200 c 0,18,19
 611 110 611 110 553.5 55 c 128,-1,20
 496 0 496 0 397 0 c 2,21,-1
 119 0 l 1,9,-1
EndSplineSet
EndChar

StartChar: uni0183
Encoding: 387 387 325
Width: 587
GlyphClass: 2
Flags: W
LayerCount: 2
Fore
SplineSet
142 262 m 0,0,1
 142 150 142 150 192 85 c 128,-1,2
 242 20 242 20 313 20 c 0,3,4
 391 20 391 20 439.5 85.5 c 128,-1,5
 488 151 488 151 488 262 c 0,6,7
 488 372 488 372 439.5 437 c 128,-1,8
 391 502 391 502 314 502 c 0,9,10
 244 502 244 502 193 437.5 c 128,-1,11
 142 373 142 373 142 262 c 0,0,1
97 0 m 1,12,-1
 97 766 l 1,13,-1
 433 766 l 1,14,-1
 433 727 l 1,15,-1
 144 727 l 1,16,-1
 144 401 l 1,17,18
 156 451 156 451 203.5 495.5 c 128,-1,19
 251 540 251 540 319 540 c 0,20,21
 416 540 416 540 475 465 c 128,-1,22
 534 390 534 390 534 262 c 0,23,24
 534 122 534 122 470 52 c 128,-1,25
 406 -18 406 -18 318 -18 c 0,26,27
 255 -18 255 -18 209 20.5 c 128,-1,28
 163 59 163 59 144 114 c 1,29,-1
 144 0 l 1,30,-1
 97 0 l 1,12,-1
EndSplineSet
EndChar

StartChar: uni0184
Encoding: 388 388 326
Width: 669
GlyphClass: 2
Flags: W
LayerCount: 2
Fore
SplineSet
47 684 m 1,0,-1
 133 735 l 1,1,-1
 166 735 l 1,2,-1
 166 400 l 1,3,-1
 389 400 l 2,4,5
 491 400 491 400 553 342 c 128,-1,6
 615 284 615 284 615 200 c 0,7,8
 615 118 615 118 559 59 c 128,-1,9
 503 0 503 0 403 0 c 2,10,-1
 119 0 l 1,11,-1
 119 629 l 1,12,-1
 47 684 l 1,0,-1
166 41 m 1,13,-1
 390 41 l 2,14,15
 467 41 467 41 516.5 83 c 128,-1,16
 566 125 566 125 566 199 c 0,17,18
 566 267 566 267 516.5 313.5 c 128,-1,19
 467 360 467 360 387 360 c 2,20,-1
 166 360 l 1,21,-1
 166 41 l 1,13,-1
EndSplineSet
EndChar

StartChar: uni0185
Encoding: 389 389 327
Width: 587
GlyphClass: 2
Flags: W
LayerCount: 2
Fore
SplineSet
28 710 m 1,0,-1
 117 766 l 1,1,-1
 144 766 l 1,2,-1
 144 401 l 1,3,4
 162 463 162 463 213 501.5 c 128,-1,5
 264 540 264 540 319 540 c 0,6,7
 416 540 416 540 475 465 c 128,-1,8
 534 390 534 390 534 262 c 0,9,10
 534 123 534 123 470 52.5 c 128,-1,11
 406 -18 406 -18 318 -18 c 0,12,13
 254 -18 254 -18 209.5 20 c 128,-1,14
 165 58 165 58 144 115 c 1,15,-1
 144 0 l 1,16,-1
 97 0 l 1,17,-1
 97 655 l 1,18,-1
 28 710 l 1,0,-1
142 262 m 256,19,20
 142 151 142 151 191.5 85.5 c 128,-1,21
 241 20 241 20 313 20 c 0,22,23
 391 20 391 20 439.5 86 c 128,-1,24
 488 152 488 152 488 262 c 0,25,26
 488 371 488 371 439.5 436.5 c 128,-1,27
 391 502 391 502 314 502 c 0,28,29
 244 502 244 502 193 437.5 c 128,-1,30
 142 373 142 373 142 262 c 256,19,20
EndSplineSet
EndChar

StartChar: uni0186
Encoding: 390 390 328
Width: 639
GlyphClass: 2
Flags: W
LayerCount: 2
Fore
SplineSet
34 141 m 1,0,-1
 77 155 l 1,1,2
 104 98 104 98 155.5 60 c 128,-1,3
 207 22 207 22 277 22 c 0,4,5
 389 22 389 22 460 115 c 128,-1,6
 531 208 531 208 531 368 c 0,7,8
 531 525 531 525 461.5 619 c 128,-1,9
 392 713 392 713 277 713 c 0,10,11
 210 713 210 713 164.5 676.5 c 128,-1,12
 119 640 119 640 95 588 c 1,13,-1
 54 605 l 1,14,15
 80 664 80 664 136 709 c 128,-1,16
 192 754 192 754 276 754 c 0,17,18
 412 754 412 754 495.5 651.5 c 128,-1,19
 579 549 579 549 579 368 c 0,20,21
 579 188 579 188 495.5 85 c 128,-1,22
 412 -18 412 -18 276 -18 c 0,23,24
 110 -18 110 -18 34 141 c 1,0,-1
EndSplineSet
EndChar

StartChar: uni018B
Encoding: 395 395 333
Width: 665
GlyphClass: 2
Flags: W
LayerCount: 2
Fore
SplineSet
103 200 m 0,0,1
 103 123 103 123 151.5 82 c 128,-1,2
 200 41 200 41 281 41 c 2,3,-1
 498 41 l 1,4,-1
 498 364 l 1,5,-1
 292 364 l 2,6,7
 206 364 206 364 154.5 319.5 c 128,-1,8
 103 275 103 275 103 200 c 0,0,1
54 200 m 0,9,10
 54 292 54 292 116 348.5 c 128,-1,11
 178 405 178 405 283 405 c 2,12,-1
 498 405 l 1,13,-1
 498 694 l 1,14,-1
 139 694 l 1,15,-1
 139 735 l 1,16,-1
 546 735 l 1,17,-1
 546 0 l 1,18,-1
 271 0 l 2,19,20
 172 0 172 0 113 55 c 128,-1,21
 54 110 54 110 54 200 c 0,9,10
EndSplineSet
EndChar

StartChar: uni018C
Encoding: 396 396 334
Width: 587
GlyphClass: 2
Flags: W
LayerCount: 2
Fore
SplineSet
100 262 m 256,0,1
 100 152 100 152 147.5 86 c 128,-1,2
 195 20 195 20 274 20 c 0,3,4
 346 20 346 20 395.5 85 c 128,-1,5
 445 150 445 150 445 262 c 0,6,7
 445 373 445 373 394.5 437.5 c 128,-1,8
 344 502 344 502 273 502 c 0,9,10
 196 502 196 502 148 437 c 128,-1,11
 100 372 100 372 100 262 c 256,0,1
53 262 m 0,12,13
 53 391 53 391 113.5 465.5 c 128,-1,14
 174 540 174 540 270 540 c 0,15,16
 336 540 336 540 382.5 498 c 128,-1,17
 429 456 429 456 444 403 c 1,18,-1
 444 727 l 1,19,-1
 151 727 l 1,20,-1
 151 766 l 1,21,-1
 490 766 l 1,22,-1
 490 0 l 1,23,-1
 445 0 l 1,24,-1
 445 115 l 1,25,26
 426 59 426 59 379.5 20.5 c 128,-1,27
 333 -18 333 -18 268 -18 c 0,28,29
 180 -18 180 -18 116.5 52 c 128,-1,30
 53 122 53 122 53 262 c 0,12,13
EndSplineSet
EndChar

StartChar: uni018D
Encoding: 397 397 335
Width: 620
GlyphClass: 2
Flags: W
LayerCount: 2
Fore
SplineSet
100 317 m 0,0,1
 100 180 100 180 313 85 c 1,2,3
 403 123 403 123 461 187 c 128,-1,4
 519 251 519 251 519 318 c 0,5,6
 519 393 519 393 466 447.5 c 128,-1,7
 413 502 413 502 314 502 c 0,8,9
 221 502 221 502 160.5 452 c 128,-1,10
 100 402 100 402 100 317 c 0,0,1
53 314 m 0,11,12
 53 419 53 419 125 479.5 c 128,-1,13
 197 540 197 540 315 540 c 0,14,15
 431 540 431 540 499 478 c 128,-1,16
 567 416 567 416 567 320 c 0,17,18
 567 249 567 249 509.5 177.5 c 128,-1,19
 452 106 452 106 354 62 c 1,20,21
 492 -13 492 -13 492 -93 c 0,22,23
 492 -156 492 -156 441 -197.5 c 128,-1,24
 390 -239 390 -239 302 -239 c 0,25,26
 165 -239 165 -239 93 -132 c 1,27,-1
 128 -109 l 1,28,29
 192 -200 192 -200 302 -200 c 0,30,31
 362 -200 362 -200 404 -171 c 128,-1,32
 446 -142 446 -142 446 -94 c 0,33,34
 446 -64 446 -64 417 -34 c 128,-1,35
 388 -4 388 -4 354 16 c 128,-1,36
 320 36 320 36 261 64 c 0,37,38
 53 164 53 164 53 314 c 0,11,12
EndSplineSet
EndChar

StartChar: uni018E
Encoding: 398 398 336
Width: 618
GlyphClass: 2
Flags: W
LayerCount: 2
Fore
SplineSet
42 0 m 1,0,-1
 42 41 l 1,1,-1
 452 41 l 1,2,-1
 452 361 l 1,3,-1
 92 361 l 1,4,-1
 92 402 l 1,5,-1
 452 402 l 1,6,-1
 452 694 l 1,7,-1
 55 694 l 1,8,-1
 55 735 l 1,9,-1
 500 735 l 1,10,-1
 500 0 l 1,11,-1
 42 0 l 1,0,-1
EndSplineSet
EndChar

StartChar: uni018F
Encoding: 399 399 337
Width: 693
GlyphClass: 2
Flags: W
LayerCount: 2
Fore
SplineSet
107 343 m 1,0,1
 107 337 107 337 107.5 328 c 128,-1,2
 108 319 108 319 108 315 c 0,3,4
 109 262 109 262 119.5 215 c 128,-1,5
 130 168 130 168 154 122 c 128,-1,6
 178 76 178 76 225.5 49 c 128,-1,7
 273 22 273 22 338 22 c 0,8,9
 380 22 380 22 421 38.5 c 128,-1,10
 462 55 462 55 500 90 c 128,-1,11
 538 125 538 125 562 190.5 c 128,-1,12
 586 256 586 256 586 343 c 1,13,-1
 107 343 l 1,0,1
58 328 m 2,14,-1
 58 383 l 1,15,-1
 585 383 l 1,16,17
 583 455 583 455 568.5 513.5 c 128,-1,18
 554 572 554 572 524 617.5 c 128,-1,19
 494 663 494 663 445.5 688 c 128,-1,20
 397 713 397 713 332 713 c 0,21,22
 196 713 196 713 123 589 c 1,23,-1
 82 607 l 1,24,25
 115 674 115 674 181 714 c 128,-1,26
 247 754 247 754 333 754 c 0,27,28
 436 754 436 754 505.5 702 c 128,-1,29
 575 650 575 650 605 565 c 128,-1,30
 635 480 635 480 635 366 c 0,31,32
 635 178 635 178 551.5 80 c 128,-1,33
 468 -18 468 -18 337 -18 c 0,34,35
 262 -18 262 -18 206 12.5 c 128,-1,36
 150 43 150 43 119 94.5 c 128,-1,37
 88 146 88 146 73 204.5 c 128,-1,38
 58 263 58 263 58 328 c 2,14,-1
EndSplineSet
EndChar

StartChar: uni0190
Encoding: 400 400 338
Width: 601
GlyphClass: 2
Flags: W
LayerCount: 2
Fore
SplineSet
59 200 m 0,0,1
 59 280 59 280 111 329 c 128,-1,2
 163 378 163 378 228 392 c 1,3,4
 173 410 173 410 131 456.5 c 128,-1,5
 89 503 89 503 89 572 c 0,6,7
 89 649 89 649 149 701.5 c 128,-1,8
 209 754 209 754 313 754 c 0,9,10
 466 754 466 754 537 615 c 1,11,-1
 495 599 l 1,12,13
 433 714 433 714 315 714 c 0,14,15
 239 714 239 714 188.5 673 c 128,-1,16
 138 632 138 632 138 568 c 0,17,18
 138 494 138 494 194.5 451.5 c 128,-1,19
 251 409 251 409 329 409 c 0,20,21
 373 409 373 409 382 410 c 1,22,-1
 382 369 l 1,23,24
 372 370 372 370 325 370 c 0,25,26
 271 370 271 370 223.5 353.5 c 128,-1,27
 176 337 176 337 142 297.5 c 128,-1,28
 108 258 108 258 108 201 c 0,29,30
 108 113 108 113 170.5 67 c 128,-1,31
 233 21 233 21 319 21 c 0,32,33
 377 21 377 21 432.5 51.5 c 128,-1,34
 488 82 488 82 519 127 c 1,35,-1
 558 109 l 1,36,37
 525 52 525 52 460 17 c 128,-1,38
 395 -18 395 -18 318 -18 c 0,39,40
 209 -18 209 -18 134 39 c 128,-1,41
 59 96 59 96 59 200 c 0,0,1
EndSplineSet
EndChar

StartChar: uni0191
Encoding: 401 401 339
Width: 582
GlyphClass: 2
Flags: W
LayerCount: 2
Fore
SplineSet
-28 -200 m 1,0,1
 9 -203 9 -203 20 -203 c 0,2,3
 74 -203 74 -203 96.5 -166.5 c 128,-1,4
 119 -130 119 -130 119 -57 c 2,5,-1
 119 735 l 1,6,-1
 547 735 l 1,7,-1
 547 694 l 1,8,-1
 166 694 l 1,9,-1
 166 391 l 1,10,-1
 509 391 l 1,11,-1
 509 352 l 1,12,-1
 166 352 l 1,13,-1
 166 -57 l 2,14,15
 166 -244 166 -244 27 -244 c 0,16,17
 3 -244 3 -244 -28 -240 c 1,18,-1
 -28 -200 l 1,0,1
EndSplineSet
EndChar

StartChar: florin
Encoding: 402 402 340
Width: 329
GlyphClass: 2
Flags: W
LayerCount: 2
Fore
SplineSet
-30 -200 m 1,0,1
 3 -204 3 -204 18 -204 c 0,2,3
 124 -204 124 -204 124 -48 c 2,4,-1
 124 483 l 1,5,-1
 27 483 l 1,6,-1
 27 523 l 1,7,-1
 124 523 l 1,8,-1
 124 620 l 2,9,10
 124 695 124 695 161.5 730.5 c 128,-1,11
 199 766 199 766 263 766 c 2,12,-1
 317 766 l 1,13,-1
 317 727 l 1,14,-1
 268 727 l 2,15,16
 170 727 170 727 170 613 c 2,17,-1
 170 523 l 1,18,-1
 303 523 l 1,19,-1
 303 483 l 1,20,-1
 170 483 l 1,21,-1
 170 -50 l 2,22,23
 170 -244 170 -244 25 -244 c 0,24,25
 12 -244 12 -244 -8.5 -242 c 128,-1,26
 -29 -240 -29 -240 -30 -240 c 1,27,-1
 -30 -200 l 1,0,1
EndSplineSet
EndChar

StartChar: uni0194
Encoding: 404 404 342
Width: 589
GlyphClass: 2
Flags: W
LayerCount: 2
Fore
SplineSet
-3 735 m 1,0,-1
 51 735 l 1,1,-1
 285 153 l 1,2,-1
 297 120 l 1,3,-1
 298 120 l 1,4,-1
 308 153 l 1,5,-1
 539 735 l 1,6,-1
 593 735 l 1,7,-1
 334 94 l 1,8,9
 382 32 382 32 404.5 -11.5 c 128,-1,10
 427 -55 427 -55 427 -105 c 0,11,12
 427 -162 427 -162 391 -203 c 128,-1,13
 355 -244 355 -244 298 -244 c 256,14,15
 241 -244 241 -244 204.5 -206 c 128,-1,16
 168 -168 168 -168 168 -105 c 0,17,18
 168 -58 168 -58 192 -11 c 128,-1,19
 216 36 216 36 259 94 c 1,20,-1
 -3 735 l 1,0,-1
216 -104 m 0,21,22
 216 -147 216 -147 238.5 -175.5 c 128,-1,23
 261 -204 261 -204 298 -204 c 0,24,25
 334 -204 334 -204 357 -174 c 128,-1,26
 380 -144 380 -144 380 -104 c 0,27,28
 380 -36 380 -36 297 65 c 1,29,30
 216 -33 216 -33 216 -104 c 0,21,22
EndSplineSet
EndChar

StartChar: uni0195
Encoding: 405 405 343
Width: 914
GlyphClass: 2
Flags: W
LayerCount: 2
Fore
SplineSet
97 0 m 1,0,-1
 97 766 l 1,1,-1
 144 766 l 1,2,-1
 144 423 l 1,3,-1
 145 422 l 1,4,5
 166 471 166 471 214.5 505.5 c 128,-1,6
 263 540 263 540 325 540 c 0,7,8
 356 540 356 540 382.5 532 c 128,-1,9
 409 524 409 524 435.5 504 c 128,-1,10
 462 484 462 484 477 442 c 128,-1,11
 492 400 492 400 492 338 c 2,12,-1
 492 161 l 2,13,14
 492 96 492 96 527.5 58 c 128,-1,15
 563 20 563 20 633 20 c 0,16,17
 782 20 782 20 782 167 c 2,18,-1
 782 523 l 1,19,-1
 828 523 l 1,20,-1
 828 164 l 2,21,22
 828 75 828 75 779 28.5 c 128,-1,23
 730 -18 730 -18 633 -18 c 0,24,25
 554 -18 554 -18 501 22 c 128,-1,26
 448 62 448 62 448 153 c 2,27,-1
 448 329 l 2,28,29
 448 502 448 502 317 502 c 0,30,31
 250 502 250 502 197 446 c 128,-1,32
 144 390 144 390 144 319 c 0,33,34
 144 317 144 317 144 316 c 2,35,-1
 144 0 l 1,36,-1
 97 0 l 1,0,-1
EndSplineSet
EndChar

StartChar: uni0196
Encoding: 406 406 344
Width: 336
GlyphClass: 2
Flags: W
LayerCount: 2
Fore
SplineSet
113 156 m 2,0,-1
 113 735 l 1,1,-1
 161 735 l 1,2,-1
 161 158 l 2,3,4
 161 88 161 88 183 55 c 128,-1,5
 205 22 205 22 253 22 c 0,6,7
 288 22 288 22 321 27 c 1,8,-1
 321 -13 l 1,9,10
 273 -18 273 -18 247 -18 c 0,11,12
 113 -18 113 -18 113 156 c 2,0,-1
EndSplineSet
EndChar

StartChar: uni0197
Encoding: 407 407 345
Width: 284
GlyphClass: 2
Flags: W
LayerCount: 2
Fore
SplineSet
38 358 m 1,0,-1
 38 396 l 1,1,-1
 119 396 l 1,2,-1
 119 735 l 1,3,-1
 166 735 l 1,4,-1
 166 396 l 1,5,-1
 249 396 l 1,6,-1
 249 358 l 1,7,-1
 166 358 l 1,8,-1
 166 0 l 1,9,-1
 119 0 l 1,10,-1
 119 358 l 1,11,-1
 38 358 l 1,0,-1
EndSplineSet
EndChar

StartChar: uni0198
Encoding: 408 408 346
Width: 634
GlyphClass: 2
Flags: W
LayerCount: 2
Fore
SplineSet
119 0 m 1,0,-1
 119 735 l 1,1,-1
 166 735 l 1,2,-1
 166 303 l 1,3,-1
 168 303 l 1,4,-1
 516 705 l 2,5,6
 559 754 559 754 625 754 c 0,7,8
 649 754 649 754 682 748 c 1,9,-1
 682 706 l 1,10,11
 644 714 644 714 627 714 c 0,12,13
 588 714 588 714 560 682 c 2,14,-1
 331 420 l 1,15,-1
 629 0 l 1,16,-1
 567 0 l 1,17,-1
 299 384 l 1,18,-1
 166 233 l 1,19,-1
 166 0 l 1,20,-1
 119 0 l 1,0,-1
EndSplineSet
EndChar

StartChar: uni0199
Encoding: 409 409 347
Width: 498
GlyphClass: 2
Flags: W
LayerCount: 2
Fore
SplineSet
98 0 m 1,0,-1
 98 620 l 2,1,2
 98 691 98 691 139 731 c 128,-1,3
 180 771 180 771 254 771 c 0,4,5
 268 771 268 771 288 769 c 128,-1,6
 308 767 308 767 312 767 c 1,7,-1
 312 727 l 1,8,9
 277 731 277 731 261 731 c 0,10,11
 209 731 209 731 177 701.5 c 128,-1,12
 145 672 145 672 145 614 c 2,13,-1
 145 221 l 1,14,-1
 412 523 l 1,15,-1
 473 523 l 1,16,-1
 288 316 l 1,17,-1
 498 0 l 1,18,-1
 442 0 l 1,19,-1
 258 282 l 1,20,-1
 145 158 l 1,21,-1
 145 0 l 1,22,-1
 98 0 l 1,0,-1
EndSplineSet
EndChar

StartChar: uni019A
Encoding: 410 410 348
Width: 249
GlyphClass: 2
Flags: W
LayerCount: 2
Fore
SplineSet
16 371 m 1,0,-1
 16 409 l 1,1,-1
 101 409 l 1,2,-1
 101 766 l 1,3,-1
 148 766 l 1,4,-1
 148 409 l 1,5,-1
 232 409 l 1,6,-1
 232 371 l 1,7,-1
 148 371 l 1,8,-1
 148 0 l 1,9,-1
 101 0 l 1,10,-1
 101 371 l 1,11,-1
 16 371 l 1,0,-1
EndSplineSet
EndChar

StartChar: uni019B
Encoding: 411 411 349
Width: 475
GlyphClass: 2
Flags: W
LayerCount: 2
Fore
SplineSet
11 0 m 1,0,-1
 216 543 l 1,1,-1
 196 606 l 1,2,-1
 66 514 l 1,3,-1
 44 544 l 1,4,-1
 181 639 l 1,5,6
 142 725 142 725 82 725 c 2,7,-1
 63 725 l 1,8,-1
 63 764 l 1,9,-1
 90 764 l 2,10,11
 163 764 163 764 216 664 c 1,12,-1
 316 736 l 1,13,-1
 340 706 l 1,14,-1
 231 630 l 1,15,-1
 463 0 l 1,16,-1
 410 0 l 1,17,-1
 286 352 l 2,18,19
 261 423 261 423 241 485 c 1,20,-1
 238 485 l 1,21,22
 220 427 220 427 193 354 c 2,23,-1
 65 0 l 1,24,-1
 11 0 l 1,0,-1
EndSplineSet
EndChar

StartChar: uni019C
Encoding: 412 412 350
Width: 961
GlyphClass: 2
Flags: W
LayerCount: 2
Fore
SplineSet
119 197 m 2,0,-1
 119 735 l 1,1,-1
 165 735 l 1,2,-1
 165 200 l 2,3,4
 165 21 165 21 290 21 c 0,5,6
 356 21 356 21 406.5 78 c 128,-1,7
 457 135 457 135 457 221 c 2,8,-1
 457 735 l 1,9,-1
 505 735 l 1,10,-1
 505 200 l 2,11,12
 505 119 505 119 536 70 c 128,-1,13
 567 21 567 21 632 21 c 0,14,15
 702 21 702 21 749 76.5 c 128,-1,16
 796 132 796 132 796 215 c 2,17,-1
 796 735 l 1,18,-1
 843 735 l 1,19,-1
 843 0 l 1,20,-1
 797 0 l 1,21,-1
 797 94 l 1,22,-1
 796 94 l 1,23,24
 777 44 777 44 729 13 c 128,-1,25
 681 -18 681 -18 622 -18 c 0,26,27
 554 -18 554 -18 517 21 c 128,-1,28
 480 60 480 60 470 116 c 1,29,30
 462 75 462 75 411 28.5 c 128,-1,31
 360 -18 360 -18 278 -18 c 0,32,33
 119 -18 119 -18 119 197 c 2,0,-1
EndSplineSet
EndChar

StartChar: uni019D
Encoding: 413 413 351
Width: 749
GlyphClass: 2
Flags: W
LayerCount: 2
Fore
SplineSet
119 735 m 1,0,-1
 175 735 l 1,1,-1
 586 66 l 1,2,-1
 591 66 l 1,3,4
 584 147 584 147 584 253 c 2,5,-1
 584 735 l 1,6,-1
 632 735 l 1,7,-1
 632 0 l 1,8,-1
 575 0 l 1,9,-1
 228 563 l 1,10,-1
 164 669 l 1,11,-1
 160 669 l 1,12,13
 166 576 166 576 166 470 c 2,14,-1
 166 -29 l 2,15,16
 166 -136 166 -136 132 -190 c 128,-1,17
 98 -244 98 -244 18 -244 c 0,18,19
 15 -244 15 -244 -17 -240 c 1,20,-1
 -17 -201 l 1,21,22
 -1 -203 -1 -203 12 -203 c 0,23,24
 77 -203 77 -203 98 -159 c 128,-1,25
 119 -115 119 -115 119 -27 c 2,26,-1
 119 735 l 1,0,-1
EndSplineSet
EndChar

StartChar: uni019E
Encoding: 414 414 352
Width: 584
GlyphClass: 2
Flags: W
LayerCount: 2
Fore
SplineSet
93 0 m 1,0,-1
 93 523 l 1,1,-1
 137 523 l 1,2,-1
 137 419 l 1,3,-1
 139 419 l 1,4,5
 157 467 157 467 206 503.5 c 128,-1,6
 255 540 255 540 321 540 c 0,7,8
 346 540 346 540 367 535.5 c 128,-1,9
 388 531 388 531 411 517.5 c 128,-1,10
 434 504 434 504 450 482.5 c 128,-1,11
 466 461 466 461 476.5 424 c 128,-1,12
 487 387 487 387 487 338 c 2,13,-1
 487 -240 l 1,14,-1
 441 -240 l 1,15,-1
 441 329 l 2,16,17
 441 502 441 502 312 502 c 0,18,19
 245 502 245 502 191.5 447 c 128,-1,20
 138 392 138 392 138 321 c 0,21,22
 138 319 138 319 138 318 c 2,23,-1
 138 0 l 1,24,-1
 93 0 l 1,0,-1
EndSplineSet
EndChar

StartChar: uni019F
Encoding: 415 415 353
Width: 705
GlyphClass: 2
Flags: W
LayerCount: 2
Fore
SplineSet
60 368 m 256,0,1
 60 542 60 542 139.5 648 c 128,-1,2
 219 754 219 754 354 754 c 256,3,4
 489 754 489 754 567.5 647.5 c 128,-1,5
 646 541 646 541 646 367 c 256,6,7
 646 193 646 193 567 87.5 c 128,-1,8
 488 -18 488 -18 354 -18 c 0,9,10
 218 -18 218 -18 139 88 c 128,-1,11
 60 194 60 194 60 368 c 256,0,1
597 348 m 1,12,-1
 109 348 l 1,13,14
 114 200 114 200 178.5 111 c 128,-1,15
 243 22 243 22 354 22 c 0,16,17
 463 22 463 22 528 110.5 c 128,-1,18
 593 199 593 199 597 348 c 1,12,-1
109 386 m 1,19,-1
 597 386 l 1,20,21
 593 536 593 536 528 624.5 c 128,-1,22
 463 713 463 713 354 713 c 256,23,24
 245 713 245 713 179 624.5 c 128,-1,25
 113 536 113 536 109 386 c 1,19,-1
EndSplineSet
EndChar

StartChar: uni01A2
Encoding: 418 418 356
Width: 997
GlyphClass: 2
Flags: W
LayerCount: 2
Fore
SplineSet
60 361 m 0,0,1
 60 545 60 545 144.5 649.5 c 128,-1,2
 229 754 229 754 354 754 c 0,3,4
 412 754 412 754 502.5 734 c 128,-1,5
 593 714 593 714 680 714 c 0,6,7
 737 714 737 714 879 735 c 1,8,-1
 879 0 l 1,9,-1
 832 0 l 1,10,-1
 832 689 l 1,11,12
 746 675 746 675 679 675 c 0,13,14
 597 675 597 675 535 686 c 1,15,-1
 535 49 l 1,16,17
 461 -18 461 -18 354 -18 c 0,18,19
 229 -18 229 -18 144.5 86.5 c 128,-1,20
 60 191 60 191 60 361 c 0,0,1
109 361 m 0,21,22
 109 204 109 204 182 113 c 128,-1,23
 255 22 255 22 354 22 c 0,24,25
 388 22 388 22 418 31 c 128,-1,26
 448 40 448 40 457.5 46 c 128,-1,27
 467 52 467 52 488 66 c 1,28,-1
 488 693 l 1,29,30
 480 695 480 695 462 699.5 c 128,-1,31
 444 704 444 704 434 707 c 128,-1,32
 424 710 424 710 402.5 712 c 128,-1,33
 381 714 381 714 354 714 c 0,34,35
 310 714 310 714 267.5 693 c 128,-1,36
 225 672 225 672 189 631 c 128,-1,37
 153 590 153 590 131 520 c 128,-1,38
 109 450 109 450 109 361 c 0,21,22
EndSplineSet
EndChar

StartChar: uni01A3
Encoding: 419 419 357
Width: 831
GlyphClass: 2
Flags: W
LayerCount: 2
Fore
SplineSet
53 261 m 0,0,1
 53 396 53 396 118 468 c 128,-1,2
 183 540 183 540 288 540 c 0,3,4
 337 540 337 540 420.5 526 c 128,-1,5
 504 512 504 512 581 512 c 0,6,7
 659 512 659 512 740 526 c 1,8,-1
 740 0 l 1,9,-1
 694 0 l 1,10,-1
 694 482 l 1,11,12
 619 473 619 473 580 473 c 0,13,14
 511 473 511 473 472 478 c 1,15,-1
 472 81 l 1,16,17
 409 -18 409 -18 288 -18 c 0,18,19
 188 -18 188 -18 120.5 53.5 c 128,-1,20
 53 125 53 125 53 261 c 0,0,1
100 261 m 0,21,22
 100 153 100 153 151.5 86.5 c 128,-1,23
 203 20 203 20 288 20 c 0,24,25
 376 20 376 20 426 100 c 1,26,-1
 426 484 l 1,27,28
 349 502 349 502 288 502 c 0,29,30
 195 502 195 502 147.5 433.5 c 128,-1,31
 100 365 100 365 100 261 c 0,21,22
EndSplineSet
EndChar

StartChar: uni01A5
Encoding: 421 421 359
Width: 587
GlyphClass: 2
Flags: W
LayerCount: 2
Fore
SplineSet
143 263 m 0,0,1
 143 153 143 153 191.5 86.5 c 128,-1,2
 240 20 240 20 314 20 c 0,3,4
 390 20 390 20 439 85.5 c 128,-1,5
 488 151 488 151 488 262 c 0,6,7
 488 368 488 368 441.5 435 c 128,-1,8
 395 502 395 502 314 502 c 0,9,10
 243 502 243 502 193 435.5 c 128,-1,11
 143 369 143 369 143 263 c 0,0,1
97 -240 m 1,12,-1
 97 618 l 2,13,14
 97 697 97 697 142 733 c 128,-1,15
 187 769 187 769 248 769 c 0,16,17
 266 769 266 769 287.5 767 c 128,-1,18
 309 765 309 765 312 765 c 1,19,-1
 312 726 l 1,20,21
 294 728 294 728 254 728 c 0,22,23
 197 728 197 728 170 693.5 c 128,-1,24
 143 659 143 659 143 612 c 2,25,-1
 143 403 l 1,26,27
 160 460 160 460 207.5 500 c 128,-1,28
 255 540 255 540 319 540 c 0,29,30
 415 540 415 540 474.5 464.5 c 128,-1,31
 534 389 534 389 534 262 c 0,32,33
 534 125 534 125 471 53.5 c 128,-1,34
 408 -18 408 -18 317 -18 c 0,35,36
 252 -18 252 -18 208 20 c 128,-1,37
 164 58 164 58 144 116 c 1,38,-1
 144 -240 l 1,39,-1
 97 -240 l 1,12,-1
EndSplineSet
EndChar

StartChar: uni01A6
Encoding: 422 422 360
Width: 605
GlyphClass: 2
Flags: W
LayerCount: 2
Fore
SplineSet
147 282 m 1,0,-1
 312 282 l 2,1,2
 385 282 385 282 435.5 316.5 c 128,-1,3
 486 351 486 351 486 432 c 0,4,5
 486 496 486 496 445.5 534.5 c 128,-1,6
 405 573 405 573 316 573 c 2,7,-1
 147 573 l 1,8,-1
 147 282 l 1,0,-1
99 0 m 1,9,-1
 99 735 l 1,10,-1
 147 735 l 1,11,-1
 147 613 l 1,12,-1
 330 613 l 2,13,14
 433 613 433 613 483 562.5 c 128,-1,15
 533 512 533 512 533 434 c 0,16,17
 533 284 533 284 366 255 c 1,18,19
 406 239 406 239 427.5 208 c 128,-1,20
 449 177 449 177 467 124 c 0,21,22
 518 -18 518 -18 551 -78 c 1,23,-1
 498 -78 l 1,24,25
 479 -41 479 -41 451.5 32.5 c 128,-1,26
 424 106 424 106 413 134 c 0,27,28
 391 187 391 187 358.5 214.5 c 128,-1,29
 326 242 326 242 271 242 c 2,30,-1
 147 242 l 1,31,-1
 147 0 l 1,32,-1
 99 0 l 1,9,-1
EndSplineSet
EndChar

StartChar: uni01A7
Encoding: 423 423 361
Width: 611
GlyphClass: 2
Flags: W
LayerCount: 2
Fore
SplineSet
53 188 m 0,0,1
 53 224 53 224 67 254 c 128,-1,2
 81 284 81 284 99 303.5 c 128,-1,3
 117 323 117 323 152 341.5 c 128,-1,4
 187 360 187 360 212 369.5 c 128,-1,5
 237 379 237 379 279.5 393.5 c 128,-1,6
 322 408 322 408 344 416 c 128,-1,7
 366 424 366 424 399.5 440.5 c 128,-1,8
 433 457 433 457 450 472.5 c 128,-1,9
 467 488 467 488 480 513.5 c 128,-1,10
 493 539 493 539 493 569 c 0,11,12
 493 635 493 635 444 674 c 128,-1,13
 395 713 395 713 307 713 c 0,14,15
 185 713 185 713 116 615 c 1,16,-1
 74 630 l 1,17,18
 105 682 105 682 165.5 718 c 128,-1,19
 226 754 226 754 304 754 c 0,20,21
 414 754 414 754 478 703.5 c 128,-1,22
 542 653 542 653 542 569 c 0,23,24
 542 537 542 537 533.5 510.5 c 128,-1,25
 525 484 525 484 505 463.5 c 128,-1,26
 485 443 485 443 467 429 c 128,-1,27
 449 415 449 415 415.5 400.5 c 128,-1,28
 382 386 382 386 362.5 378.5 c 128,-1,29
 343 371 343 371 304 359 c 0,30,31
 254 341 254 341 227 330.5 c 128,-1,32
 200 320 200 320 166 299 c 128,-1,33
 132 278 132 278 116.5 250 c 128,-1,34
 101 222 101 222 101 186 c 0,35,36
 101 109 101 109 157 65.5 c 128,-1,37
 213 22 213 22 301 22 c 0,38,39
 367 22 367 22 425 55.5 c 128,-1,40
 483 89 483 89 516 139 c 1,41,-1
 559 120 l 1,42,43
 520 58 520 58 454 20 c 128,-1,44
 388 -18 388 -18 303 -18 c 0,45,46
 186 -18 186 -18 119.5 36.5 c 128,-1,47
 53 91 53 91 53 188 c 0,0,1
EndSplineSet
EndChar

StartChar: uni01A8
Encoding: 424 424 362
Width: 488
GlyphClass: 2
Flags: W
LayerCount: 2
Fore
SplineSet
45 123 m 0,0,1
 45 150 45 150 57 173 c 128,-1,2
 69 196 69 196 86.5 210.5 c 128,-1,3
 104 225 104 225 132.5 239 c 128,-1,4
 161 253 161 253 182.5 260.5 c 128,-1,5
 204 268 204 268 237 277 c 0,6,7
 305 297 305 297 344.5 323.5 c 128,-1,8
 384 350 384 350 384 400 c 0,9,10
 384 445 384 445 345.5 473.5 c 128,-1,11
 307 502 307 502 242 502 c 0,12,13
 192 502 192 502 153 477.5 c 128,-1,14
 114 453 114 453 92 415 c 1,15,-1
 58 435 l 1,16,17
 83 480 83 480 131.5 510 c 128,-1,18
 180 540 180 540 242 540 c 0,19,20
 323 540 323 540 376.5 503.5 c 128,-1,21
 430 467 430 467 430 400 c 0,22,23
 430 366 430 366 416.5 340 c 128,-1,24
 403 314 403 314 375.5 296 c 128,-1,25
 348 278 348 278 324.5 268.5 c 128,-1,26
 301 259 301 259 264 248 c 0,27,28
 169 218 169 218 144 203 c 0,29,30
 91 172 91 172 91 123 c 0,31,32
 91 76 91 76 132 48 c 128,-1,33
 173 20 173 20 242 20 c 0,34,35
 294 20 294 20 337.5 44.5 c 128,-1,36
 381 69 381 69 408 112 c 1,37,-1
 443 92 l 1,38,39
 379 -18 379 -18 242 -18 c 0,40,41
 147 -18 147 -18 96 23 c 128,-1,42
 45 64 45 64 45 123 c 0,0,1
EndSplineSet
EndChar

StartChar: uni01A9
Encoding: 425 425 363
Width: 615
GlyphClass: 2
Flags: W
LayerCount: 2
Fore
SplineSet
95 0 m 1,0,-1
 95 35 l 1,1,-1
 377 368 l 1,2,-1
 95 700 l 1,3,-1
 95 735 l 1,4,-1
 530 735 l 1,5,-1
 530 694 l 1,6,-1
 158 694 l 1,7,-1
 432 368 l 1,8,-1
 158 41 l 1,9,-1
 536 41 l 1,10,-1
 536 0 l 1,11,-1
 95 0 l 1,0,-1
EndSplineSet
EndChar

StartChar: uni01AA
Encoding: 426 426 364
Width: 430
GlyphClass: 2
Flags: W
LayerCount: 2
Fore
SplineSet
8 621 m 0,0,1
 8 579 8 579 37.5 554 c 128,-1,2
 67 529 67 529 110 529 c 0,3,4
 181 529 181 529 227 570 c 1,5,6
 227 594 227 594 222.5 616.5 c 128,-1,7
 218 639 218 639 206.5 662.5 c 128,-1,8
 195 686 195 686 171 700.5 c 128,-1,9
 147 715 147 715 112 715 c 0,10,11
 68 715 68 715 38 689.5 c 128,-1,12
 8 664 8 664 8 621 c 0,0,1
-38 619 m 0,13,14
 -38 682 -38 682 5 718 c 128,-1,15
 48 754 48 754 111 754 c 0,16,17
 192 754 192 754 232.5 702 c 128,-1,18
 273 650 273 650 273 565 c 2,19,-1
 273 -91 l 2,20,21
 273 -147 273 -147 295 -175 c 128,-1,22
 317 -203 317 -203 370 -203 c 0,23,24
 375 -203 375 -203 415 -200 c 1,25,-1
 415 -240 l 1,26,-1
 396 -242 l 2,27,28
 377 -244 377 -244 363 -244 c 0,29,30
 226 -244 226 -244 226 -92 c 2,31,-1
 226 526 l 1,32,33
 182 490 182 490 105 490 c 0,34,35
 45 490 45 490 3.5 526 c 128,-1,36
 -38 562 -38 562 -38 619 c 0,13,14
EndSplineSet
EndChar

StartChar: uni01AB
Encoding: 427 427 365
Width: 374
GlyphClass: 2
Flags: W
LayerCount: 2
Fore
SplineSet
27 483 m 1,0,-1
 27 523 l 1,1,-1
 125 523 l 1,2,-1
 125 699 l 1,3,-1
 172 699 l 1,4,-1
 172 523 l 1,5,-1
 305 523 l 1,6,-1
 305 483 l 1,7,-1
 172 483 l 1,8,-1
 172 144 l 2,9,10
 172 89 172 89 193.5 64.5 c 128,-1,11
 215 40 215 40 264 40 c 0,12,13
 323 40 323 40 344 44 c 1,14,-1
 344 -47 l 2,15,16
 344 -149 344 -149 308.5 -196.5 c 128,-1,17
 273 -244 273 -244 199 -244 c 0,18,19
 178 -244 178 -244 156 -240 c 1,20,-1
 156 -200 l 1,21,22
 190 -203 190 -203 196 -203 c 0,23,24
 251 -203 251 -203 275 -170 c 128,-1,25
 299 -137 299 -137 299 -51 c 2,26,-1
 299 0 l 1,27,28
 291 0 291 0 282 0 c 0,29,30
 264 0 264 0 242 1 c 0,31,32
 182 5 182 5 153.5 37.5 c 128,-1,33
 125 70 125 70 125 137 c 2,34,-1
 125 483 l 1,35,-1
 27 483 l 1,0,-1
EndSplineSet
EndChar

StartChar: uni01AC
Encoding: 428 428 366
Width: 563
GlyphClass: 2
Flags: W
LayerCount: 2
Fore
SplineSet
-11 620 m 0,0,1
 -11 735 -11 735 158 735 c 2,2,-1
 545 735 l 1,3,-1
 545 694 l 1,4,-1
 314 694 l 1,5,-1
 314 0 l 1,6,-1
 266 0 l 1,7,-1
 266 694 l 1,8,-1
 160 694 l 2,9,10
 96 694 96 694 65 676.5 c 128,-1,11
 34 659 34 659 34 617 c 0,12,13
 34 615 34 615 37 590 c 1,14,-1
 -7 590 l 1,15,16
 -11 619 -11 619 -11 620 c 0,0,1
EndSplineSet
EndChar

StartChar: uni01AD
Encoding: 429 429 367
Width: 349
GlyphClass: 2
Flags: W
LayerCount: 2
Fore
SplineSet
27 483 m 1,0,-1
 27 523 l 1,1,-1
 125 523 l 1,2,-1
 125 611 l 2,3,4
 125 682 125 682 166.5 722.5 c 128,-1,5
 208 763 208 763 281 763 c 0,6,7
 296 763 296 763 315 760.5 c 128,-1,8
 334 758 334 758 338 758 c 1,9,-1
 338 719 l 1,10,11
 312 722 312 722 287 722 c 0,12,13
 234 722 234 722 203 693 c 128,-1,14
 172 664 172 664 172 607 c 2,15,-1
 172 523 l 1,16,-1
 305 523 l 1,17,-1
 305 483 l 1,18,-1
 172 483 l 1,19,-1
 172 144 l 2,20,21
 172 89 172 89 193.5 64.5 c 128,-1,22
 215 40 215 40 264 40 c 2,23,-1
 306 40 l 1,24,-1
 306 0 l 1,25,-1
 259 0 l 2,26,27
 125 0 125 0 125 137 c 2,28,-1
 125 483 l 1,29,-1
 27 483 l 1,0,-1
EndSplineSet
EndChar

StartChar: uni01AE
Encoding: 430 430 368
Width: 546
GlyphClass: 2
Flags: W
LayerCount: 2
Fore
SplineSet
19 694 m 1,0,-1
 19 735 l 1,1,-1
 530 735 l 1,2,-1
 530 694 l 1,3,-1
 297 694 l 1,4,-1
 297 -89 l 2,5,6
 297 -150 297 -150 317.5 -176.5 c 128,-1,7
 338 -203 338 -203 391 -203 c 0,8,9
 412 -203 412 -203 438 -199 c 1,10,-1
 438 -240 l 1,11,12
 410 -244 410 -244 385 -244 c 0,13,14
 317 -244 317 -244 283 -208.5 c 128,-1,15
 249 -173 249 -173 249 -88 c 2,16,-1
 249 694 l 1,17,-1
 19 694 l 1,0,-1
EndSplineSet
EndChar

StartChar: uni01B1
Encoding: 433 433 371
Width: 758
GlyphClass: 2
Flags: W
LayerCount: 2
Fore
SplineSet
60 301 m 0,0,1
 60 517 60 517 281 598 c 1,2,-1
 281 694 l 1,3,-1
 65 694 l 1,4,-1
 65 735 l 1,5,-1
 321 735 l 1,6,-1
 321 571 l 1,7,8
 217 540 217 540 163 468.5 c 128,-1,9
 109 397 109 397 109 301 c 0,10,11
 109 178 109 178 184 100.5 c 128,-1,12
 259 23 259 23 380 23 c 256,13,14
 501 23 501 23 575.5 101 c 128,-1,15
 650 179 650 179 650 301 c 0,16,17
 650 396 650 396 596.5 468 c 128,-1,18
 543 540 543 540 439 571 c 1,19,-1
 439 735 l 1,20,-1
 694 735 l 1,21,-1
 694 694 l 1,22,-1
 478 694 l 1,23,-1
 478 598 l 1,24,25
 699 519 699 519 699 301 c 0,26,27
 699 165 699 165 615 73.5 c 128,-1,28
 531 -18 531 -18 380 -18 c 0,29,30
 230 -18 230 -18 145 73 c 128,-1,31
 60 164 60 164 60 301 c 0,0,1
EndSplineSet
EndChar

StartChar: uni01B2
Encoding: 434 434 372
Width: 727
GlyphClass: 2
Flags: W
LayerCount: 2
Fore
SplineSet
119 238 m 2,0,-1
 119 735 l 1,1,-1
 166 735 l 1,2,-1
 166 238 l 2,3,4
 166 22 166 22 363 22 c 0,5,6
 477 22 477 22 547.5 130.5 c 128,-1,7
 618 239 618 239 618 413 c 0,8,9
 618 554 618 554 575.5 633.5 c 128,-1,10
 533 713 533 713 458 713 c 0,11,12
 428 713 428 713 401 707 c 1,13,-1
 401 749 l 1,14,15
 444 754 444 754 465 754 c 0,16,17
 554 754 554 754 610.5 671 c 128,-1,18
 667 588 667 588 667 415 c 0,19,20
 667 223 667 223 586 102.5 c 128,-1,21
 505 -18 505 -18 363 -18 c 0,22,23
 241 -18 241 -18 180 43 c 128,-1,24
 119 104 119 104 119 238 c 2,0,-1
EndSplineSet
EndChar

StartChar: uni01B3
Encoding: 435 435 373
Width: 568
GlyphClass: 2
Flags: W
LayerCount: 2
Fore
SplineSet
-3 735 m 1,0,-1
 54 735 l 1,1,-1
 220 454 l 2,2,3
 248 409 248 409 283 347 c 1,4,-1
 285 347 l 1,5,6
 291 355 291 355 349 454 c 2,7,-1
 483 686 l 2,8,9
 523 754 523 754 596 754 c 0,10,11
 616 754 616 754 632 752 c 1,12,-1
 632 711 l 1,13,14
 601 714 601 714 600 714 c 0,15,16
 554 714 554 714 524 664 c 2,17,-1
 309 303 l 1,18,-1
 309 0 l 1,19,-1
 261 0 l 1,20,-1
 261 303 l 1,21,-1
 -3 735 l 1,0,-1
EndSplineSet
EndChar

StartChar: uni01B4
Encoding: 436 436 374
Width: 475
GlyphClass: 2
Flags: W
LayerCount: 2
Fore
SplineSet
11 523 m 1,0,-1
 65 523 l 1,1,-1
 193 167 l 2,2,3
 211 115 211 115 239 37 c 1,4,-1
 241 37 l 1,5,6
 261 94 261 94 287 169 c 2,7,-1
 392 470 l 2,8,9
 416 538 416 538 494 538 c 0,10,11
 498 538 498 538 532 535 c 1,12,-1
 532 495 l 1,13,14
 518 498 518 498 503 498 c 0,15,16
 477 498 477 498 460 483.5 c 128,-1,17
 443 469 443 469 437 453 c 2,18,-1
 238 -93 l 2,19,20
 209 -171 209 -171 175 -205.5 c 128,-1,21
 141 -240 141 -240 96 -240 c 2,22,-1
 66 -240 l 1,23,-1
 66 -200 l 1,24,-1
 87 -200 l 2,25,26
 160 -200 160 -200 199 -74 c 2,27,-1
 217 -21 l 1,28,-1
 11 523 l 1,0,-1
EndSplineSet
EndChar

StartChar: uni01B5
Encoding: 437 437 375
Width: 620
GlyphClass: 2
Flags: W
LayerCount: 2
Fore
SplineSet
117 346 m 1,0,-1
 117 383 l 1,1,-1
 290 383 l 1,2,-1
 496 694 l 1,3,-1
 92 694 l 1,4,-1
 92 735 l 1,5,-1
 554 735 l 1,6,-1
 554 698 l 1,7,-1
 344 383 l 1,8,-1
 501 383 l 1,9,-1
 501 346 l 1,10,-1
 318 346 l 1,11,-1
 114 41 l 1,12,-1
 565 41 l 1,13,-1
 565 0 l 1,14,-1
 58 0 l 1,15,-1
 58 37 l 1,16,-1
 264 346 l 1,17,-1
 117 346 l 1,0,-1
EndSplineSet
EndChar

StartChar: uni01B6
Encoding: 438 438 376
Width: 475
GlyphClass: 2
Flags: W
LayerCount: 2
Fore
SplineSet
40 0 m 1,0,-1
 40 33 l 1,1,-1
 197 249 l 1,2,-1
 80 249 l 1,3,-1
 80 286 l 1,4,-1
 223 286 l 1,5,-1
 368 483 l 1,6,-1
 66 483 l 1,7,-1
 66 523 l 1,8,-1
 425 523 l 1,9,-1
 425 491 l 1,10,-1
 277 286 l 1,11,-1
 397 286 l 1,12,-1
 397 249 l 1,13,-1
 249 249 l 1,14,-1
 98 39 l 1,15,-1
 436 39 l 1,16,-1
 436 0 l 1,17,-1
 40 0 l 1,0,-1
EndSplineSet
EndChar

StartChar: uni01B7
Encoding: 439 439 377
Width: 686
GlyphClass: 2
Flags: W
LayerCount: 2
Fore
SplineSet
58 -91 m 1,0,-1
 98 -71 l 1,1,2
 126 -127 126 -127 183 -162.5 c 128,-1,3
 240 -198 240 -198 312 -198 c 0,4,5
 439 -198 439 -198 508 -125 c 128,-1,6
 577 -52 577 -52 577 69 c 0,7,8
 577 183 577 183 501 250 c 128,-1,9
 425 317 425 317 270 317 c 2,10,-1
 214 317 l 1,11,-1
 214 360 l 1,12,-1
 506 694 l 1,13,-1
 78 694 l 1,14,-1
 78 735 l 1,15,-1
 577 735 l 1,16,-1
 577 708 l 1,17,-1
 268 356 l 1,18,-1
 293 356 l 1,19,20
 452 352 452 352 538.5 276 c 128,-1,21
 625 200 625 200 625 70 c 0,22,23
 625 -73 625 -73 539.5 -156 c 128,-1,24
 454 -239 454 -239 313 -239 c 0,25,26
 223 -239 223 -239 157 -196.5 c 128,-1,27
 91 -154 91 -154 58 -91 c 1,0,-1
EndSplineSet
EndChar

StartChar: uni01B8
Encoding: 440 440 378
Width: 686
GlyphClass: 2
Flags: W
LayerCount: 2
Fore
SplineSet
62 70 m 0,0,1
 62 200 62 200 151.5 278 c 128,-1,2
 241 356 241 356 393 356 c 2,3,-1
 419 356 l 1,4,-1
 111 708 l 1,5,-1
 111 735 l 1,6,-1
 609 735 l 1,7,-1
 609 694 l 1,8,-1
 181 694 l 1,9,-1
 473 360 l 1,10,-1
 473 317 l 1,11,-1
 417 317 l 2,12,13
 262 317 262 317 186.5 250 c 128,-1,14
 111 183 111 183 111 69 c 0,15,16
 111 -52 111 -52 179.5 -125 c 128,-1,17
 248 -198 248 -198 375 -198 c 0,18,19
 448 -198 448 -198 504.5 -162.5 c 128,-1,20
 561 -127 561 -127 589 -71 c 1,21,-1
 629 -91 l 1,22,23
 596 -154 596 -154 530 -196.5 c 128,-1,24
 464 -239 464 -239 374 -239 c 0,25,26
 233 -239 233 -239 147.5 -156 c 128,-1,27
 62 -73 62 -73 62 70 c 0,0,1
EndSplineSet
EndChar

StartChar: uni01B9
Encoding: 441 441 379
Width: 536
GlyphClass: 2
Flags: W
LayerCount: 2
Fore
SplineSet
58 -11 m 0,0,1
 58 94 58 94 129 153.5 c 128,-1,2
 200 213 200 213 312 213 c 2,3,-1
 349 213 l 1,4,-1
 84 491 l 1,5,-1
 84 523 l 1,6,-1
 463 523 l 1,7,-1
 463 483 l 1,8,-1
 148 483 l 1,9,-1
 406 210 l 1,10,-1
 406 178 l 1,11,-1
 330 178 l 2,12,13
 223 178 223 178 164.5 127 c 128,-1,14
 106 76 106 76 106 -11 c 0,15,16
 106 -95 106 -95 153.5 -149.5 c 128,-1,17
 201 -204 201 -204 283 -204 c 0,18,19
 393 -204 393 -204 451 -104 c 1,20,-1
 489 -119 l 1,21,22
 425 -244 425 -244 282 -244 c 0,23,24
 182 -244 182 -244 120 -179.5 c 128,-1,25
 58 -115 58 -115 58 -11 c 0,0,1
EndSplineSet
EndChar

StartChar: uni01BA
Encoding: 442 442 380
Width: 466
GlyphClass: 2
Flags: W
LayerCount: 2
Fore
SplineSet
58 -106 m 0,0,1
 58 -66 58 -66 86.5 -35.5 c 128,-1,2
 115 -5 115 -5 156.5 14.5 c 128,-1,3
 198 34 198 34 239 53 c 128,-1,4
 280 72 280 72 308.5 100 c 128,-1,5
 337 128 337 128 337 164 c 0,6,7
 337 249 337 249 178 249 c 2,8,-1
 143 249 l 1,9,-1
 143 279 l 1,10,-1
 343 483 l 1,11,-1
 62 483 l 1,12,-1
 62 523 l 1,13,-1
 402 523 l 1,14,-1
 402 491 l 1,15,-1
 194 279 l 1,16,-1
 215 278 l 2,17,18
 301 277 301 277 343 247 c 128,-1,19
 385 217 385 217 385 165 c 0,20,21
 385 123 385 123 356.5 90.5 c 128,-1,22
 328 58 328 58 287 37 c 128,-1,23
 246 16 246 16 204.5 -2.5 c 128,-1,24
 163 -21 163 -21 134.5 -46.5 c 128,-1,25
 106 -72 106 -72 106 -103 c 0,26,27
 106 -140 106 -140 132.5 -161 c 128,-1,28
 159 -182 159 -182 207 -182 c 0,29,30
 241 -182 241 -182 298 -174 c 1,31,-1
 298 -213 l 1,32,33
 251 -221 251 -221 202 -221 c 0,34,35
 136 -221 136 -221 97 -191 c 128,-1,36
 58 -161 58 -161 58 -106 c 0,0,1
EndSplineSet
EndChar

StartChar: uni01BB
Encoding: 443 443 381
Width: 559
GlyphClass: 2
Flags: W
LayerCount: 2
Fore
SplineSet
122 340 m 1,0,-1
 122 379 l 1,1,-1
 348 379 l 1,2,3
 433 468 433 468 433 557 c 0,4,5
 433 633 433 633 389.5 673.5 c 128,-1,6
 346 714 346 714 273 714 c 0,7,8
 210 714 210 714 166.5 675.5 c 128,-1,9
 123 637 123 637 103 569 c 1,10,-1
 60 580 l 1,11,12
 81 659 81 659 136.5 706.5 c 128,-1,13
 192 754 192 754 276 754 c 0,14,15
 368 754 368 754 425 702 c 128,-1,16
 482 650 482 650 482 556 c 0,17,18
 482 466 482 466 406 379 c 1,19,-1
 514 379 l 1,20,-1
 514 340 l 1,21,-1
 372 340 l 1,22,23
 359 327 359 327 329 298.5 c 128,-1,24
 299 270 299 270 287.5 259 c 128,-1,25
 276 248 276 248 252 224.5 c 128,-1,26
 228 201 228 201 218.5 190 c 128,-1,27
 209 179 209 179 191.5 160 c 128,-1,28
 174 141 174 141 166 128.5 c 128,-1,29
 158 116 158 116 147.5 100 c 128,-1,30
 137 84 137 84 130.5 69.5 c 128,-1,31
 124 55 124 55 120 40 c 1,32,-1
 481 40 l 1,33,-1
 481 0 l 1,34,-1
 63 0 l 1,35,36
 63 67 63 67 123 143.5 c 128,-1,37
 183 220 183 220 310 340 c 1,38,-1
 122 340 l 1,0,-1
EndSplineSet
EndChar

StartChar: uni01BC
Encoding: 444 444 382
Width: 540
GlyphClass: 2
Flags: W
LayerCount: 2
Fore
SplineSet
53 104 m 1,0,-1
 92 121 l 1,1,2
 140 21 140 21 257 21 c 0,3,4
 336 21 336 21 382.5 71.5 c 128,-1,5
 429 122 429 122 429 206 c 0,6,7
 429 284 429 284 372.5 340 c 128,-1,8
 316 396 316 396 199 396 c 0,9,10
 156 396 156 396 106 388 c 1,11,-1
 141 694 l 1,12,-1
 87 694 l 1,13,-1
 87 735 l 1,14,-1
 439 735 l 1,15,-1
 439 694 l 1,16,-1
 185 694 l 1,17,-1
 157 433 l 1,18,19
 190 435 190 435 217 435 c 0,20,21
 339 435 339 435 408.5 370 c 128,-1,22
 478 305 478 305 478 206 c 0,23,24
 478 103 478 103 418.5 42.5 c 128,-1,25
 359 -18 359 -18 257 -18 c 0,26,27
 109 -18 109 -18 53 104 c 1,0,-1
EndSplineSet
EndChar

StartChar: uni01BD
Encoding: 445 445 383
Width: 451
GlyphClass: 2
Flags: W
LayerCount: 2
Fore
SplineSet
55 72 m 1,0,-1
 91 92 l 1,1,2
 110 60 110 60 142.5 40 c 128,-1,3
 175 20 175 20 212 20 c 0,4,5
 277 20 277 20 311 54.5 c 128,-1,6
 345 89 345 89 345 142 c 0,7,8
 345 202 345 202 296.5 241 c 128,-1,9
 248 280 248 280 172 280 c 0,10,11
 126 280 126 280 105 277 c 1,12,-1
 137 483 l 1,13,-1
 87 483 l 1,14,-1
 87 523 l 1,15,-1
 366 523 l 1,16,-1
 366 483 l 1,17,-1
 177 483 l 1,18,-1
 152 319 l 1,19,-1
 179 319 l 2,20,21
 275 319 275 319 332.5 268.5 c 128,-1,22
 390 218 390 218 390 143 c 0,23,24
 390 70 390 70 344.5 26 c 128,-1,25
 299 -18 299 -18 212 -18 c 0,26,27
 109 -18 109 -18 55 72 c 1,0,-1
EndSplineSet
EndChar

StartChar: uni01BE
Encoding: 446 446 384
Width: 438
GlyphClass: 2
Flags: W
LayerCount: 2
Fore
SplineSet
50 483 m 1,0,-1
 50 523 l 1,1,-1
 126 523 l 1,2,-1
 126 691 l 1,3,-1
 172 691 l 1,4,-1
 172 523 l 1,5,-1
 314 523 l 1,6,-1
 314 483 l 1,7,-1
 172 483 l 1,8,-1
 172 391 l 2,9,10
 172 354 172 354 192.5 323 c 128,-1,11
 213 292 213 292 242 271 c 128,-1,12
 271 250 271 250 300 229 c 128,-1,13
 329 208 329 208 349.5 179 c 128,-1,14
 370 150 370 150 370 114 c 0,15,16
 370 53 370 53 330.5 17.5 c 128,-1,17
 291 -18 291 -18 210 -18 c 0,18,19
 109 -18 109 -18 52 70 c 1,20,-1
 85 91 l 1,21,22
 138 20 138 20 208 20 c 0,23,24
 324 20 324 20 324 114 c 0,25,26
 324 142 324 142 303.5 166 c 128,-1,27
 283 190 283 190 254 209.5 c 128,-1,28
 225 229 225 229 196 251.5 c 128,-1,29
 167 274 167 274 146.5 308.5 c 128,-1,30
 126 343 126 343 126 384 c 2,31,-1
 126 483 l 1,32,-1
 50 483 l 1,0,-1
EndSplineSet
EndChar

StartChar: uni01BF
Encoding: 447 447 385
Width: 584
GlyphClass: 2
Flags: W
LayerCount: 2
Fore
SplineSet
97 -240 m 1,0,-1
 97 523 l 1,1,-1
 144 523 l 1,2,-1
 144 476 l 1,3,4
 226 540 226 540 317 540 c 0,5,6
 416 540 416 540 473.5 482.5 c 128,-1,7
 531 425 531 425 531 325 c 0,8,9
 531 49 531 49 144 0 c 1,10,-1
 144 -240 l 1,11,-1
 97 -240 l 1,0,-1
144 39 m 1,12,13
 486 87 486 87 486 321 c 0,14,15
 486 410 486 410 436.5 456 c 128,-1,16
 387 502 387 502 311 502 c 0,17,18
 225 502 225 502 144 429 c 1,19,-1
 144 39 l 1,12,13
EndSplineSet
EndChar

StartChar: uni01C0
Encoding: 448 448 386
Width: 216
GlyphClass: 2
Flags: W
LayerCount: 2
Fore
SplineSet
88 -222 m 1,0,-1
 88 822 l 1,1,-1
 132 822 l 1,2,-1
 132 -222 l 1,3,-1
 88 -222 l 1,0,-1
EndSplineSet
EndChar

StartChar: uni01C1
Encoding: 449 449 387
Width: 366
GlyphClass: 2
Flags: W
LayerCount: 2
Fore
SplineSet
88 -222 m 1,0,-1
 88 822 l 1,1,-1
 132 822 l 1,2,-1
 132 -222 l 1,3,-1
 88 -222 l 1,0,-1
237 -222 m 1,4,-1
 237 822 l 1,5,-1
 280 822 l 1,6,-1
 280 -222 l 1,7,-1
 237 -222 l 1,4,-1
EndSplineSet
EndChar

StartChar: uni01C2
Encoding: 450 450 388
Width: 299
GlyphClass: 2
Flags: W
LayerCount: 2
Fore
SplineSet
21 430 m 1,0,-1
 21 465 l 1,1,-1
 129 465 l 1,2,-1
 129 822 l 1,3,-1
 172 822 l 1,4,-1
 172 465 l 1,5,-1
 278 465 l 1,6,-1
 278 430 l 1,7,-1
 172 430 l 1,8,-1
 172 243 l 1,9,-1
 278 243 l 1,10,-1
 278 208 l 1,11,-1
 172 208 l 1,12,-1
 172 -223 l 1,13,-1
 129 -223 l 1,14,-1
 129 208 l 1,15,-1
 21 208 l 1,16,-1
 21 243 l 1,17,-1
 129 243 l 1,18,-1
 129 430 l 1,19,-1
 21 430 l 1,0,-1
EndSplineSet
EndChar

StartChar: uni01DD
Encoding: 477 477 415
Width: 557
GlyphClass: 2
Flags: W
LayerCount: 2
Fore
SplineSet
50 243 m 0,0,1
 50 248 50 248 50.5 259 c 128,-1,2
 51 270 51 270 51 275 c 1,3,-1
 458 275 l 1,4,5
 458 369 458 369 408.5 435.5 c 128,-1,6
 359 502 359 502 271 502 c 0,7,8
 213 502 213 502 169 473 c 128,-1,9
 125 444 125 444 103 403 c 1,10,-1
 64 417 l 1,11,12
 128 540 128 540 272 540 c 0,13,14
 382 540 382 540 443 461 c 128,-1,15
 504 382 504 382 504 258 c 0,16,17
 504 137 504 137 441 59.5 c 128,-1,18
 378 -18 378 -18 275 -18 c 256,19,20
 172 -18 172 -18 111 58 c 128,-1,21
 50 134 50 134 50 243 c 0,0,1
97 239 m 1,22,23
 97 149 97 149 146 84.5 c 128,-1,24
 195 20 195 20 275 20 c 0,25,26
 358 20 358 20 406.5 85 c 128,-1,27
 455 150 455 150 458 239 c 1,28,-1
 97 239 l 1,22,23
EndSplineSet
EndChar

StartChar: uni01E4
Encoding: 484 484 422
Width: 721
GlyphClass: 2
Flags: W
LayerCount: 2
Fore
SplineSet
60 368 m 0,0,1
 60 540 60 540 141 647 c 128,-1,2
 222 754 222 754 371 754 c 0,3,4
 457 754 457 754 515.5 711 c 128,-1,5
 574 668 574 668 602 611 c 1,6,-1
 562 595 l 1,7,8
 495 713 495 713 371 713 c 256,9,10
 247 713 247 713 178 618 c 128,-1,11
 109 523 109 523 109 368 c 0,12,13
 109 210 109 210 178.5 116 c 128,-1,14
 248 22 248 22 369 22 c 0,15,16
 452 22 452 22 505 68 c 128,-1,17
 558 114 558 114 577 190 c 1,18,-1
 372 190 l 1,19,-1
 372 224 l 1,20,-1
 584 224 l 1,21,22
 588 249 588 249 588 278 c 2,23,-1
 588 344 l 1,24,-1
 360 344 l 1,25,-1
 360 384 l 1,26,-1
 634 384 l 1,27,-1
 634 224 l 1,28,-1
 723 224 l 1,29,-1
 723 190 l 1,30,-1
 634 190 l 1,31,-1
 634 0 l 1,32,-1
 596 0 l 1,33,-1
 594 137 l 1,34,35
 572 69 572 69 516.5 25.5 c 128,-1,36
 461 -18 461 -18 369 -18 c 0,37,38
 225 -18 225 -18 142.5 87 c 128,-1,39
 60 192 60 192 60 368 c 0,0,1
EndSplineSet
EndChar

StartChar: uni01E5
Encoding: 485 485 423
Width: 580
GlyphClass: 2
Flags: W
LayerCount: 2
Fore
SplineSet
53 273 m 256,0,1
 53 391 53 391 111 465.5 c 128,-1,2
 169 540 169 540 266 540 c 0,3,4
 333 540 333 540 375.5 501.5 c 128,-1,5
 418 463 418 463 436 412 c 1,6,-1
 436 523 l 1,7,-1
 482 523 l 1,8,-1
 482 51 l 2,9,10
 482 -20 482 -20 474 -62 c 1,11,-1
 557 -62 l 1,12,-1
 557 -94 l 1,13,-1
 467 -94 l 1,14,15
 446 -168 446 -168 400 -206 c 128,-1,16
 354 -244 354 -244 271 -244 c 0,17,18
 214 -244 214 -244 166 -220.5 c 128,-1,19
 118 -197 118 -197 88 -156 c 1,20,-1
 121 -134 l 1,21,22
 182 -205 182 -205 272 -205 c 0,23,24
 383 -205 383 -205 418 -94 c 1,25,-1
 210 -94 l 1,26,-1
 210 -62 l 1,27,-1
 428 -62 l 1,28,29
 436 -24 436 -24 436 46 c 2,30,-1
 436 137 l 1,31,32
 416 82 416 82 373 46 c 128,-1,33
 330 10 330 10 265 10 c 0,34,35
 169 10 169 10 111 82.5 c 128,-1,36
 53 155 53 155 53 273 c 256,0,1
100 272 m 0,37,38
 100 171 100 171 147.5 110.5 c 128,-1,39
 195 50 195 50 267 50 c 0,40,41
 345 50 345 50 390.5 111 c 128,-1,42
 436 172 436 172 436 278 c 0,43,44
 436 377 436 377 389.5 439.5 c 128,-1,45
 343 502 343 502 270 502 c 0,46,47
 192 502 192 502 146 437 c 128,-1,48
 100 372 100 372 100 272 c 0,37,38
EndSplineSet
EndChar

StartChar: uni01EF
Encoding: 495 495 433
Width: 536
GlyphClass: 2
Flags: W
LayerCount: 2
Fore
SplineSet
71 789 m 1,0,-1
 123 789 l 1,1,-1
 253 665 l 1,2,-1
 383 789 l 1,3,-1
 434 789 l 1,4,-1
 275 632 l 1,5,-1
 230 632 l 1,6,-1
 71 789 l 1,0,-1
48 -119 m 1,7,-1
 87 -104 l 1,8,9
 144 -204 144 -204 254 -204 c 0,10,11
 336 -204 336 -204 383.5 -149.5 c 128,-1,12
 431 -95 431 -95 431 -9 c 0,13,14
 431 76 431 76 372.5 127 c 128,-1,15
 314 178 314 178 208 178 c 2,16,-1
 132 178 l 1,17,-1
 132 210 l 1,18,-1
 389 483 l 1,19,-1
 74 483 l 1,20,-1
 74 523 l 1,21,-1
 454 523 l 1,22,-1
 454 491 l 1,23,-1
 190 214 l 1,24,-1
 234 213 l 2,25,26
 345 208 345 208 411.5 149.5 c 128,-1,27
 478 91 478 91 478 -9 c 0,28,29
 478 -115 478 -115 416.5 -179.5 c 128,-1,30
 355 -244 355 -244 255 -244 c 0,31,32
 112 -244 112 -244 48 -119 c 1,7,-1
EndSplineSet
EndChar

StartChar: uni01F6
Encoding: 502 502 440
Width: 1042
GlyphClass: 2
Flags: W
LayerCount: 2
Fore
SplineSet
119 0 m 1,0,-1
 119 735 l 1,1,-1
 166 735 l 1,2,-1
 166 400 l 1,3,-1
 551 400 l 1,4,-1
 551 735 l 1,5,-1
 599 735 l 1,6,-1
 599 181 l 2,7,8
 599 98 599 98 644 59 c 128,-1,9
 689 20 689 20 756 20 c 0,10,11
 821 20 821 20 864 62.5 c 128,-1,12
 907 105 907 105 907 179 c 2,13,-1
 907 523 l 1,14,-1
 955 523 l 1,15,-1
 955 173 l 2,16,17
 955 82 955 82 898.5 32 c 128,-1,18
 842 -18 842 -18 757 -18 c 0,19,20
 668 -18 668 -18 609.5 28 c 128,-1,21
 551 74 551 74 551 173 c 2,22,-1
 551 359 l 1,23,-1
 166 359 l 1,24,-1
 166 0 l 1,25,-1
 119 0 l 1,0,-1
EndSplineSet
EndChar

StartChar: uni01F7
Encoding: 503 503 441
Width: 654
GlyphClass: 2
Flags: W
LayerCount: 2
Fore
SplineSet
119 -234 m 1,0,-1
 119 735 l 1,1,-1
 167 735 l 1,2,-1
 167 646 l 1,3,4
 273 754 273 754 386 754 c 0,5,6
 487 754 487 754 542 684.5 c 128,-1,7
 597 615 597 615 597 495 c 0,8,9
 597 417 597 417 566 345.5 c 128,-1,10
 535 274 535 274 492.5 224 c 128,-1,11
 450 174 450 174 385.5 127.5 c 128,-1,12
 321 81 321 81 273 55 c 128,-1,13
 225 29 225 29 167 2 c 1,14,-1
 167 -234 l 1,15,-1
 119 -234 l 1,0,-1
167 46 m 1,16,17
 217 70 217 70 256.5 92 c 128,-1,18
 296 114 296 114 354.5 158 c 128,-1,19
 413 202 413 202 452 247 c 128,-1,20
 491 292 491 292 520 357.5 c 128,-1,21
 549 423 549 423 549 493 c 0,22,23
 549 591 549 591 505.5 652.5 c 128,-1,24
 462 714 462 714 376 714 c 0,25,26
 320 714 320 714 260 675.5 c 128,-1,27
 200 637 200 637 167 592 c 1,28,-1
 167 46 l 1,16,17
EndSplineSet
EndChar

StartChar: Aringacute
Encoding: 506 506 444
Width: 626
GlyphClass: 2
Flags: W
LayerCount: 2
Fore
SplineSet
1 0 m 1,0,-1
 283 735 l 1,1,-1
 344 735 l 1,2,-1
 627 0 l 1,3,-1
 573 0 l 1,4,-1
 486 232 l 1,5,-1
 141 232 l 1,6,-1
 54 0 l 1,7,-1
 1 0 l 1,0,-1
155 271 m 1,8,-1
 472 271 l 1,9,-1
 359 573 l 2,10,11
 326 662 326 662 316 691 c 1,12,-1
 312 691 l 1,13,14
 308 680 308 680 269 573 c 2,15,-1
 155 271 l 1,8,-1
182 894 m 0,16,17
 182 943 182 943 219 979 c 0,18,19
 247 1007 247 1007 287 1013 c 1,20,-1
 359 1127 l 1,21,-1
 429 1127 l 1,22,-1
 335 1013 l 1,23,24
 374 1007 374 1007 402 980 c 0,25,26
 438 944 438 944 438 894 c 256,27,28
 438 844 438 844 402 808.5 c 128,-1,29
 366 773 366 773 311 773 c 0,30,31
 257 773 257 773 219.5 808.5 c 128,-1,32
 182 844 182 844 182 894 c 0,16,17
220 894 m 0,33,34
 220 856 220 856 245.5 830.5 c 128,-1,35
 271 805 271 805 311 805 c 256,36,37
 351 805 351 805 376 830 c 128,-1,38
 401 855 401 855 401 894 c 0,39,40
 401 931 401 931 376.5 957 c 128,-1,41
 352 983 352 983 311 983 c 256,42,43
 270 983 270 983 245 957 c 128,-1,44
 220 931 220 931 220 894 c 0,33,34
EndSplineSet
EndChar

StartChar: aringacute
Encoding: 507 507 445
Width: 560
GlyphClass: 2
Flags: W
LayerCount: 2
Fore
SplineSet
49 122 m 0,0,1
 49 193 49 193 100.5 237 c 128,-1,2
 152 281 152 281 267 298.5 c 128,-1,3
 382 316 382 316 429 335 c 1,4,-1
 429 363 l 2,5,6
 429 424 429 424 388 463.5 c 128,-1,7
 347 503 347 503 272 503 c 0,8,9
 223 503 223 503 178.5 480 c 128,-1,10
 134 457 134 457 103 417 c 1,11,-1
 71 440 l 1,12,13
 104 484 104 484 157 512 c 128,-1,14
 210 540 210 540 271 540 c 0,15,16
 375 540 375 540 425 488 c 128,-1,17
 475 436 475 436 475 351 c 2,18,-1
 475 0 l 1,19,-1
 430 0 l 1,20,-1
 430 104 l 1,21,22
 412 55 412 55 357 18.5 c 128,-1,23
 302 -18 302 -18 229 -18 c 0,24,25
 146 -18 146 -18 97.5 21.5 c 128,-1,26
 49 61 49 61 49 122 c 0,0,1
96 124 m 0,27,28
 96 82 96 82 132 51 c 128,-1,29
 168 20 168 20 233 20 c 0,30,31
 313 20 313 20 371 71.5 c 128,-1,32
 429 123 429 123 429 204 c 2,33,-1
 429 298 l 1,34,35
 379 280 379 280 268 263 c 0,36,37
 96 235 96 235 96 124 c 0,27,28
142 726 m 0,38,39
 142 775 142 775 179 811 c 0,40,41
 207 839 207 839 247 845 c 1,42,-1
 318 959 l 1,43,-1
 388 959 l 1,44,-1
 294 845 l 1,45,46
 333 839 333 839 362 812 c 0,47,48
 398 776 398 776 398 726 c 256,49,50
 398 676 398 676 361.5 640.5 c 128,-1,51
 325 605 325 605 270 605 c 0,52,53
 216 605 216 605 179 640.5 c 128,-1,54
 142 676 142 676 142 726 c 0,38,39
179 726 m 0,55,56
 179 688 179 688 204.5 662.5 c 128,-1,57
 230 637 230 637 270 637 c 256,58,59
 310 637 310 637 335 662 c 128,-1,60
 360 687 360 687 360 726 c 0,61,62
 360 763 360 763 335.5 789 c 128,-1,63
 311 815 311 815 270 815 c 256,64,65
 229 815 229 815 204 789 c 128,-1,66
 179 763 179 763 179 726 c 0,55,56
EndSplineSet
EndChar

StartChar: uni021C
Encoding: 540 540 478
Width: 579
GlyphClass: 2
Flags: W
LayerCount: 2
Fore
SplineSet
59 -187 m 1,0,1
 123 -197 123 -197 188 -197 c 0,2,3
 315 -197 315 -197 394 -129.5 c 128,-1,4
 473 -62 473 -62 473 54 c 0,5,6
 473 117 473 117 452.5 164 c 128,-1,7
 432 211 432 211 398.5 235 c 128,-1,8
 365 259 365 259 329.5 270 c 128,-1,9
 294 281 294 281 255 281 c 0,10,11
 219 281 219 281 169 262 c 1,12,-1
 169 304 l 1,13,-1
 253 326 l 2,14,15
 350 353 350 353 404.5 411.5 c 128,-1,16
 459 470 459 470 459 544 c 0,17,18
 459 625 459 625 409.5 669 c 128,-1,19
 360 713 360 713 274 713 c 0,20,21
 159 713 159 713 102 602 c 1,22,-1
 61 621 l 1,23,24
 90 678 90 678 143 716 c 128,-1,25
 196 754 196 754 273 754 c 0,26,27
 390 754 390 754 449 696.5 c 128,-1,28
 508 639 508 639 508 547 c 0,29,30
 508 460 508 460 450 397.5 c 128,-1,31
 392 335 392 335 321 311 c 1,32,-1
 321 310 l 1,33,34
 356 304 356 304 388.5 288 c 128,-1,35
 421 272 421 272 452.5 243 c 128,-1,36
 484 214 484 214 503 165 c 128,-1,37
 522 116 522 116 522 54 c 0,38,39
 522 -75 522 -75 431 -157 c 128,-1,40
 340 -239 340 -239 189 -239 c 0,41,42
 123 -239 123 -239 59 -231 c 1,43,-1
 59 -187 l 1,0,1
EndSplineSet
EndChar

StartChar: uni021D
Encoding: 541 541 479
Width: 456
GlyphClass: 2
Flags: W
LayerCount: 2
Fore
SplineSet
59 -197 m 1,0,1
 106 -205 106 -205 149 -205 c 0,2,3
 241 -205 241 -205 295 -152.5 c 128,-1,4
 349 -100 349 -100 349 -7 c 0,5,6
 349 74 349 74 303.5 118 c 128,-1,7
 258 162 258 162 197 162 c 0,8,9
 193 162 193 162 137 151 c 1,10,-1
 137 190 l 1,11,-1
 193 203 l 2,12,13
 262 220 262 220 300.5 266.5 c 128,-1,14
 339 313 339 313 339 371 c 0,15,16
 339 426 339 426 307 464 c 128,-1,17
 275 502 275 502 211 502 c 0,18,19
 177 502 177 502 146 483.5 c 128,-1,20
 115 465 115 465 95 431 c 1,21,-1
 58 450 l 1,22,23
 80 491 80 491 121 515.5 c 128,-1,24
 162 540 162 540 213 540 c 0,25,26
 298 540 298 540 341 491 c 128,-1,27
 384 442 384 442 384 375 c 0,28,29
 384 306 384 306 346.5 258.5 c 128,-1,30
 309 211 309 211 250 188 c 1,31,32
 306 177 306 177 350.5 128.5 c 128,-1,33
 395 80 395 80 395 -6 c 0,34,35
 395 -116 395 -116 329.5 -180 c 128,-1,36
 264 -244 264 -244 150 -244 c 0,37,38
 114 -244 114 -244 59 -237 c 1,39,-1
 59 -197 l 1,0,1
EndSplineSet
EndChar

StartChar: uni0220
Encoding: 544 544 482
Width: 736
GlyphClass: 2
Flags: W
LayerCount: 2
Fore
SplineSet
119 0 m 1,0,-1
 119 735 l 1,1,-1
 165 735 l 1,2,-1
 165 629 l 1,3,-1
 166 629 l 1,4,5
 192 674 192 674 253.5 714 c 128,-1,6
 315 754 315 754 397 754 c 0,7,8
 619 754 619 754 619 505 c 2,9,-1
 619 -240 l 1,10,-1
 571 -240 l 1,11,-1
 571 496 l 2,12,13
 571 609 571 609 527 661 c 128,-1,14
 483 713 483 713 387 713 c 0,15,16
 307 713 307 713 236.5 653 c 128,-1,17
 166 593 166 593 166 516 c 2,18,-1
 166 0 l 1,19,-1
 119 0 l 1,0,-1
EndSplineSet
EndChar

StartChar: uni0221
Encoding: 545 545 483
Width: 771
GlyphClass: 2
Flags: W
LayerCount: 2
Fore
SplineSet
509 -126 m 1,0,1
 520 -158 520 -158 552 -181 c 128,-1,2
 584 -204 584 -204 623 -204 c 0,3,4
 664 -204 664 -204 688.5 -185 c 128,-1,5
 713 -166 713 -166 713 -136 c 0,6,7
 713 -102 713 -102 689 -81 c 128,-1,8
 665 -60 665 -60 625 -60 c 0,9,10
 556 -60 556 -60 509 -126 c 1,0,1
53 262 m 0,11,12
 53 391 53 391 113.5 465.5 c 128,-1,13
 174 540 174 540 270 540 c 0,14,15
 334 540 334 540 380.5 500 c 128,-1,16
 427 460 427 460 444 403 c 1,17,-1
 444 766 l 1,18,-1
 490 766 l 1,19,-1
 490 7 l 2,20,21
 490 -57 490 -57 498 -83 c 1,22,23
 518 -57 518 -57 551.5 -38.5 c 128,-1,24
 585 -20 585 -20 625 -20 c 0,25,26
 689 -20 689 -20 723 -53.5 c 128,-1,27
 757 -87 757 -87 757 -134 c 0,28,29
 757 -182 757 -182 720.5 -213 c 128,-1,30
 684 -244 684 -244 624 -244 c 0,31,32
 533 -244 533 -244 485 -163 c 1,33,34
 474 -180 474 -180 450 -237 c 1,35,-1
 410 -223 l 1,36,37
 435 -161 435 -161 461 -123 c 1,38,39
 445 -89 445 -89 445 0 c 2,40,-1
 445 115 l 1,41,42
 426 59 426 59 379.5 20.5 c 128,-1,43
 333 -18 333 -18 268 -18 c 0,44,45
 181 -18 181 -18 117 52 c 128,-1,46
 53 122 53 122 53 262 c 0,11,12
100 262 m 0,47,48
 100 153 100 153 147.5 86.5 c 128,-1,49
 195 20 195 20 274 20 c 0,50,51
 346 20 346 20 395.5 84.5 c 128,-1,52
 445 149 445 149 445 262 c 0,53,54
 445 373 445 373 394.5 437.5 c 128,-1,55
 344 502 344 502 273 502 c 0,56,57
 196 502 196 502 148 437 c 128,-1,58
 100 372 100 372 100 262 c 0,47,48
EndSplineSet
EndChar

StartChar: uni0222
Encoding: 546 546 484
Width: 674
GlyphClass: 2
Flags: W
LayerCount: 2
Fore
SplineSet
56 231 m 0,0,1
 56 318 56 318 108 381.5 c 128,-1,2
 160 445 160 445 237 470 c 1,3,4
 170 491 170 491 128 543 c 128,-1,5
 86 595 86 595 86 672 c 0,6,7
 86 707 86 707 92 735 c 1,8,-1
 138 735 l 1,9,10
 138 728 138 728 137 715.5 c 128,-1,11
 136 703 136 703 135.5 693 c 128,-1,12
 135 683 135 683 135 674 c 0,13,14
 135 596 135 596 190.5 542 c 128,-1,15
 246 488 246 488 337 488 c 0,16,17
 422 488 422 488 481 540 c 128,-1,18
 540 592 540 592 540 674 c 0,19,20
 540 678 540 678 536 735 c 1,21,-1
 583 735 l 1,22,23
 589 711 589 711 589 672 c 0,24,25
 589 591 589 591 543.5 540 c 128,-1,26
 498 489 498 489 432 470 c 1,27,28
 511 451 511 451 565 384.5 c 128,-1,29
 619 318 619 318 619 231 c 0,30,31
 619 129 619 129 546.5 55.5 c 128,-1,32
 474 -18 474 -18 337 -18 c 0,33,34
 203 -18 203 -18 129.5 55 c 128,-1,35
 56 128 56 128 56 231 c 0,0,1
105 231 m 0,36,37
 105 141 105 141 170 81.5 c 128,-1,38
 235 22 235 22 337 22 c 0,39,40
 437 22 437 22 503.5 80.5 c 128,-1,41
 570 139 570 139 570 231 c 0,42,43
 570 319 570 319 503.5 382.5 c 128,-1,44
 437 446 437 446 337 446 c 0,45,46
 241 446 241 446 173 385 c 128,-1,47
 105 324 105 324 105 231 c 0,36,37
EndSplineSet
EndChar

StartChar: uni0223
Encoding: 547 547 485
Width: 563
GlyphClass: 2
Flags: W
LayerCount: 2
Fore
SplineSet
53 240 m 0,0,1
 53 339 53 339 99.5 406.5 c 128,-1,2
 146 474 146 474 213 488 c 1,3,4
 154 504 154 504 116 554.5 c 128,-1,5
 78 605 78 605 78 687 c 0,6,7
 78 731 78 731 84 754 c 1,8,-1
 127 754 l 1,9,10
 127 750 127 750 125.5 724.5 c 128,-1,11
 124 699 124 699 124 688 c 0,12,13
 124 609 124 609 165.5 558 c 128,-1,14
 207 507 207 507 281 507 c 0,15,16
 351 507 351 507 394.5 556.5 c 128,-1,17
 438 606 438 606 438 688 c 0,18,19
 438 729 438 729 435 754 c 1,20,-1
 480 754 l 1,21,22
 485 734 485 734 485 687 c 0,23,24
 485 607 485 607 447.5 554.5 c 128,-1,25
 410 502 410 502 350 488 c 1,26,27
 417 475 417 475 464 407.5 c 128,-1,28
 511 340 511 340 511 240 c 0,29,30
 511 132 511 132 450.5 57 c 128,-1,31
 390 -18 390 -18 281 -18 c 0,32,33
 174 -18 174 -18 113.5 55 c 128,-1,34
 53 128 53 128 53 240 c 0,0,1
100 240 m 0,35,36
 100 145 100 145 150 82.5 c 128,-1,37
 200 20 200 20 281 20 c 0,38,39
 360 20 360 20 412 80 c 128,-1,40
 464 140 464 140 464 240 c 0,41,42
 464 337 464 337 412.5 402 c 128,-1,43
 361 467 361 467 281 467 c 0,44,45
 207 467 207 467 153.5 405.5 c 128,-1,46
 100 344 100 344 100 240 c 0,35,36
EndSplineSet
EndChar

StartChar: uni0224
Encoding: 548 548 486
Width: 620
GlyphClass: 2
Flags: W
LayerCount: 2
Fore
SplineSet
58 0 m 1,0,-1
 58 37 l 1,1,-1
 496 694 l 1,2,-1
 92 694 l 1,3,-1
 92 735 l 1,4,-1
 554 735 l 1,5,-1
 554 698 l 1,6,-1
 114 41 l 1,7,-1
 455 41 l 2,8,9
 535 41 535 41 573 2.5 c 128,-1,10
 611 -36 611 -36 611 -119 c 0,11,12
 611 -180 611 -180 587 -240 c 1,13,-1
 543 -240 l 1,14,15
 567 -173 567 -173 567 -122 c 0,16,17
 567 -60 567 -60 540 -30 c 128,-1,18
 513 0 513 0 440 0 c 2,19,-1
 58 0 l 1,0,-1
EndSplineSet
EndChar

StartChar: uni0225
Encoding: 549 549 487
Width: 523
GlyphClass: 2
Flags: W
LayerCount: 2
Fore
SplineSet
40 0 m 1,0,-1
 40 33 l 1,1,-1
 368 485 l 1,2,-1
 66 485 l 1,3,-1
 66 525 l 1,4,-1
 425 525 l 1,5,-1
 425 493 l 1,6,-1
 98 39 l 1,7,-1
 396 39 l 2,8,9
 466 39 466 39 498 0.5 c 128,-1,10
 530 -38 530 -38 530 -116 c 0,11,12
 530 -188 530 -188 512 -240 c 1,13,-1
 469 -240 l 1,14,15
 488 -179 488 -179 488 -120 c 0,16,17
 488 -57 488 -57 463 -28.5 c 128,-1,18
 438 0 438 0 382 0 c 2,19,-1
 40 0 l 1,0,-1
EndSplineSet
EndChar

StartChar: uni0234
Encoding: 564 564 502
Width: 421
GlyphClass: 2
Flags: W
LayerCount: 2
Fore
SplineSet
165 -126 m 1,0,1
 175 -158 175 -158 207.5 -181 c 128,-1,2
 240 -204 240 -204 278 -204 c 0,3,4
 319 -204 319 -204 343 -185 c 128,-1,5
 367 -166 367 -166 367 -136 c 0,6,7
 367 -102 367 -102 343 -81 c 128,-1,8
 319 -60 319 -60 279 -60 c 0,9,10
 214 -60 214 -60 165 -126 c 1,0,1
66 -223 m 1,11,12
 97 -150 97 -150 116 -123 c 1,13,14
 99 -82 99 -82 99 3 c 2,15,-1
 99 766 l 1,16,-1
 146 766 l 1,17,-1
 146 8 l 2,18,19
 146 -52 146 -52 155 -83 c 1,20,21
 205 -20 205 -20 280 -20 c 0,22,23
 344 -20 344 -20 379 -54 c 128,-1,24
 414 -88 414 -88 414 -134 c 0,25,26
 414 -182 414 -182 377 -213 c 128,-1,27
 340 -244 340 -244 280 -244 c 0,28,29
 235 -244 235 -244 198.5 -221 c 128,-1,30
 162 -198 162 -198 142 -164 c 1,31,32
 124 -189 124 -189 106 -237 c 1,33,-1
 66 -223 l 1,11,12
EndSplineSet
EndChar

StartChar: uni0235
Encoding: 565 565 503
Width: 765
GlyphClass: 2
Flags: W
LayerCount: 2
Fore
SplineSet
507 -126 m 1,0,1
 517 -158 517 -158 549.5 -181 c 128,-1,2
 582 -204 582 -204 621 -204 c 0,3,4
 662 -204 662 -204 685 -185 c 128,-1,5
 708 -166 708 -166 708 -136 c 0,6,7
 708 -103 708 -103 685.5 -81.5 c 128,-1,8
 663 -60 663 -60 622 -60 c 0,9,10
 556 -60 556 -60 507 -126 c 1,0,1
93 0 m 1,11,-1
 93 523 l 1,12,-1
 137 523 l 1,13,-1
 137 415 l 1,14,-1
 139 415 l 1,15,16
 147 455 147 455 197.5 497.5 c 128,-1,17
 248 540 248 540 321 540 c 0,18,19
 346 540 346 540 367 535.5 c 128,-1,20
 388 531 388 531 411 517.5 c 128,-1,21
 434 504 434 504 450 482.5 c 128,-1,22
 466 461 466 461 476.5 424 c 128,-1,23
 487 387 487 387 487 338 c 2,24,-1
 487 8 l 2,25,26
 487 -54 487 -54 496 -83 c 1,27,28
 546 -20 546 -20 623 -20 c 0,29,30
 685 -20 685 -20 720 -53.5 c 128,-1,31
 755 -87 755 -87 755 -134 c 0,32,33
 755 -182 755 -182 718.5 -213 c 128,-1,34
 682 -244 682 -244 622 -244 c 0,35,36
 577 -244 577 -244 540.5 -221 c 128,-1,37
 504 -198 504 -198 483 -164 c 1,38,39
 467 -188 467 -188 448 -237 c 1,40,-1
 408 -223 l 1,41,42
 429 -165 429 -165 459 -123 c 1,43,44
 441 -83 441 -83 441 5 c 2,45,-1
 441 329 l 2,46,47
 441 502 441 502 312 502 c 0,48,49
 245 502 245 502 191.5 446.5 c 128,-1,50
 138 391 138 391 138 318 c 2,51,-1
 138 0 l 1,52,-1
 93 0 l 1,11,-1
EndSplineSet
EndChar

StartChar: uni0236
Encoding: 566 566 504
Width: 449
GlyphClass: 2
Flags: W
LayerCount: 2
Fore
SplineSet
191 -126 m 1,0,1
 201 -158 201 -158 233.5 -181 c 128,-1,2
 266 -204 266 -204 306 -204 c 0,3,4
 348 -204 348 -204 370.5 -185 c 128,-1,5
 393 -166 393 -166 393 -136 c 0,6,7
 393 -104 393 -104 370 -82 c 128,-1,8
 347 -60 347 -60 306 -60 c 0,9,10
 240 -60 240 -60 191 -126 c 1,0,1
27 483 m 1,11,-1
 27 523 l 1,12,-1
 125 523 l 1,13,-1
 125 699 l 1,14,-1
 172 699 l 1,15,-1
 172 523 l 1,16,-1
 313 523 l 1,17,-1
 313 483 l 1,18,-1
 172 483 l 1,19,-1
 172 7 l 2,20,21
 172 -57 172 -57 180 -83 c 1,22,23
 230 -20 230 -20 307 -20 c 0,24,25
 370 -20 370 -20 405 -54 c 128,-1,26
 440 -88 440 -88 440 -134 c 0,27,28
 440 -182 440 -182 403.5 -213 c 128,-1,29
 367 -244 367 -244 307 -244 c 0,30,31
 262 -244 262 -244 225 -221 c 128,-1,32
 188 -198 188 -198 167 -164 c 1,33,34
 151 -188 151 -188 133 -237 c 1,35,-1
 93 -223 l 1,36,37
 122 -148 122 -148 143 -123 c 1,38,39
 125 -81 125 -81 125 5 c 2,40,-1
 125 483 l 1,41,-1
 27 483 l 1,11,-1
EndSplineSet
EndChar

StartChar: uni0237
Encoding: 567 567 505
Width: 278
GlyphClass: 2
Flags: W
LayerCount: 2
Fore
SplineSet
-7 -200 m 1,0,-1
 19 -200 l 2,1,2
 118 -200 118 -200 118 -67 c 2,3,-1
 118 523 l 1,4,-1
 164 523 l 1,5,-1
 164 -71 l 2,6,7
 164 -153 164 -153 128.5 -196.5 c 128,-1,8
 93 -240 93 -240 28 -240 c 2,9,-1
 -7 -240 l 1,10,-1
 -7 -200 l 1,0,-1
EndSplineSet
EndChar

StartChar: uni0238
Encoding: 568 568 506
Width: 934
GlyphClass: 2
Flags: W
LayerCount: 2
Fore
SplineSet
53 262 m 0,0,1
 53 392 53 392 114 466 c 128,-1,2
 175 540 175 540 270 540 c 0,3,4
 334 540 334 540 380.5 500 c 128,-1,5
 427 460 427 460 444 403 c 1,6,-1
 444 766 l 1,7,-1
 490 766 l 1,8,-1
 490 401 l 1,9,10
 504 453 504 453 550.5 496.5 c 128,-1,11
 597 540 597 540 665 540 c 0,12,13
 761 540 761 540 821 465.5 c 128,-1,14
 881 391 881 391 881 262 c 0,15,16
 881 122 881 122 816 52 c 128,-1,17
 751 -18 751 -18 664 -18 c 0,18,19
 600 -18 600 -18 554.5 20.5 c 128,-1,20
 509 59 509 59 489 114 c 1,21,-1
 489 0 l 1,22,-1
 445 0 l 1,23,-1
 445 115 l 1,24,25
 426 58 426 58 379 20 c 128,-1,26
 332 -18 332 -18 268 -18 c 0,27,28
 182 -18 182 -18 117.5 51.5 c 128,-1,29
 53 121 53 121 53 262 c 0,0,1
100 262 m 0,30,31
 100 152 100 152 147.5 86 c 128,-1,32
 195 20 195 20 274 20 c 0,33,34
 345 20 345 20 393 81 c 128,-1,35
 441 142 441 142 445 245 c 1,36,-1
 445 279 l 1,37,38
 441 380 441 380 391 441 c 128,-1,39
 341 502 341 502 273 502 c 0,40,41
 197 502 197 502 148.5 437.5 c 128,-1,42
 100 373 100 373 100 262 c 0,30,31
489 243 m 1,43,44
 493 142 493 142 541 81 c 128,-1,45
 589 20 589 20 659 20 c 0,46,47
 737 20 737 20 785.5 85.5 c 128,-1,48
 834 151 834 151 834 262 c 0,49,50
 834 372 834 372 785.5 437 c 128,-1,51
 737 502 737 502 660 502 c 0,52,53
 591 502 591 502 542 440.5 c 128,-1,54
 493 379 493 379 489 278 c 1,55,-1
 489 243 l 1,43,44
EndSplineSet
EndChar

StartChar: uni0239
Encoding: 569 569 507
Width: 935
GlyphClass: 2
Flags: W
LayerCount: 2
Fore
SplineSet
53 262 m 0,0,1
 53 388 53 388 112.5 464 c 128,-1,2
 172 540 172 540 269 540 c 0,3,4
 329 540 329 540 375.5 504.5 c 128,-1,5
 422 469 422 469 445 405 c 1,6,-1
 445 523 l 1,7,-1
 490 523 l 1,8,-1
 490 404 l 1,9,10
 512 465 512 465 559.5 502.5 c 128,-1,11
 607 540 607 540 668 540 c 0,12,13
 765 540 765 540 823.5 464.5 c 128,-1,14
 882 389 882 389 882 262 c 0,15,16
 882 127 882 127 819.5 54.5 c 128,-1,17
 757 -18 757 -18 666 -18 c 0,18,19
 602 -18 602 -18 556.5 20 c 128,-1,20
 511 58 511 58 490 117 c 1,21,-1
 490 -240 l 1,22,-1
 444 -240 l 1,23,-1
 444 116 l 1,24,25
 423 57 423 57 378 19.5 c 128,-1,26
 333 -18 333 -18 270 -18 c 0,27,28
 177 -18 177 -18 115 55 c 128,-1,29
 53 128 53 128 53 262 c 0,0,1
100 262 m 0,30,31
 100 152 100 152 148.5 86 c 128,-1,32
 197 20 197 20 273 20 c 0,33,34
 347 20 347 20 393.5 83 c 128,-1,35
 440 146 440 146 444 248 c 1,36,-1
 444 280 l 1,37,38
 440 378 440 378 392.5 440 c 128,-1,39
 345 502 345 502 273 502 c 0,40,41
 191 502 191 502 145.5 434.5 c 128,-1,42
 100 367 100 367 100 262 c 0,30,31
490 249 m 1,43,44
 494 145 494 145 541.5 82.5 c 128,-1,45
 589 20 589 20 663 20 c 0,46,47
 739 20 739 20 787 85 c 128,-1,48
 835 150 835 150 835 262 c 0,49,50
 835 367 835 367 790 434.5 c 128,-1,51
 745 502 745 502 663 502 c 0,52,53
 593 502 593 502 543.5 440.5 c 128,-1,54
 494 379 494 379 490 281 c 1,55,-1
 490 249 l 1,43,44
EndSplineSet
EndChar

StartChar: uni023A
Encoding: 570 570 508
Width: 626
GlyphClass: 2
Flags: W
LayerCount: 2
Fore
SplineSet
155 271 m 1,0,-1
 237 271 l 1,1,-1
 383 508 l 1,2,-1
 359 573 l 2,3,4
 353 590 353 590 337.5 632 c 128,-1,5
 322 674 322 674 316 691 c 1,6,-1
 312 691 l 1,7,8
 274 586 274 586 269 573 c 2,9,-1
 155 271 l 1,0,-1
279 271 m 1,10,-1
 472 271 l 1,11,-1
 399 466 l 1,12,-1
 279 271 l 1,10,-1
1 0 m 1,13,-1
 283 735 l 1,14,-1
 345 735 l 1,15,-1
 413 557 l 1,16,-1
 543 766 l 1,17,-1
 585 766 l 1,18,-1
 429 515 l 1,19,-1
 627 0 l 1,20,-1
 573 0 l 1,21,-1
 486 232 l 1,22,-1
 254 232 l 1,23,-1
 57 -87 l 1,24,-1
 15 -87 l 1,25,-1
 212 232 l 1,26,-1
 141 232 l 1,27,-1
 54 0 l 1,28,-1
 1 0 l 1,13,-1
EndSplineSet
EndChar

StartChar: uni023B
Encoding: 571 571 509
Width: 633
GlyphClass: 2
Flags: W
LayerCount: 2
Fore
SplineSet
60 368 m 0,0,1
 60 549 60 549 143.5 651.5 c 128,-1,2
 227 754 227 754 363 754 c 0,3,4
 421 754 421 754 473 727 c 1,5,-1
 501 797 l 1,6,-1
 538 797 l 1,7,-1
 505 707 l 1,8,9
 559 667 559 667 585 605 c 1,10,-1
 544 588 l 1,11,12
 522 635 522 635 488 664 c 1,13,-1
 259 48 l 1,14,15
 310 22 310 22 363 22 c 0,16,17
 433 22 433 22 484 60.5 c 128,-1,18
 535 99 535 99 562 155 c 1,19,-1
 605 141 l 1,20,21
 528 -18 528 -18 363 -18 c 0,22,23
 298 -18 298 -18 244 7 c 1,24,-1
 210 -77 l 1,25,-1
 172 -77 l 1,26,-1
 211 23 l 1,27,28
 141 68 141 68 100.5 157 c 128,-1,29
 60 246 60 246 60 368 c 0,0,1
227 66 m 1,30,-1
 458 687 l 1,31,32
 418 713 418 713 363 713 c 0,33,34
 248 713 248 713 178.5 619 c 128,-1,35
 109 525 109 525 109 368 c 0,36,37
 109 263 109 263 140 185 c 128,-1,38
 171 107 171 107 227 66 c 1,30,-1
EndSplineSet
EndChar

StartChar: uni023C
Encoding: 572 572 510
Width: 503
GlyphClass: 2
Flags: W
LayerCount: 2
Fore
SplineSet
53 262 m 0,0,1
 53 382 53 382 113 461 c 128,-1,2
 173 540 173 540 281 540 c 0,3,4
 329 540 329 540 365 522 c 1,5,-1
 391 596 l 1,6,-1
 427 596 l 1,7,-1
 396 504 l 1,8,9
 438 473 438 473 459 419 c 1,10,-1
 419 406 l 1,11,12
 407 434 407 434 380 461 c 1,13,-1
 232 28 l 1,14,15
 254 20 254 20 280 20 c 0,16,17
 331 20 331 20 371.5 51 c 128,-1,18
 412 82 412 82 433 122 c 1,19,-1
 472 108 l 1,20,21
 449 56 449 56 398.5 19 c 128,-1,22
 348 -18 348 -18 280 -18 c 0,23,24
 247 -18 247 -18 219 -11 c 1,25,-1
 199 -72 l 1,26,-1
 162 -72 l 1,27,-1
 188 1 l 1,28,29
 124 31 124 31 88.5 100 c 128,-1,30
 53 169 53 169 53 262 c 0,0,1
202 43 m 1,31,-1
 352 483 l 1,32,33
 322 502 322 502 280 502 c 0,34,35
 199 502 199 502 149.5 434.5 c 128,-1,36
 100 367 100 367 100 262 c 0,37,38
 100 185 100 185 127 126.5 c 128,-1,39
 154 68 154 68 202 43 c 1,31,-1
EndSplineSet
EndChar

StartChar: uni023D
Encoding: 573 573 511
Width: 538
GlyphClass: 2
Flags: W
LayerCount: 2
Fore
SplineSet
23 401 m 1,0,-1
 23 439 l 1,1,-1
 119 439 l 1,2,-1
 119 735 l 1,3,-1
 166 735 l 1,4,-1
 166 439 l 1,5,-1
 382 439 l 1,6,-1
 382 401 l 1,7,-1
 166 401 l 1,8,-1
 166 41 l 1,9,-1
 528 41 l 1,10,-1
 528 0 l 1,11,-1
 119 0 l 1,12,-1
 119 401 l 1,13,-1
 23 401 l 1,0,-1
EndSplineSet
EndChar

StartChar: uni023E
Encoding: 574 574 512
Width: 546
GlyphClass: 2
Flags: W
LayerCount: 2
Fore
SplineSet
298 694 m 1,0,-1
 298 434 l 1,1,-1
 441 694 l 1,2,-1
 298 694 l 1,0,-1
18 694 m 1,3,-1
 18 735 l 1,4,-1
 463 735 l 1,5,-1
 497 797 l 1,6,-1
 536 797 l 1,7,-1
 502 735 l 1,8,-1
 530 735 l 1,9,-1
 530 694 l 1,10,-1
 480 694 l 1,11,-1
 298 363 l 1,12,-1
 298 0 l 1,13,-1
 250 0 l 1,14,-1
 250 275 l 1,15,-1
 81 -33 l 1,16,-1
 42 -33 l 1,17,-1
 250 346 l 1,18,-1
 250 694 l 1,19,-1
 18 694 l 1,3,-1
EndSplineSet
EndChar

StartChar: uni023F
Encoding: 575 575 513
Width: 488
GlyphClass: 2
Flags: W
LayerCount: 2
Fore
SplineSet
45 92 m 1,0,-1
 81 112 l 1,1,2
 140 20 140 20 248 20 c 0,3,4
 316 20 316 20 357 48.5 c 128,-1,5
 398 77 398 77 398 123 c 0,6,7
 398 149 398 149 385 169 c 128,-1,8
 372 189 372 189 346.5 202 c 128,-1,9
 321 215 321 215 297.5 223.5 c 128,-1,10
 274 232 274 232 239 244 c 0,11,12
 229 247 229 247 224 248 c 0,13,14
 188 259 188 259 163 269.5 c 128,-1,15
 138 280 138 280 111.5 297.5 c 128,-1,16
 85 315 85 315 71.5 340.5 c 128,-1,17
 58 366 58 366 58 400 c 0,18,19
 58 466 58 466 111 503 c 128,-1,20
 164 540 164 540 247 540 c 0,21,22
 308 540 308 540 357 510.5 c 128,-1,23
 406 481 406 481 431 435 c 1,24,-1
 399 415 l 1,25,26
 376 455 376 455 336.5 478.5 c 128,-1,27
 297 502 297 502 248 502 c 0,28,29
 181 502 181 502 143 473.5 c 128,-1,30
 105 445 105 445 105 400 c 0,31,32
 105 350 105 350 145 323 c 128,-1,33
 185 296 185 296 252 277 c 0,34,35
 293 266 293 266 321 255.5 c 128,-1,36
 349 245 349 245 380 227 c 128,-1,37
 411 209 411 209 427 183 c 128,-1,38
 443 157 443 157 443 123 c 0,39,40
 443 63 443 63 393 22.5 c 128,-1,41
 343 -18 343 -18 248 -18 c 0,42,43
 179 -18 179 -18 125 12 c 1,44,45
 156 -104 156 -104 175 -141 c 0,46,47
 212 -209 212 -209 282 -209 c 0,48,49
 306 -209 306 -209 323 -206 c 1,50,-1
 323 -241 l 1,51,52
 290 -244 290 -244 282 -244 c 0,53,54
 246 -244 246 -244 217 -229.5 c 128,-1,55
 188 -215 188 -215 171.5 -200 c 128,-1,56
 155 -185 155 -185 137.5 -144.5 c 128,-1,57
 120 -104 120 -104 114 -84.5 c 128,-1,58
 108 -65 108 -65 94 -11 c 0,59,60
 91 -2 91 -2 90 3 c 0,61,62
 76 50 76 50 45 92 c 1,0,-1
EndSplineSet
EndChar

StartChar: uni0240
Encoding: 576 576 514
Width: 475
GlyphClass: 2
Flags: W
LayerCount: 2
Fore
SplineSet
40 0 m 1,0,-1
 40 33 l 1,1,-1
 368 483 l 1,2,-1
 66 483 l 1,3,-1
 66 523 l 1,4,-1
 425 523 l 1,5,-1
 425 491 l 1,6,-1
 94 34 l 1,7,8
 130 32 130 32 162.5 13.5 c 128,-1,9
 195 -5 195 -5 216.5 -31 c 128,-1,10
 238 -57 238 -57 260.5 -87.5 c 128,-1,11
 283 -118 283 -118 301.5 -143.5 c 128,-1,12
 320 -169 320 -169 345 -186.5 c 128,-1,13
 370 -204 370 -204 398 -204 c 0,14,15
 428 -204 428 -204 438 -202 c 1,16,-1
 438 -240 l 1,17,18
 422 -244 422 -244 395 -244 c 0,19,20
 356 -244 356 -244 322 -219 c 128,-1,21
 288 -194 288 -194 262.5 -158.5 c 128,-1,22
 237 -123 237 -123 211 -87.5 c 128,-1,23
 185 -52 185 -52 150.5 -26.5 c 128,-1,24
 116 -1 116 -1 76 0 c 2,25,-1
 40 0 l 1,0,-1
EndSplineSet
EndChar

StartChar: uni0241
Encoding: 577 577 515
Width: 550
GlyphClass: 2
Flags: W
LayerCount: 2
Fore
SplineSet
70 607 m 1,0,1
 98 677 98 677 153 715.5 c 128,-1,2
 208 754 208 754 275 754 c 0,3,4
 365 754 365 754 417.5 701 c 128,-1,5
 470 648 470 648 470 561 c 0,6,7
 470 515 470 515 451 478 c 128,-1,8
 432 441 432 441 405.5 415.5 c 128,-1,9
 379 390 379 390 352 364 c 128,-1,10
 325 338 325 338 306 301.5 c 128,-1,11
 287 265 287 265 287 219 c 2,12,-1
 287 0 l 1,13,-1
 240 0 l 1,14,-1
 240 222 l 2,15,16
 240 272 240 272 258.5 311.5 c 128,-1,17
 277 351 277 351 303.5 377 c 128,-1,18
 330 403 330 403 357 428 c 128,-1,19
 384 453 384 453 403 486.5 c 128,-1,20
 422 520 422 520 422 561 c 0,21,22
 422 630 422 630 383.5 672 c 128,-1,23
 345 714 345 714 276 714 c 0,24,25
 219 714 219 714 177.5 679.5 c 128,-1,26
 136 645 136 645 112 592 c 1,27,-1
 70 607 l 1,0,1
EndSplineSet
EndChar

StartChar: uni0250
Encoding: 592 592 516
Width: 559
GlyphClass: 2
Flags: W
LayerCount: 2
Fore
SplineSet
130 225 m 1,0,1
 181 244 181 244 293 260 c 0,2,3
 382 274 382 274 423.5 308.5 c 128,-1,4
 465 343 465 343 465 398 c 0,5,6
 465 440 465 440 428.5 471 c 128,-1,7
 392 502 392 502 326 502 c 0,8,9
 247 502 247 502 188.5 451 c 128,-1,10
 130 400 130 400 130 319 c 2,11,-1
 130 225 l 1,0,1
85 172 m 2,12,-1
 85 523 l 1,13,-1
 129 523 l 1,14,-1
 129 419 l 1,15,16
 148 468 148 468 203.5 504 c 128,-1,17
 259 540 259 540 331 540 c 0,18,19
 414 540 414 540 462.5 501.5 c 128,-1,20
 511 463 511 463 511 400 c 0,21,22
 511 329 511 329 459.5 285 c 128,-1,23
 408 241 408 241 293 223 c 0,24,25
 174 205 174 205 130 188 c 1,26,-1
 130 158 l 2,27,28
 130 97 130 97 172 58 c 128,-1,29
 214 19 214 19 288 19 c 0,30,31
 390 19 390 19 457 106 c 1,32,-1
 489 83 l 1,33,34
 457 39 457 39 403.5 10.5 c 128,-1,35
 350 -18 350 -18 290 -18 c 0,36,37
 189 -18 189 -18 137 33.5 c 128,-1,38
 85 85 85 85 85 172 c 2,12,-1
EndSplineSet
EndChar

StartChar: uni0251
Encoding: 593 593 517
Width: 581
GlyphClass: 2
Flags: W
LayerCount: 2
Fore
SplineSet
100 262 m 0,0,1
 100 151 100 151 149 85.5 c 128,-1,2
 198 20 198 20 274 20 c 0,3,4
 344 20 344 20 395 84 c 128,-1,5
 446 148 446 148 446 260 c 0,6,7
 446 371 446 371 395 436.5 c 128,-1,8
 344 502 344 502 273 502 c 0,9,10
 196 502 196 502 148 437 c 128,-1,11
 100 372 100 372 100 262 c 0,0,1
53 262 m 0,12,13
 53 390 53 390 113 465 c 128,-1,14
 173 540 173 540 269 540 c 0,15,16
 335 540 335 540 383 496 c 128,-1,17
 431 452 431 452 443 404 c 1,18,-1
 443 523 l 1,19,-1
 488 523 l 1,20,-1
 488 0 l 1,21,-1
 444 0 l 1,22,-1
 444 112 l 1,23,24
 424 57 424 57 378 19.5 c 128,-1,25
 332 -18 332 -18 270 -18 c 0,26,27
 182 -18 182 -18 117.5 52.5 c 128,-1,28
 53 123 53 123 53 262 c 0,12,13
EndSplineSet
EndChar

StartChar: uni0252
Encoding: 594 594 518
Width: 582
GlyphClass: 2
Flags: W
LayerCount: 2
Fore
SplineSet
93 0 m 1,0,-1
 93 523 l 1,1,-1
 138 523 l 1,2,-1
 138 403 l 1,3,4
 150 451 150 451 198 495.5 c 128,-1,5
 246 540 246 540 313 540 c 0,6,7
 411 540 411 540 470 465 c 128,-1,8
 529 390 529 390 529 262 c 0,9,10
 529 122 529 122 465 52 c 128,-1,11
 401 -18 401 -18 313 -18 c 0,12,13
 250 -18 250 -18 204 19.5 c 128,-1,14
 158 57 158 57 138 112 c 1,15,-1
 138 0 l 1,16,-1
 93 0 l 1,0,-1
136 260 m 0,17,18
 136 151 136 151 186.5 85.5 c 128,-1,19
 237 20 237 20 308 20 c 0,20,21
 385 20 385 20 433.5 85.5 c 128,-1,22
 482 151 482 151 482 262 c 0,23,24
 482 372 482 372 434 437 c 128,-1,25
 386 502 386 502 309 502 c 0,26,27
 239 502 239 502 187.5 436.5 c 128,-1,28
 136 371 136 371 136 260 c 0,17,18
EndSplineSet
EndChar

StartChar: uni0253
Encoding: 595 595 519
Width: 585
GlyphClass: 2
Flags: W
LayerCount: 2
Fore
SplineSet
141 261 m 0,0,1
 141 150 141 150 190 85 c 128,-1,2
 239 20 239 20 311 20 c 0,3,4
 389 20 389 20 438 86 c 128,-1,5
 487 152 487 152 487 262 c 0,6,7
 487 371 487 371 439 436.5 c 128,-1,8
 391 502 391 502 313 502 c 0,9,10
 242 502 242 502 191.5 436.5 c 128,-1,11
 141 371 141 371 141 261 c 0,0,1
96 0 m 1,12,-1
 96 521 l 2,13,14
 96 639 96 639 143.5 705 c 128,-1,15
 191 771 191 771 286 771 c 0,16,17
 349 771 349 771 410 752 c 1,18,-1
 405 714 l 1,19,20
 335 731 335 731 291 731 c 0,21,22
 143 731 143 731 143 515 c 2,23,-1
 143 401 l 1,24,25
 158 456 158 456 204 498 c 128,-1,26
 250 540 250 540 317 540 c 0,27,28
 416 540 416 540 474 464.5 c 128,-1,29
 532 389 532 389 532 262 c 0,30,31
 532 126 532 126 470 54 c 128,-1,32
 408 -18 408 -18 316 -18 c 0,33,34
 251 -18 251 -18 206.5 21 c 128,-1,35
 162 60 162 60 143 114 c 1,36,-1
 143 0 l 1,37,-1
 96 0 l 1,12,-1
EndSplineSet
EndChar

StartChar: uni0254
Encoding: 596 596 520
Width: 503
GlyphClass: 2
Flags: W
LayerCount: 2
Fore
SplineSet
31 108 m 1,0,-1
 69 122 l 1,1,2
 90 81 90 81 131 50.5 c 128,-1,3
 172 20 172 20 222 20 c 0,4,5
 301 20 301 20 352 86.5 c 128,-1,6
 403 153 403 153 403 261 c 0,7,8
 403 366 403 366 353 434 c 128,-1,9
 303 502 303 502 222 502 c 0,10,11
 175 502 175 502 138.5 475 c 128,-1,12
 102 448 102 448 85 406 c 1,13,-1
 45 419 l 1,14,15
 63 471 63 471 111 505.5 c 128,-1,16
 159 540 159 540 223 540 c 0,17,18
 329 540 329 540 389.5 461.5 c 128,-1,19
 450 383 450 383 450 261 c 0,20,21
 450 134 450 134 387 58 c 128,-1,22
 324 -18 324 -18 223 -18 c 0,23,24
 157 -18 157 -18 105.5 18.5 c 128,-1,25
 54 55 54 55 31 108 c 1,0,-1
EndSplineSet
EndChar

StartChar: uni0255
Encoding: 597 597 521
Width: 503
GlyphClass: 2
Flags: W
LayerCount: 2
Fore
SplineSet
220 35 m 1,0,1
 256 20 256 20 312 20 c 0,2,3
 359 20 359 20 390 39 c 128,-1,4
 421 58 421 58 421 87 c 0,5,6
 421 110 421 110 403.5 125 c 128,-1,7
 386 140 386 140 354 140 c 0,8,9
 308 140 308 140 272.5 107.5 c 128,-1,10
 237 75 237 75 220 35 c 1,0,1
53 263 m 0,11,12
 53 382 53 382 112.5 461 c 128,-1,13
 172 540 172 540 281 540 c 0,14,15
 346 540 346 540 392.5 504.5 c 128,-1,16
 439 469 439 469 458 419 c 1,17,-1
 418 406 l 1,18,19
 403 444 403 444 366 473 c 128,-1,20
 329 502 329 502 281 502 c 0,21,22
 198 502 198 502 149 435 c 128,-1,23
 100 368 100 368 100 262 c 0,24,25
 100 123 100 123 183 57 c 1,26,27
 209 109 209 109 252.5 143.5 c 128,-1,28
 296 178 296 178 355 178 c 0,29,30
 408 178 408 178 437.5 151 c 128,-1,31
 467 124 467 124 467 87 c 0,32,33
 467 41 467 41 423 11.5 c 128,-1,34
 379 -18 379 -18 309 -18 c 256,35,36
 239 -18 239 -18 204 -3 c 1,37,38
 197 -19 197 -19 185 -65 c 1,39,-1
 143 -55 l 1,40,41
 148 -23 148 -23 165 15 c 1,42,43
 53 88 53 88 53 263 c 0,11,12
EndSplineSet
EndChar

StartChar: uni0256
Encoding: 598 598 522
Width: 587
GlyphClass: 2
Flags: W
LayerCount: 2
Fore
SplineSet
53 262 m 0,0,1
 53 392 53 392 114 466 c 128,-1,2
 175 540 175 540 270 540 c 0,3,4
 334 540 334 540 380.5 500 c 128,-1,5
 427 460 427 460 444 403 c 1,6,-1
 444 766 l 1,7,-1
 490 766 l 1,8,-1
 490 -41 l 2,9,10
 490 -129 490 -129 515 -166.5 c 128,-1,11
 540 -204 540 -204 591 -204 c 0,12,13
 616 -204 616 -204 651 -199 c 1,14,-1
 651 -239 l 1,15,16
 621 -244 621 -244 586 -244 c 0,17,18
 518 -244 518 -244 481.5 -200 c 128,-1,19
 445 -156 445 -156 445 -44 c 2,20,-1
 445 115 l 1,21,22
 426 58 426 58 379 20 c 128,-1,23
 332 -18 332 -18 268 -18 c 0,24,25
 181 -18 181 -18 117 52 c 128,-1,26
 53 122 53 122 53 262 c 0,0,1
100 262 m 0,27,28
 100 153 100 153 147.5 86.5 c 128,-1,29
 195 20 195 20 274 20 c 0,30,31
 346 20 346 20 395.5 85 c 128,-1,32
 445 150 445 150 445 262 c 0,33,34
 445 373 445 373 394.5 437.5 c 128,-1,35
 344 502 344 502 273 502 c 0,36,37
 198 502 198 502 149 437 c 128,-1,38
 100 372 100 372 100 262 c 0,27,28
EndSplineSet
EndChar

StartChar: uni0257
Encoding: 599 599 523
Width: 587
GlyphClass: 2
Flags: W
LayerCount: 2
Fore
SplineSet
53 262 m 0,0,1
 53 392 53 392 114 466 c 128,-1,2
 175 540 175 540 270 540 c 0,3,4
 334 540 334 540 381 499.5 c 128,-1,5
 428 459 428 459 444 402 c 1,6,-1
 444 633 l 2,7,8
 444 700 444 700 486 735.5 c 128,-1,9
 528 771 528 771 598 771 c 0,10,11
 623 771 623 771 658 767 c 1,12,-1
 658 727 l 1,13,14
 615 730 615 730 606 730 c 0,15,16
 490 730 490 730 490 622 c 2,17,-1
 490 0 l 1,18,-1
 445 0 l 1,19,-1
 445 116 l 1,20,21
 426 59 426 59 379 20.5 c 128,-1,22
 332 -18 332 -18 268 -18 c 0,23,24
 181 -18 181 -18 117 52 c 128,-1,25
 53 122 53 122 53 262 c 0,0,1
100 262 m 256,26,27
 100 152 100 152 147.5 86 c 128,-1,28
 195 20 195 20 274 20 c 0,29,30
 345 20 345 20 395 85 c 128,-1,31
 445 150 445 150 445 262 c 0,32,33
 445 373 445 373 394.5 437.5 c 128,-1,34
 344 502 344 502 273 502 c 0,35,36
 197 502 197 502 148.5 437 c 128,-1,37
 100 372 100 372 100 262 c 256,26,27
EndSplineSet
EndChar

StartChar: uni0258
Encoding: 600 600 524
Width: 557
GlyphClass: 2
Flags: W
LayerCount: 2
Fore
SplineSet
51 248 m 1,0,1
 51 254 51 254 50.5 263 c 128,-1,2
 50 272 50 272 50 278 c 0,3,4
 50 389 50 389 111 464.5 c 128,-1,5
 172 540 172 540 275 540 c 0,6,7
 379 540 379 540 441.5 463.5 c 128,-1,8
 504 387 504 387 504 265 c 0,9,10
 504 139 504 139 440.5 60.5 c 128,-1,11
 377 -18 377 -18 271 -18 c 0,12,13
 196 -18 196 -18 143.5 16.5 c 128,-1,14
 91 51 91 51 63 105 c 1,15,-1
 103 119 l 1,16,17
 126 76 126 76 170 48 c 128,-1,18
 214 20 214 20 271 20 c 0,19,20
 358 20 358 20 408 86.5 c 128,-1,21
 458 153 458 153 458 248 c 1,22,-1
 51 248 l 1,0,1
97 283 m 1,23,-1
 458 283 l 1,24,25
 455 371 455 371 407.5 436.5 c 128,-1,26
 360 502 360 502 275 502 c 0,27,28
 195 502 195 502 146 437.5 c 128,-1,29
 97 373 97 373 97 283 c 1,23,-1
EndSplineSet
EndChar

StartChar: uni025A
Encoding: 602 602 526
Width: 623
GlyphClass: 2
Flags: W
LayerCount: 2
Fore
SplineSet
50 222 m 1,0,-1
 430 396 l 1,1,2
 409 441 409 441 367.5 471.5 c 128,-1,3
 326 502 326 502 267 502 c 0,4,5
 212 502 212 502 168.5 473 c 128,-1,6
 125 444 125 444 104 403 c 1,7,-1
 64 417 l 1,8,9
 128 540 128 540 268 540 c 256,10,11
 408 540 408 540 468 414 c 1,12,-1
 541 455 l 1,13,14
 567 391 567 391 625 391 c 0,15,16
 647 391 647 391 654 393 c 1,17,-1
 654 357 l 1,18,19
 640 354 640 354 624 354 c 0,20,21
 589 354 589 354 564.5 367.5 c 128,-1,22
 540 381 540 381 529 402 c 1,23,-1
 482 377 l 1,24,25
 501 326 501 326 501 260 c 0,26,27
 501 141 501 141 440 61.5 c 128,-1,28
 379 -18 379 -18 269 -18 c 0,29,30
 175 -18 175 -18 116 50 c 128,-1,31
 57 118 57 118 50 222 c 1,0,-1
98 202 m 1,32,33
 110 116 110 116 157.5 68 c 128,-1,34
 205 20 205 20 269 20 c 0,35,36
 358 20 358 20 406.5 89 c 128,-1,37
 455 158 455 158 455 253 c 0,38,39
 455 255 455 255 455 257 c 0,40,41
 455 307 455 307 442 358 c 1,42,-1
 98 202 l 1,32,33
EndSplineSet
EndChar

StartChar: uni025B
Encoding: 603 603 527
Width: 458
GlyphClass: 2
Flags: W
LayerCount: 2
Fore
SplineSet
53 135 m 0,0,1
 53 193 53 193 89.5 229 c 128,-1,2
 126 265 126 265 179 277 c 1,3,-1
 179 278 l 1,4,5
 134 291 134 291 104 322 c 128,-1,6
 74 353 74 353 74 402 c 0,7,8
 74 463 74 463 117.5 501.5 c 128,-1,9
 161 540 161 540 244 540 c 0,10,11
 353 540 353 540 409 451 c 1,12,-1
 371 432 l 1,13,14
 326 502 326 502 246 502 c 0,15,16
 183 502 183 502 151.5 474 c 128,-1,17
 120 446 120 446 120 401 c 0,18,19
 120 355 120 355 158 324.5 c 128,-1,20
 196 294 196 294 273 294 c 2,21,-1
 303 294 l 1,22,-1
 303 259 l 1,23,-1
 273 259 l 2,24,25
 185 259 185 259 142.5 222.5 c 128,-1,26
 100 186 100 186 100 135 c 0,27,28
 100 83 100 83 140 51.5 c 128,-1,29
 180 20 180 20 248 20 c 0,30,31
 292 20 292 20 331.5 42.5 c 128,-1,32
 371 65 371 65 392 95 c 1,33,-1
 427 74 l 1,34,35
 398 33 398 33 350.5 7.5 c 128,-1,36
 303 -18 303 -18 248 -18 c 0,37,38
 160 -18 160 -18 106.5 22.5 c 128,-1,39
 53 63 53 63 53 135 c 0,0,1
EndSplineSet
EndChar

StartChar: uni025C
Encoding: 604 604 528
Width: 459
GlyphClass: 2
Flags: W
LayerCount: 2
Fore
SplineSet
31 74 m 1,0,-1
 66 95 l 1,1,2
 88 65 88 65 127.5 42.5 c 128,-1,3
 167 20 167 20 210 20 c 0,4,5
 277 20 277 20 318.5 51.5 c 128,-1,6
 360 83 360 83 360 135 c 0,7,8
 360 186 360 186 317.5 222.5 c 128,-1,9
 275 259 275 259 187 259 c 2,10,-1
 156 259 l 1,11,-1
 156 294 l 1,12,-1
 187 294 l 2,13,14
 264 294 264 294 301 324.5 c 128,-1,15
 338 355 338 355 338 401 c 0,16,17
 338 446 338 446 307 474 c 128,-1,18
 276 502 276 502 214 502 c 0,19,20
 133 502 133 502 88 432 c 1,21,-1
 50 451 l 1,22,23
 106 540 106 540 214 540 c 0,24,25
 297 540 297 540 340.5 501 c 128,-1,26
 384 462 384 462 384 402 c 0,27,28
 384 353 384 353 354 322.5 c 128,-1,29
 324 292 324 292 278 278 c 1,30,-1
 279 277 l 1,31,32
 332 265 332 265 369.5 229 c 128,-1,33
 407 193 407 193 407 135 c 0,34,35
 407 63 407 63 353.5 22.5 c 128,-1,36
 300 -18 300 -18 212 -18 c 0,37,38
 157 -18 157 -18 108.5 7.5 c 128,-1,39
 60 33 60 33 31 74 c 1,0,-1
EndSplineSet
EndChar

StartChar: uni025D
Encoding: 605 605 529
Width: 495
GlyphClass: 2
Flags: W
LayerCount: 2
Fore
SplineSet
31 74 m 1,0,-1
 66 95 l 1,1,2
 85 68 85 68 125.5 44 c 128,-1,3
 166 20 166 20 207 20 c 0,4,5
 279 20 279 20 319.5 52 c 128,-1,6
 360 84 360 84 360 135 c 256,7,8
 360 186 360 186 317.5 222.5 c 128,-1,9
 275 259 275 259 186 259 c 2,10,-1
 156 259 l 1,11,-1
 156 294 l 1,12,-1
 186 294 l 2,13,14
 263 294 263 294 300.5 324.5 c 128,-1,15
 338 355 338 355 338 401 c 0,16,17
 338 448 338 448 306 475 c 128,-1,18
 274 502 274 502 214 502 c 0,19,20
 134 502 134 502 88 432 c 1,21,-1
 50 451 l 1,22,23
 107 540 107 540 214 540 c 0,24,25
 334 540 334 540 372 459 c 1,26,-1
 444 494 l 1,27,28
 457 464 457 464 481.5 444 c 128,-1,29
 506 424 506 424 536 424 c 0,30,31
 557 424 557 424 564 426 c 1,32,-1
 564 389 l 1,33,34
 550 386 550 386 533 386 c 0,35,36
 497 386 497 386 470 403.5 c 128,-1,37
 443 421 443 421 431 443 c 1,38,-1
 383 419 l 1,39,40
 384 411 384 411 384 392 c 0,41,42
 382 349 382 349 351.5 319.5 c 128,-1,43
 321 290 321 290 279 278 c 1,44,-1
 279 277 l 1,45,46
 331 265 331 265 369 229 c 128,-1,47
 407 193 407 193 407 135 c 0,48,49
 407 62 407 62 354 22 c 128,-1,50
 301 -18 301 -18 209 -18 c 0,51,52
 154 -18 154 -18 105.5 9 c 128,-1,53
 57 36 57 36 31 74 c 1,0,-1
EndSplineSet
EndChar

StartChar: uni025E
Encoding: 606 606 530
Width: 556
GlyphClass: 2
Flags: W
LayerCount: 2
Fore
SplineSet
53 264 m 0,0,1
 53 393 53 393 117 466.5 c 128,-1,2
 181 540 181 540 287 540 c 0,3,4
 376 540 376 540 428 500.5 c 128,-1,5
 480 461 480 461 480 395 c 0,6,7
 480 345 480 345 452 312.5 c 128,-1,8
 424 280 424 280 383 268 c 1,9,-1
 383 267 l 1,10,11
 432 257 432 257 467 221.5 c 128,-1,12
 502 186 502 186 502 130 c 0,13,14
 502 60 502 60 447 21 c 128,-1,15
 392 -18 392 -18 291 -18 c 0,16,17
 193 -18 193 -18 123 52.5 c 128,-1,18
 53 123 53 123 53 264 c 0,0,1
100 264 m 0,19,20
 100 198 100 198 119 148 c 128,-1,21
 138 98 138 98 167.5 71.5 c 128,-1,22
 197 45 197 45 228.5 32.5 c 128,-1,23
 260 20 260 20 292 20 c 0,24,25
 372 20 372 20 414 50 c 128,-1,26
 456 80 456 80 456 128 c 0,27,28
 456 174 456 174 418 210.5 c 128,-1,29
 380 247 380 247 293 247 c 2,30,-1
 260 247 l 1,31,-1
 260 283 l 1,32,-1
 293 283 l 2,33,34
 371 283 371 283 402.5 316 c 128,-1,35
 434 349 434 349 434 391 c 0,36,37
 434 443 434 443 395.5 472.5 c 128,-1,38
 357 502 357 502 288 502 c 0,39,40
 208 502 208 502 154 440 c 128,-1,41
 100 378 100 378 100 264 c 0,19,20
EndSplineSet
EndChar

StartChar: uni025F
Encoding: 607 607 531
Width: 281
GlyphClass: 2
Flags: W
LayerCount: 2
Fore
SplineSet
-3 282 m 1,0,-1
 -3 320 l 1,1,-1
 120 320 l 1,2,-1
 120 523 l 1,3,-1
 166 523 l 1,4,-1
 166 320 l 1,5,-1
 276 320 l 1,6,-1
 276 282 l 1,7,-1
 166 282 l 1,8,-1
 166 -68 l 2,9,10
 166 -150 166 -150 130.5 -193.5 c 128,-1,11
 95 -237 95 -237 30 -237 c 2,12,-1
 -5 -237 l 1,13,-1
 -5 -197 l 1,14,-1
 20 -197 l 2,15,16
 120 -197 120 -197 120 -64 c 2,17,-1
 120 282 l 1,18,-1
 -3 282 l 1,0,-1
EndSplineSet
EndChar

StartChar: uni0260
Encoding: 608 608 532
Width: 577
GlyphClass: 2
Flags: W
LayerCount: 2
Fore
SplineSet
53 271 m 256,0,1
 53 391 53 391 111 465.5 c 128,-1,2
 169 540 169 540 266 540 c 0,3,4
 333 540 333 540 375 501.5 c 128,-1,5
 417 463 417 463 436 412 c 1,6,-1
 436 630 l 2,7,8
 436 696 436 696 480 733.5 c 128,-1,9
 524 771 524 771 592 771 c 0,10,11
 600 771 600 771 649 768 c 1,12,-1
 649 729 l 1,13,14
 621 731 621 731 598 731 c 0,15,16
 547 731 547 731 514.5 702.5 c 128,-1,17
 482 674 482 674 482 619 c 2,18,-1
 482 47 l 2,19,20
 482 -94 482 -94 435 -169 c 128,-1,21
 388 -244 388 -244 271 -244 c 0,22,23
 216 -244 216 -244 167.5 -221 c 128,-1,24
 119 -198 119 -198 88 -156 c 1,25,-1
 121 -134 l 1,26,27
 185 -205 185 -205 273 -205 c 0,28,29
 436 -205 436 -205 436 35 c 2,30,-1
 436 125 l 1,31,32
 388 0 388 0 267 0 c 0,33,34
 171 0 171 0 112 75.5 c 128,-1,35
 53 151 53 151 53 271 c 256,0,1
100 271 m 0,36,37
 100 166 100 166 147.5 102.5 c 128,-1,38
 195 39 195 39 268 39 c 0,39,40
 347 39 347 39 391.5 100.5 c 128,-1,41
 436 162 436 162 436 272 c 0,42,43
 436 375 436 375 390 438.5 c 128,-1,44
 344 502 344 502 270 502 c 0,45,46
 192 502 192 502 146 438 c 128,-1,47
 100 374 100 374 100 271 c 0,36,37
EndSplineSet
EndChar

StartChar: uni0262
Encoding: 610 610 534
Width: 590
GlyphClass: 2
Flags: W
LayerCount: 2
Fore
SplineSet
53 261 m 0,0,1
 53 386 53 386 120.5 463.5 c 128,-1,2
 188 541 188 541 305 541 c 0,3,4
 426 541 426 541 494 434 c 1,5,-1
 456 417 l 1,6,7
 395 502 395 502 305 502 c 0,8,9
 211 502 211 502 155.5 436 c 128,-1,10
 100 370 100 370 100 261 c 0,11,12
 100 151 100 151 155 85.5 c 128,-1,13
 210 20 210 20 302 20 c 0,14,15
 384 20 384 20 430 71.5 c 128,-1,16
 476 123 476 123 476 193 c 2,17,-1
 476 237 l 1,18,-1
 294 237 l 1,19,-1
 294 275 l 1,20,-1
 519 275 l 1,21,-1
 519 0 l 1,22,-1
 481 0 l 1,23,-1
 480 87 l 1,24,25
 463 44 463 44 416.5 13 c 128,-1,26
 370 -18 370 -18 300 -18 c 0,27,28
 187 -18 187 -18 120 57.5 c 128,-1,29
 53 133 53 133 53 261 c 0,0,1
EndSplineSet
EndChar

StartChar: uni0263
Encoding: 611 611 535
Width: 482
GlyphClass: 2
Flags: W
LayerCount: 2
Fore
SplineSet
13 523 m 1,0,-1
 64 523 l 1,1,-1
 242 85 l 1,2,-1
 419 523 l 1,3,-1
 471 523 l 1,4,-1
 273 49 l 1,5,6
 314 -3 314 -3 334.5 -41.5 c 128,-1,7
 355 -80 355 -80 355 -120 c 0,8,9
 355 -174 355 -174 323.5 -209 c 128,-1,10
 292 -244 292 -244 242 -244 c 0,11,12
 194 -244 194 -244 163 -210.5 c 128,-1,13
 132 -177 132 -177 132 -120 c 0,14,15
 132 -90 132 -90 144.5 -59 c 128,-1,16
 157 -28 157 -28 169.5 -9.5 c 128,-1,17
 182 9 182 9 212 48 c 1,18,-1
 13 523 l 1,0,-1
171 -122 m 0,19,20
 171 -158 171 -158 190.5 -184 c 128,-1,21
 210 -210 210 -210 242 -210 c 0,22,23
 275 -210 275 -210 295 -184 c 128,-1,24
 315 -158 315 -158 315 -122 c 0,25,26
 315 -96 315 -96 303 -67.5 c 128,-1,27
 291 -39 291 -39 279.5 -23.5 c 128,-1,28
 268 -8 268 -8 242 25 c 1,29,30
 171 -59 171 -59 171 -122 c 0,19,20
EndSplineSet
Substitution2: "'sups' Superscript lookup 5 subtable" uni02E0
Substitution2: "'aalt' Access All Alternates lookup 0 subtable" uni02E0
EndChar

StartChar: uni0264
Encoding: 612 612 536
Width: 478
GlyphClass: 2
Flags: W
LayerCount: 2
Fore
SplineSet
240 366 m 1,0,1
 208 328 208 328 189.5 302 c 128,-1,2
 171 276 171 276 155 232.5 c 128,-1,3
 139 189 139 189 139 142 c 0,4,5
 139 89 139 89 167 54.5 c 128,-1,6
 195 20 195 20 242 20 c 0,7,8
 286 20 286 20 312.5 55 c 128,-1,9
 339 90 339 90 339 142 c 0,10,11
 339 207 339 207 314.5 257.5 c 128,-1,12
 290 308 290 308 240 366 c 1,0,1
41 498 m 1,13,-1
 41 536 l 1,14,15
 63 540 63 540 78 540 c 0,16,17
 126 540 126 540 161.5 513.5 c 128,-1,18
 197 487 197 487 240 432 c 1,19,20
 281 486 281 486 317.5 513 c 128,-1,21
 354 540 354 540 400 540 c 0,22,23
 424 540 424 540 438 537 c 1,24,-1
 438 497 l 1,25,26
 416 502 416 502 402 502 c 0,27,28
 364 502 364 502 333 476 c 128,-1,29
 302 450 302 450 266 400 c 1,30,31
 328 327 328 327 357 270.5 c 128,-1,32
 386 214 386 214 386 141 c 0,33,34
 386 69 386 69 347.5 25.5 c 128,-1,35
 309 -18 309 -18 242 -18 c 0,36,37
 171 -18 171 -18 132 25.5 c 128,-1,38
 93 69 93 69 93 141 c 0,39,40
 93 174 93 174 101 207 c 128,-1,41
 109 240 109 240 117 260.5 c 128,-1,42
 125 281 125 281 147 313 c 128,-1,43
 169 345 169 345 177.5 355.5 c 128,-1,44
 186 366 186 366 213 400 c 1,45,46
 177 451 177 451 146.5 476.5 c 128,-1,47
 116 502 116 502 77 502 c 0,48,49
 74 502 74 502 41 498 c 1,13,-1
EndSplineSet
EndChar

StartChar: uni0265
Encoding: 613 613 537
Width: 579
GlyphClass: 2
Flags: W
LayerCount: 2
Fore
SplineSet
88 183 m 2,0,-1
 88 523 l 1,1,-1
 134 523 l 1,2,-1
 134 194 l 2,3,4
 134 20 134 20 265 20 c 0,5,6
 331 20 331 20 384 75 c 128,-1,7
 437 130 437 130 437 206 c 2,8,-1
 437 523 l 1,9,-1
 482 523 l 1,10,-1
 482 -240 l 1,11,-1
 437 -240 l 1,12,-1
 437 100 l 1,13,-1
 436 100 l 1,14,15
 419 55 419 55 370 18.5 c 128,-1,16
 321 -18 321 -18 256 -18 c 0,17,18
 225 -18 225 -18 198.5 -10 c 128,-1,19
 172 -2 172 -2 145 18.5 c 128,-1,20
 118 39 118 39 103 81 c 128,-1,21
 88 123 88 123 88 183 c 2,0,-1
EndSplineSet
EndChar

StartChar: uni0266
Encoding: 614 614 538
Width: 579
GlyphClass: 2
Flags: W
LayerCount: 2
Fore
SplineSet
97 0 m 1,0,-1
 97 608 l 2,1,2
 97 685 97 685 143.5 728 c 128,-1,3
 190 771 190 771 261 771 c 0,4,5
 305 771 305 771 362 763 c 1,6,-1
 362 724 l 1,7,8
 308 731 308 731 265 731 c 0,9,10
 203 731 203 731 173.5 690 c 128,-1,11
 144 649 144 649 144 600 c 2,12,-1
 144 422 l 1,13,-1
 145 422 l 1,14,15
 164 469 164 469 212 504.5 c 128,-1,16
 260 540 260 540 325 540 c 0,17,18
 356 540 356 540 382 532.5 c 128,-1,19
 408 525 408 525 434.5 504.5 c 128,-1,20
 461 484 461 484 476.5 442 c 128,-1,21
 492 400 492 400 492 338 c 2,22,-1
 492 0 l 1,23,-1
 448 0 l 1,24,-1
 448 329 l 2,25,26
 448 502 448 502 317 502 c 0,27,28
 251 502 251 502 197.5 447.5 c 128,-1,29
 144 393 144 393 144 316 c 2,30,-1
 144 0 l 1,31,-1
 97 0 l 1,0,-1
EndSplineSet
Substitution2: "'sups' Superscript lookup 5 subtable" uni02B1
Substitution2: "'aalt' Access All Alternates lookup 0 subtable" uni02B1
EndChar

StartChar: uni0267
Encoding: 615 615 539
Width: 584
GlyphClass: 2
Flags: W
LayerCount: 2
Fore
SplineSet
97 0 m 1,0,-1
 97 607 l 2,1,2
 97 685 97 685 143.5 728 c 128,-1,3
 190 771 190 771 261 771 c 0,4,5
 305 771 305 771 362 763 c 1,6,-1
 362 724 l 1,7,8
 308 731 308 731 265 731 c 0,9,10
 203 731 203 731 173.5 689.5 c 128,-1,11
 144 648 144 648 144 598 c 2,12,-1
 144 422 l 1,13,-1
 145 422 l 1,14,15
 164 469 164 469 212 504.5 c 128,-1,16
 260 540 260 540 325 540 c 0,17,18
 356 540 356 540 382 532 c 128,-1,19
 408 524 408 524 434.5 504 c 128,-1,20
 461 484 461 484 476.5 442 c 128,-1,21
 492 400 492 400 492 338 c 2,22,-1
 492 -69 l 2,23,24
 492 -155 492 -155 458.5 -199.5 c 128,-1,25
 425 -244 425 -244 343 -244 c 0,26,27
 314 -244 314 -244 286 -241 c 1,28,-1
 286 -202 l 1,29,30
 311 -205 311 -205 337 -205 c 0,31,32
 392 -205 392 -205 420 -174 c 128,-1,33
 448 -143 448 -143 448 -67 c 2,34,-1
 448 329 l 2,35,36
 448 502 448 502 317 502 c 0,37,38
 251 502 251 502 197.5 447 c 128,-1,39
 144 392 144 392 144 316 c 2,40,-1
 144 0 l 1,41,-1
 97 0 l 1,0,-1
EndSplineSet
EndChar

StartChar: uni0268
Encoding: 616 616 540
Width: 277
GlyphClass: 2
Flags: W
LayerCount: 2
Fore
SplineSet
100 661 m 1,0,-1
 100 746 l 1,1,-1
 178 746 l 1,2,-1
 178 661 l 1,3,-1
 100 661 l 1,0,-1
27 270 m 1,4,-1
 27 309 l 1,5,-1
 117 309 l 1,6,-1
 117 523 l 1,7,-1
 163 523 l 1,8,-1
 163 309 l 1,9,-1
 252 309 l 1,10,-1
 252 270 l 1,11,-1
 163 270 l 1,12,-1
 163 0 l 1,13,-1
 117 0 l 1,14,-1
 117 270 l 1,15,-1
 27 270 l 1,4,-1
EndSplineSet
EndChar

StartChar: uni0269
Encoding: 617 617 541
Width: 329
GlyphClass: 2
Flags: W
LayerCount: 2
Fore
SplineSet
92 135 m 2,0,-1
 92 523 l 1,1,-1
 139 523 l 1,2,-1
 139 137 l 2,3,4
 139 21 139 21 227 21 c 0,5,6
 250 21 250 21 296 27 c 1,7,-1
 296 -13 l 1,8,9
 243 -18 243 -18 220 -18 c 0,10,11
 92 -18 92 -18 92 135 c 2,0,-1
EndSplineSet
EndChar

StartChar: uni026B
Encoding: 619 619 543
Width: 247
GlyphClass: 2
Flags: W
LayerCount: 2
Fore
SplineSet
-10 378 m 1,0,-1
 -10 417 l 1,1,2
 29 432 29 432 62 432 c 0,3,4
 75 432 75 432 100 426 c 1,5,-1
 100 766 l 1,6,-1
 147 766 l 1,7,-1
 147 417 l 1,8,9
 175 410 175 410 196 410 c 0,10,11
 230 410 230 410 257 425 c 1,12,-1
 257 386 l 1,13,14
 226 370 226 370 196 370 c 0,15,16
 179 370 179 370 147 378 c 1,17,-1
 147 0 l 1,18,-1
 100 0 l 1,19,-1
 100 387 l 1,20,21
 75 393 75 393 62 393 c 0,22,23
 36 393 36 393 -10 378 c 1,0,-1
EndSplineSet
EndChar

StartChar: uni026C
Encoding: 620 620 544
Width: 437
GlyphClass: 2
Flags: W
LayerCount: 2
Fore
SplineSet
53 416 m 0,0,1
 53 458 53 458 82 488 c 128,-1,2
 111 518 111 518 162 518 c 0,3,4
 202 518 202 518 236 495.5 c 128,-1,5
 270 473 270 473 283 448 c 1,6,-1
 283 766 l 1,7,-1
 329 766 l 1,8,-1
 329 333 l 1,9,-1
 439 333 l 1,10,-1
 439 297 l 1,11,-1
 329 297 l 1,12,-1
 329 0 l 1,13,-1
 283 0 l 1,14,-1
 283 297 l 1,15,-1
 208 297 l 2,16,17
 139 297 139 297 96 328.5 c 128,-1,18
 53 360 53 360 53 416 c 0,0,1
99 416 m 0,19,20
 99 377 99 377 129.5 355 c 128,-1,21
 160 333 160 333 210 333 c 2,22,-1
 283 333 l 1,23,-1
 282 363 l 2,24,25
 281 413 281 413 244 446 c 128,-1,26
 207 479 207 479 166 479 c 0,27,28
 137 479 137 479 118 460.5 c 128,-1,29
 99 442 99 442 99 416 c 0,19,20
EndSplineSet
EndChar

StartChar: uni026D
Encoding: 621 621 545
Width: 332
GlyphClass: 2
Flags: W
LayerCount: 2
Fore
SplineSet
99 -90 m 2,0,-1
 99 766 l 1,1,-1
 146 766 l 1,2,-1
 146 -89 l 2,3,4
 146 -204 146 -204 234 -204 c 0,5,6
 258 -204 258 -204 304 -199 c 1,7,-1
 304 -239 l 1,8,9
 251 -244 251 -244 229 -244 c 0,10,11
 165 -244 165 -244 132 -204 c 128,-1,12
 99 -164 99 -164 99 -90 c 2,0,-1
EndSplineSet
EndChar

StartChar: uni026E
Encoding: 622 622 546
Width: 616
GlyphClass: 2
Flags: W
LayerCount: 2
Fore
SplineSet
138 -176 m 1,0,-1
 173 -157 l 1,1,2
 228 -204 228 -204 306 -204 c 0,3,4
 405 -204 405 -204 459 -151 c 128,-1,5
 513 -98 513 -98 513 -14 c 0,6,7
 513 74 513 74 455.5 125.5 c 128,-1,8
 398 177 398 177 288 177 c 2,9,-1
 212 177 l 1,10,-1
 212 210 l 1,11,-1
 470 483 l 1,12,-1
 145 483 l 1,13,-1
 145 0 l 1,14,-1
 99 0 l 1,15,-1
 99 766 l 1,16,-1
 145 766 l 1,17,-1
 145 523 l 1,18,-1
 534 523 l 1,19,-1
 534 491 l 1,20,-1
 270 212 l 1,21,-1
 300 212 l 2,22,23
 417 212 417 212 488 153 c 128,-1,24
 559 94 559 94 559 -14 c 0,25,26
 559 -117 559 -117 491 -180.5 c 128,-1,27
 423 -244 423 -244 307 -244 c 0,28,29
 202 -244 202 -244 138 -176 c 1,0,-1
EndSplineSet
EndChar

StartChar: uni026F
Encoding: 623 623 547
Width: 852
GlyphClass: 2
Flags: W
LayerCount: 2
Fore
SplineSet
87 182 m 2,0,-1
 87 523 l 1,1,-1
 134 523 l 1,2,-1
 134 191 l 2,3,4
 134 105 134 105 157.5 62.5 c 128,-1,5
 181 20 181 20 247 20 c 0,6,7
 310 20 310 20 355 72.5 c 128,-1,8
 400 125 400 125 400 209 c 2,9,-1
 400 523 l 1,10,-1
 446 523 l 1,11,-1
 446 190 l 2,12,13
 446 20 446 20 562 20 c 0,14,15
 629 20 629 20 672 71 c 128,-1,16
 715 122 715 122 715 203 c 2,17,-1
 715 523 l 1,18,-1
 760 523 l 1,19,-1
 760 0 l 1,20,-1
 716 0 l 1,21,-1
 716 93 l 1,22,-1
 714 93 l 1,23,24
 699 51 699 51 660 16.5 c 128,-1,25
 621 -18 621 -18 554 -18 c 0,26,27
 441 -18 441 -18 413 115 c 1,28,29
 412 108 412 108 406.5 94 c 128,-1,30
 401 80 401 80 386.5 60 c 128,-1,31
 372 40 372 40 352.5 23 c 128,-1,32
 333 6 333 6 302 -6 c 128,-1,33
 271 -18 271 -18 235 -18 c 0,34,35
 157 -18 157 -18 122 32 c 128,-1,36
 87 82 87 82 87 182 c 2,0,-1
EndSplineSet
EndChar

StartChar: uni0270
Encoding: 624 624 548
Width: 865
GlyphClass: 2
Flags: W
LayerCount: 2
Fore
SplineSet
87 182 m 2,0,-1
 87 523 l 1,1,-1
 133 523 l 1,2,-1
 133 191 l 2,3,4
 133 107 133 107 156 63.5 c 128,-1,5
 179 20 179 20 245 20 c 0,6,7
 309 20 309 20 354.5 73 c 128,-1,8
 400 126 400 126 400 209 c 2,9,-1
 400 523 l 1,10,-1
 446 523 l 1,11,-1
 446 190 l 2,12,13
 446 20 446 20 562 20 c 0,14,15
 629 20 629 20 671.5 71 c 128,-1,16
 714 122 714 122 714 203 c 2,17,-1
 714 523 l 1,18,-1
 760 523 l 1,19,-1
 760 -240 l 1,20,-1
 715 -240 l 1,21,-1
 715 93 l 1,22,-1
 714 93 l 1,23,24
 698 49 698 49 657.5 15.5 c 128,-1,25
 617 -18 617 -18 553 -18 c 0,26,27
 440 -18 440 -18 413 115 c 1,28,29
 410 101 410 101 398.5 81 c 128,-1,30
 387 61 387 61 367 37.5 c 128,-1,31
 347 14 347 14 311.5 -2 c 128,-1,32
 276 -18 276 -18 233 -18 c 0,33,34
 157 -18 157 -18 122 32.5 c 128,-1,35
 87 83 87 83 87 182 c 2,0,-1
EndSplineSet
EndChar

StartChar: uni0271
Encoding: 625 625 549
Width: 857
GlyphClass: 2
Flags: W
LayerCount: 2
Fore
SplineSet
93 0 m 1,0,-1
 93 523 l 1,1,-1
 138 523 l 1,2,-1
 138 429 l 1,3,-1
 139 429 l 1,4,5
 153 471 153 471 193 505.5 c 128,-1,6
 233 540 233 540 300 540 c 0,7,8
 414 540 414 540 440 408 c 1,9,10
 445 425 445 425 456.5 444.5 c 128,-1,11
 468 464 468 464 488.5 487.5 c 128,-1,12
 509 511 509 511 543 525.5 c 128,-1,13
 577 540 577 540 619 540 c 0,14,15
 696 540 696 540 731 490 c 128,-1,16
 766 440 766 440 766 339 c 2,17,-1
 766 -82 l 2,18,19
 766 -158 766 -158 732.5 -201 c 128,-1,20
 699 -244 699 -244 616 -244 c 0,21,22
 591 -244 591 -244 559 -240 c 1,23,-1
 559 -200 l 1,24,25
 562 -200 562 -200 581 -202 c 128,-1,26
 600 -204 600 -204 613 -204 c 0,27,28
 670 -204 670 -204 695 -175.5 c 128,-1,29
 720 -147 720 -147 720 -78 c 2,30,-1
 720 332 l 2,31,32
 720 416 720 416 696.5 459 c 128,-1,33
 673 502 673 502 608 502 c 256,34,35
 543 502 543 502 498 449.5 c 128,-1,36
 453 397 453 397 453 313 c 2,37,-1
 453 0 l 1,38,-1
 406 0 l 1,39,-1
 406 332 l 2,40,41
 406 502 406 502 291 502 c 0,42,43
 223 502 223 502 181 451.5 c 128,-1,44
 139 401 139 401 139 320 c 2,45,-1
 139 0 l 1,46,-1
 93 0 l 1,0,-1
EndSplineSet
EndChar

